<?xml version="1.0" standalone="no"?>
<!DOCTYPE svg PUBLIC "-//W3C//DTD SVG 1.1//EN" "http://www.w3.org/Graphics/SVG/1.1/DTD/svg11.dtd" >
<svg xmlns="http://www.w3.org/2000/svg" xmlns:xlink="http://www.w3.org/1999/xlink" version="1.1">
<metadata>
Created by FontForge 20201107 at Sat May 18 15:36:57 2024
 By 
Copyright 2018 Adobe Systems Incorporated. All rights reserved.
</metadata>
<defs>
<font id="SVN-ProductSansItalic" horiz-adv-x="1110" >
  <font-face 
    font-family="SVN-Product Sans"
    font-weight="400"
    font-style="italic"
    font-stretch="normal"
    units-per-em="2048"
    panose-1="2 11 4 3 3 5 2 9 2 3"
    ascent="1638"
    descent="-410"
    x-height="1004"
    cap-height="1466"
    bbox="-487 -518 6726 2103"
    underline-thickness="172"
    underline-position="-327"
    slope="-10"
    unicode-range="U+000D-2215"
  />
<missing-glyph horiz-adv-x="1167" 
d="M147 0v1466h873v-1466h-873zM279 1343v-1220h610v1220h-610z" />
    <glyph glyph-name="f_i" unicode="fi" horiz-adv-x="1196" 
d="M707 1483q89 0 153 -41l-78 -160q-41 25 -94 25q-75 0 -126 -44t-68 -133l-23 -126h639l-176 -1004h-189l146 831h-451l-145 -831h-189l146 831h-189l31 173h189l26 145q29 158 135.5 246t262.5 88zM1196 1298q0 -50 -37 -86t-90 -36q-50 0 -86.5 36.5t-36.5 85.5
q0 53 36.5 90t86.5 37q54 0 90.5 -36.5t36.5 -90.5z" />
    <glyph glyph-name="f_l" unicode="fl" horiz-adv-x="1179" 
d="M934 0h-189l230 1303h-283q-168 0 -198 -173l-23 -126h244l-31 -173h-244l-145 -831h-189l146 831h-189l31 173h189l28 149q26 148 130.5 235t281.5 87h471z" />
    <glyph glyph-name="f_b" unicode="fb" horiz-adv-x="1939" 
d="M1268 -33q-100 0 -184 48t-128 124h-8l-24 -139h-179l230 1303h-283q-168 0 -198 -173l-23 -126h244l-31 -173h-244l-145 -831h-189l146 831h-189l31 173h189l28 149q26 148 130.5 235t281.5 87h471l-84 -471l-33 -140h8q127 172 349 172q181 0 298 -128t117 -341
q0 -154 -74.5 -291.5t-209.5 -223t-297 -85.5zM1282 139q156 0 265.5 120t109.5 296q0 147 -71.5 228t-205.5 81q-104 0 -191.5 -61t-136 -158.5t-48.5 -206.5q0 -143 77.5 -221t200.5 -78z" />
    <glyph glyph-name="f_f" unicode="ff" horiz-adv-x="1392" 
d="M1346 1483q89 0 153 -41l-78 -160q-41 25 -94 25q-75 0 -126 -44t-68 -133l-23 -126h262l-31 -173h-262l-145 -831h-189l146 831h-451l-145 -831h-189l146 831h-189l31 173h189l26 145q29 158 135.5 246t262.5 88q89 0 153 -41l-78 -160q-41 25 -94 25q-75 0 -126 -44
t-68 -133l-23 -126h451l26 145q29 158 135.5 246t262.5 88z" />
    <glyph glyph-name="f_f_b" unicode="ffb" horiz-adv-x="2578" 
d="M1907 -33q-100 0 -184 48t-128 124h-8l-24 -139h-179l230 1303h-283q-168 0 -198 -173l-23 -126h244l-31 -173h-244l-145 -831h-189l146 831h-451l-145 -831h-189l146 831h-189l31 173h189l26 145q29 158 135.5 246t262.5 88q89 0 153 -41l-78 -160q-41 25 -94 25
q-75 0 -126 -44t-68 -133l-23 -126h451l28 149q26 148 130.5 235t281.5 87h471l-84 -471l-33 -140h8q127 172 349 172q181 0 298 -128t117 -341q0 -154 -74.5 -291.5t-209.5 -223t-297 -85.5zM1921 139q156 0 265.5 120t109.5 296q0 147 -71.5 228t-205.5 81
q-104 0 -192 -61t-136.5 -158.5t-48.5 -206.5q0 -143 78 -221t201 -78z" />
    <glyph glyph-name="f_f_h" unicode="ffh" horiz-adv-x="2508" 
d="M1833 1475l-84 -471l-33 -140h8q58 76 151 124t198 48q160 0 240.5 -83.5t80.5 -215.5q0 -43 -14 -131l-109 -606h-188l106 602q9 41 9 76q0 91 -53.5 138.5t-147.5 47.5q-122 0 -215.5 -94.5t-114.5 -222.5l-94 -547h-189l230 1303h-283q-168 0 -198 -173l-23 -126h244
l-31 -173h-244l-145 -831h-189l146 831h-451l-145 -831h-189l146 831h-189l31 173h189l26 145q29 158 135.5 246t262.5 88q89 0 153 -41l-78 -160q-41 25 -94 25q-75 0 -126 -44t-68 -133l-23 -126h451l28 149q26 148 130.5 235t281.5 87h471z" />
    <glyph glyph-name="f_f_i" unicode="ffi" horiz-adv-x="1835" 
d="M1346 1483q89 0 153 -41l-78 -160q-41 25 -94 25q-75 0 -126 -44t-68 -133l-23 -126h639l-176 -1004h-189l146 831h-451l-145 -831h-189l146 831h-451l-145 -831h-189l146 831h-189l31 173h189l26 145q29 158 135.5 246t262.5 88q89 0 153 -41l-78 -160q-41 25 -94 25
q-75 0 -126 -44t-68 -133l-23 -126h451l26 145q29 158 135.5 246t262.5 88zM1835 1298q0 -50 -37 -86t-90 -36q-50 0 -86.5 36.5t-36.5 85.5q0 53 36.5 90t86.5 37q54 0 90.5 -36.5t36.5 -90.5z" />
    <glyph glyph-name="f_f_j" unicode="ffj" horiz-adv-x="1835" 
d="M1346 1483q89 0 153 -41l-78 -160q-41 25 -94 25q-75 0 -126 -44t-68 -133l-23 -126h639l-205 -1164q-53 -303 -340 -303q-66 0 -112 21l71 163q24 -12 62 -12q107 0 131 133l174 989h-451l-145 -831h-189l146 831h-451l-145 -831h-189l146 831h-189l31 173h189l26 145
q29 158 135.5 246t262.5 88q89 0 153 -41l-78 -160q-41 25 -94 25q-75 0 -126 -44t-68 -133l-23 -126h451l26 145q29 158 135.5 246t262.5 88zM1835 1298q0 -50 -37 -86t-90 -36q-50 0 -86.5 36.5t-36.5 85.5q0 53 36.5 90t86.5 37q54 0 90.5 -36.5t36.5 -90.5z" />
    <glyph glyph-name="f_f_k" unicode="ffk" horiz-adv-x="2387" 
d="M1833 1475l-160 -906l504 435h248l-2 -9l-461 -389l305 -598l-2 -8h-221l-234 477l-180 -153l-57 -324h-189l230 1303h-283q-168 0 -198 -173l-23 -126h244l-31 -173h-244l-145 -831h-189l146 831h-451l-145 -831h-189l146 831h-189l31 173h189l26 145q29 158 135.5 246
t262.5 88q89 0 153 -41l-78 -160q-41 25 -94 25q-75 0 -126 -44t-68 -133l-23 -126h451l28 149q26 148 130.5 235t281.5 87h471z" />
    <glyph glyph-name="f_f_l" unicode="ffl" horiz-adv-x="1818" 
d="M1573 0h-189l230 1303h-283q-168 0 -198 -173l-23 -126h244l-31 -173h-244l-145 -831h-189l146 831h-451l-145 -831h-189l146 831h-189l31 173h189l26 145q29 158 135.5 246t262.5 88q89 0 153 -41l-78 -160q-41 25 -94 25q-75 0 -126 -44t-68 -133l-23 -126h451l28 149
q26 148 130.5 235t281.5 87h471z" />
    <glyph glyph-name="f_f_t" unicode="fft" horiz-adv-x="2013" 
d="M1675 -16q-105 0 -175 63.5t-70 167.5q0 48 10 102l90 514h-451l-145 -831h-189l146 831h-451l-145 -831h-189l146 831h-189l31 173h189l26 145q29 158 135.5 246t262.5 88q89 0 153 -41l-78 -160q-41 25 -94 25q-75 0 -126 -44t-68 -133l-23 -126h451l26 145
q29 158 135.5 246t262.5 88q89 0 153 -41l-78 -160q-41 25 -94 25q-75 0 -126 -44t-68 -133l-23 -126h451l55 307h188l-55 -307h246l-31 -173h-246l-86 -487q-3 -27 -6 -45q-4 -28 -4 -37q0 -46 25.5 -74t74.5 -28q53 0 93 18l30 -168q-79 -26 -170 -26z" />
    <glyph glyph-name="f_h" unicode="fh" horiz-adv-x="1869" 
d="M1194 1475l-84 -471l-33 -140h8q58 76 151 124t198 48q160 0 240.5 -83.5t80.5 -215.5q0 -43 -14 -131l-109 -606h-188l106 602q9 41 9 76q0 91 -53.5 138.5t-147.5 47.5q-122 0 -215.5 -94.5t-114.5 -222.5l-94 -547h-189l230 1303h-283q-168 0 -198 -173l-23 -126h244
l-31 -173h-244l-145 -831h-189l146 831h-189l31 173h189l28 149q26 148 130.5 235t281.5 87h471z" />
    <glyph glyph-name="f_j" unicode="fj" horiz-adv-x="1196" 
d="M440 831l-145 -831h-189l146 831h-189l31 173h189l26 145q29 158 135.5 246t262.5 88q89 0 153 -41l-78 -160q-41 25 -94 25q-75 0 -126 -44t-68 -133l-23 -126h639l-205 -1164q-53 -303 -340 -303q-65 0 -112 21l71 163q24 -12 62 -12q107 0 131 133l174 989h-451z
M1200 1298q0 -50 -37 -86t-90 -36q-50 0 -86.5 36.5t-36.5 85.5q0 53 36.5 90t86.5 37q54 0 90.5 -36.5t36.5 -90.5z" />
    <glyph glyph-name="f_k" unicode="fk" horiz-adv-x="1748" 
d="M1194 1475l-160 -906l504 435h248l-2 -9l-461 -389l305 -598l-2 -8h-221l-234 477l-180 -153l-57 -324h-189l230 1303h-283q-168 0 -198 -173l-23 -126h244l-31 -173h-244l-145 -831h-189l146 831h-189l31 173h189l28 149q26 148 130.5 235t281.5 87h471z" />
    <glyph glyph-name="f_t" unicode="ft" horiz-adv-x="1374" 
d="M707 1483q89 0 153 -41l-78 -160q-41 25 -94 25q-75 0 -126 -44t-68 -133l-23 -126h451l55 307h188l-55 -307h246l-31 -173h-246l-86 -487q-3 -27 -6 -45q-4 -28 -4 -37q0 -46 25.5 -74t74.5 -28q53 0 93 18l30 -168q-79 -26 -170 -26q-105 0 -175 63.5t-70 167.5
q0 48 10 102l90 514h-451l-145 -831h-189l146 831h-189l31 173h189l26 145q29 158 135.5 246t262.5 88z" />
    <glyph glyph-name="r_f" unicode="rf" horiz-adv-x="1531" 
d="M1485 1483q89 0 153 -41l-77 -160q-41 25 -95 25q-75 0 -126 -44t-68 -133l-23 -126h262l-30 -173h-262l-146 -831h-188l145 831h-188l30 173h189l26 145q29 158 135.5 246t262.5 88zM342 1004l-29 -164h9q43 93 138.5 142.5t213.5 49.5q31 0 67 -4l-34 -197q-27 9 -84 9
q-130 0 -230.5 -85.5t-124.5 -224.5l-94 -530h-188l176 1004h180z" />
    <glyph glyph-name="r_f_f" unicode="rff" horiz-adv-x="2170" 
d="M342 1004l-29 -164h9q43 93 138.5 142.5t213.5 49.5q31 0 67 -4l-34 -197q-27 9 -84 9q-130 0 -230.5 -85.5t-124.5 -224.5l-94 -530h-188l176 1004h180zM2124 1483q89 0 153 -41l-77 -160q-41 25 -95 25q-75 0 -126 -44t-68 -133l-23 -126h262l-30 -173h-262l-146 -831
h-188l145 831h-450l-146 -831h-188l145 831h-188l30 173h189l26 145q29 158 135.5 246t262.5 88q89 0 153 -41l-77 -160q-41 25 -95 25q-75 0 -126 -44t-68 -133l-23 -126h451l26 145q29 158 135.5 246t262.5 88z" />
    <glyph glyph-name="r_t" unicode="rt" horiz-adv-x="1503" 
d="M1165 -16q-105 0 -175 63.5t-70 167.5q0 48 10 102l90 514h-176l30 173h177l55 307h188l-55 -307h246l-31 -173h-246l-86 -487q-3 -27 -6 -45q-4 -28 -4 -37q0 -46 25.5 -74t74.5 -28q53 0 93 18l30 -168q-79 -26 -170 -26zM342 1004l-29 -164h9q43 93 138.5 142.5
t213.5 49.5q31 0 67 -4l-34 -197q-27 9 -84 9q-130 0 -230.5 -85.5t-124.5 -224.5l-94 -530h-188l176 1004h180z" />
    <glyph glyph-name="t_f" unicode="tf" horiz-adv-x="1382" 
d="M430 831l-86 -487q-3 -27 -6 -45q-4 -28 -4 -37q0 -46 25.5 -74t74.5 -28q52 0 92 18l31 -168q-79 -26 -170 -26q-105 0 -175.5 63.5t-70.5 167.5q0 43 11 102l90 514h-176l30 173h176l56 307h188l-55 -307h450l27 145q29 158 135.5 246t261.5 88q90 0 154 -41l-78 -160
q-41 25 -94 25q-75 0 -126.5 -44t-68.5 -133l-22 -126h262l-31 -173h-262l-145 -831h-189l146 831h-451z" />
    <glyph glyph-name="t_t" unicode="tt" horiz-adv-x="1380" 
d="M1042 -16q-105 0 -175 63.5t-70 167.5q0 48 10 102l90 514h-467l-86 -487q-3 -27 -6 -45q-4 -28 -4 -37q0 -46 25.5 -74t74.5 -28q52 0 92 18l31 -168q-79 -26 -170 -26q-105 0 -175.5 63.5t-70.5 167.5q0 43 11 102l90 514h-176l30 173h176l56 307h188l-55 -307h467
l55 307h188l-55 -307h246l-31 -173h-246l-86 -487q-3 -27 -6 -45q-4 -28 -4 -37q0 -46 26 -74t75 -28q52 0 92 18l30 -168q-79 -26 -170 -26z" />
    <glyph glyph-name=".notdef" horiz-adv-x="1167" 
d="M147 0v1466h873v-1466h-873zM279 1343v-1220h610v1220h-610z" />
    <glyph glyph-name=".null" horiz-adv-x="0" 
 />
    <glyph glyph-name="uni000D" unicode="&#xd;" horiz-adv-x="0" 
 />
    <glyph glyph-name="NULL" horiz-adv-x="0" 
 />
    <glyph glyph-name="NULL" horiz-adv-x="0" 
 />
    <glyph glyph-name="space" unicode=" " horiz-adv-x="450" 
 />
    <glyph glyph-name="exclam" unicode="!" horiz-adv-x="475" 
d="M133 -12q-60 0 -99.5 39.5t-39.5 99.5t39.5 99.5t99.5 39.5t99.5 -39.5t39.5 -99.5t-39.5 -99.5t-99.5 -39.5zM115 455l75 549l82 462h189l-82 -462l-117 -549h-147z" />
    <glyph glyph-name="quotedbl" unicode="&#x22;" horiz-adv-x="655" 
d="M612 1004h-172l82 462h172zM309 1004h-172l82 462h172z" />
    <glyph glyph-name="numbersign" unicode="#" horiz-adv-x="1294" 
d="M383 0h-164l72 416h-252l31 155h247l50 277h-256l28 156h254l70 397h164l-70 -397h279l69 397h164l-70 -397h252l-28 -156h-250l-49 -277h258l-29 -155h-256l-72 -416h-163l71 416h-278zM530 848l-49 -277h279l49 277h-279z" />
    <glyph glyph-name="dollar" unicode="$" horiz-adv-x="1091" 
d="M317 -205l31 180q-138 27 -238.5 122t-121.5 249l178 68q8 -96 63.5 -164.5t151.5 -91.5l86 491q-311 136 -311 391q0 156 120.5 265.5t327.5 126.5l31 174h156l-33 -181q117 -23 192 -97.5t107 -176.5l-180 -72q-40 127 -150 160l-82 -465q157 -78 234 -163t77 -218
q0 -182 -126.5 -293t-325.5 -129l-31 -176h-156zM764 377q0 74 -38 120.5t-116 86.5l-75 -432q101 13 165 69.5t64 155.5zM348 1036q0 -115 152 -196l71 409q-223 -24 -223 -213z" />
    <glyph glyph-name="percent" unicode="%" horiz-adv-x="1667" 
d="M305 -16l-104 84l1151 1349l102 -86zM426 733q-133 0 -218 85.5t-85 219.5q0 166 117 281t290 115q133 0 218.5 -86t85.5 -220q0 -166 -117.5 -280.5t-290.5 -114.5zM444 870q102 0 169 70t67 176q0 83 -47 131.5t-121 48.5q-104 0 -170 -69.5t-66 -175.5q0 -83 47 -132
t121 -49zM1128 -33q-133 0 -218 85.5t-85 219.5q0 166 117.5 281t290.5 115q133 0 218 -86t85 -220q0 -166 -117.5 -280.5t-290.5 -114.5zM1147 104q102 0 168.5 70t66.5 176q0 83 -47 131.5t-121 48.5q-104 0 -169.5 -69.5t-65.5 -175.5q0 -83 47 -132t121 -49z" />
    <glyph glyph-name="ampersand" unicode="&#x26;" horiz-adv-x="1265" 
d="M1153 524l-192 -276l112 -191l-166 -90l-78 133q-160 -133 -366 -133q-125 0 -227 53t-164 156.5t-62 239.5q0 344 338 506q-67 117 -67 225q0 66 25 128t71 112.5t119.5 81t162.5 30.5q263 0 334 -260l-186 -74q-37 154 -168 154q-70 0 -118 -47.5t-48 -124.5
q0 -68 47 -150l357 -606l153 223zM481 139q157 0 267 101l-318 542q-111 -54 -178.5 -143.5t-67.5 -212.5q0 -118 83.5 -202.5t213.5 -84.5z" />
    <glyph glyph-name="quotesingle" unicode="'" horiz-adv-x="352" 
d="M309 1004h-172l82 462h172z" />
    <glyph glyph-name="parenleft" unicode="(" horiz-adv-x="675" 
d="M662 1597l106 -98q-228 -214 -346.5 -459t-118.5 -555q0 -355 189 -665l-136 -99q-104 146 -173.5 351t-69.5 448q0 311 151 599.5t398 477.5z" />
    <glyph glyph-name="parenright" unicode=")" horiz-adv-x="675" 
d="M18 -279l-106 99q227 214 346 459.5t119 554.5q0 355 -189 665l136 98q103 -145 173 -351t70 -447q0 -311 -151 -600t-398 -478z" />
    <glyph glyph-name="asterisk" unicode="*" horiz-adv-x="892" 
d="M168 1161l59 139l213 -81l11 4l43 243h155l-43 -243l10 -4l215 75l50 -143l-240 -88l-6 -14l117 -203l-144 -92l-116 209h-13l-188 -209l-117 100l203 215l-2 14z" />
    <glyph glyph-name="plus" unicode="+" horiz-adv-x="1126" 
d="M688 1004l-65 -371h370l-26 -156h-371l-66 -371h-155l65 371h-370l26 156h371l65 371h156z" />
    <glyph glyph-name="comma" unicode="," horiz-adv-x="475" 
d="M31 -229l-76 63l137 166q-28 11 -55 43t-27 84q0 59 41 99t96 40q60 0 101 -39.5t41 -99.5q0 -22 -13.5 -49t-28 -47t-44.5 -56z" />
    <glyph glyph-name="hyphen" unicode="-" horiz-adv-x="884" 
d="M82 557l27 156h655l-27 -156h-655z" />
    <glyph glyph-name="period" unicode="." horiz-adv-x="475" 
d="M131 -12q-60 0 -99.5 39.5t-39.5 99.5t39.5 99.5t99.5 39.5t99.5 -39.5t39.5 -99.5t-39.5 -99.5t-99.5 -39.5z" />
    <glyph glyph-name="slash" unicode="/" horiz-adv-x="894" 
d="M100 0h-178l866 1466h181z" />
    <glyph glyph-name="zero" unicode="0" horiz-adv-x="1306" 
d="M547 -33q-218 0 -345.5 165t-127.5 446q0 230 89.5 426.5t247.5 313t347 116.5q226 0 350.5 -159.5t124.5 -447.5q0 -174 -52.5 -332t-143 -274t-218.5 -185t-272 -69zM563 147q90 0 177 52t152.5 139.5t105.5 212t40 260.5q0 208 -76.5 325t-226.5 117q-87 0 -172 -54
t-150 -143t-105 -212t-40 -254q0 -211 79 -327t216 -116z" />
    <glyph glyph-name="one" unicode="1" horiz-adv-x="786" 
d="M481 0h-188l205 1161l-275 -110l-61 157l446 193h121z" />
    <glyph glyph-name="two" unicode="2" horiz-adv-x="1064" 
d="M850 0h-891l33 188q39 34 82 71.5t92.5 80.5t75.5 66q15 13 49 42.5t53 45.5q37 33 93.5 82t96 83t62.5 56q46 41 60.5 55t49.5 48.5t48 54t31.5 50.5t25 61t6.5 63q0 95 -60 150.5t-167 55.5q-54 0 -100.5 -19.5t-79 -52t-53.5 -64.5t-35 -66l-168 75q22 58 59 109.5
t91.5 97.5t135 73.5t174.5 27.5q172 0 286 -101.5t114 -255.5q0 -60 -17 -117t-42 -101.5t-68.5 -95t-81 -86t-94.5 -85.5q-6 -6 -22 -19.5t-23 -19.5q-21 -21 -66 -57q-9 -7 -78 -66q-29 -27 -82 -72q-82 -71 -207 -178h648z" />
    <glyph glyph-name="three" unicode="3" horiz-adv-x="1087" 
d="M432 -33q-75 0 -145.5 22t-131 63.5t-101 110t-50.5 154.5l184 72q12 -114 83.5 -178t183.5 -64q129 0 217 72.5t88 198.5q0 107 -69.5 167t-178.5 60h-121l31 176h106q137 0 216 62.5t79 177.5q0 86 -62.5 139t-156.5 53q-95 0 -162 -55t-100 -131l-168 78
q56 125 168.5 207t284.5 82q168 0 279.5 -97.5t111.5 -244.5q0 -245 -244 -347v-8q77 -34 128.5 -114t51.5 -185q0 -140 -72 -249t-190.5 -165.5t-259.5 -56.5z" />
    <glyph glyph-name="four" unicode="4" horiz-adv-x="1206" 
d="M805 0h-189l54 295h-666l25 143l809 963h215l-164 -930h180l-31 -176h-180zM700 471l115 653h-8l-537 -653h430z" />
    <glyph glyph-name="five" unicode="5" horiz-adv-x="1136" 
d="M442 -33q-72 0 -143 24t-131.5 69.5t-102 119.5t-49.5 166l181 68q11 -121 76 -194t178 -73q150 0 250 88.5t100 231.5q0 118 -67 190t-183 72q-71 0 -138.5 -32.5t-117.5 -88.5l-176 82l215 711h735l-31 -180h-581l-123 -402l8 -2q119 84 258 84q177 0 285 -112
t108 -302q0 -140 -68.5 -258.5t-195.5 -190t-287 -71.5z" />
    <glyph glyph-name="six" unicode="6" horiz-adv-x="1124" 
d="M623 889q161 0 269.5 -119.5t108.5 -302.5q0 -114 -43.5 -209.5t-117 -158.5t-168.5 -97.5t-199 -34.5q-189 0 -316.5 121t-127.5 309q0 128 55.5 232t185.5 252l486 553l133 -105l-412 -471l4 -4q62 35 142 35zM487 147q138 0 230 84.5t92 221.5q0 119 -74.5 193.5
t-195.5 74.5q-141 0 -229.5 -91.5t-88.5 -228.5q0 -110 78.5 -182t187.5 -72z" />
    <glyph glyph-name="seven" unicode="7" horiz-adv-x="1071" 
d="M176 -33l-143 109l837 1145h-700l35 180h903l-33 -193z" />
    <glyph glyph-name="eight" unicode="8" horiz-adv-x="1114" 
d="M438 -33q-188 0 -305 106t-117 263q0 136 81 241t214 156l2 8q-135 107 -135 265q0 174 141 301t347 127q172 0 275 -94t103 -253q0 -68 -21.5 -126.5t-58.5 -100t-76 -70.5t-83 -49l-2 -8q75 -38 125.5 -119t50.5 -176q0 -140 -77 -249t-199.5 -165.5t-264.5 -56.5z
M584 821q115 0 191.5 69t76.5 163q0 96 -57 148t-150 52q-118 0 -195 -66t-77 -171q0 -89 58.5 -142t152.5 -53zM455 147q80 0 154.5 33t124.5 99t50 149q0 97 -72 157t-180 60q-128 0 -224.5 -82t-96.5 -209q0 -93 69 -150t175 -57z" />
    <glyph glyph-name="nine" unicode="9" horiz-adv-x="1124" 
d="M508 512q-162 0 -274.5 120t-112.5 302q0 114 43.5 209.5t117 158.5t168.5 97.5t199 34.5q189 0 317 -121t128 -309q0 -88 -29.5 -168.5t-77.5 -148.5t-135 -167l-485 -553l-134 105l412 471l-4 4q-62 -35 -133 -35zM635 1253q-138 0 -230 -84t-92 -221q0 -119 75 -193.5
t196 -74.5q141 0 229 91t88 228q0 107 -79 180.5t-187 73.5z" />
    <glyph glyph-name="colon" unicode=":" horiz-adv-x="475" 
d="M131 -12q-60 0 -99.5 39.5t-39.5 99.5t39.5 99.5t99.5 39.5t99.5 -39.5t39.5 -99.5t-39.5 -99.5t-99.5 -39.5zM264 737q-60 0 -99.5 40t-39.5 100t39.5 99.5t99.5 39.5t99.5 -39.5t39.5 -99.5t-39.5 -100t-99.5 -40z" />
    <glyph glyph-name="semicolon" unicode=";" horiz-adv-x="475" 
d="M264 737q-60 0 -99.5 40t-39.5 100t39.5 99.5t99.5 39.5t99.5 -39.5t39.5 -99.5t-39.5 -100t-99.5 -40zM31 -190l-76 63l137 166q-28 11 -55 43t-27 84q0 59 41 99t96 40q60 0 101 -39.5t41 -99.5q0 -22 -13.5 -49t-28 -47t-44.5 -56z" />
    <glyph glyph-name="less" unicode="&#x3c;" horiz-adv-x="1036" 
d="M803 106l-731 379l22 140l867 379l-31 -181l-647 -270l-2 -8l550 -277z" />
    <glyph glyph-name="equal" unicode="=" horiz-adv-x="1150" 
d="M121 770l26 156h922l-27 -156h-921zM51 381l29 156h921l-28 -156h-922z" />
    <glyph glyph-name="greater" unicode="&#x3e;" horiz-adv-x="1036" 
d="M170 1004l731 -379l-22 -140l-867 -379l31 181l647 270l2 8l-551 277z" />
    <glyph glyph-name="question" unicode="?" horiz-adv-x="1009" 
d="M535 455h-193l16 96q15 94 63.5 160.5t168.5 154.5q45 34 72 57.5t59.5 59.5t48.5 74t16 80q0 81 -55.5 131.5t-152.5 50.5q-99 0 -167.5 -56.5t-95.5 -140.5l-163 74q44 132 160.5 217.5t291.5 85.5q164 0 270.5 -97.5t106.5 -238.5q0 -52 -15.5 -101t-38 -86t-61 -78
t-71 -69t-82.5 -67q-74 -58 -114 -110t-50 -115zM379 -12q-60 0 -99.5 39.5t-39.5 99.5t39.5 99.5t99.5 39.5t99.5 -39.5t39.5 -99.5t-39.5 -99.5t-99.5 -39.5z" />
    <glyph glyph-name="at" unicode="@" horiz-adv-x="1777" 
d="M987 1413q142 0 271.5 -49t226 -135.5t154 -213.5t57.5 -274q0 -141 -43.5 -263.5t-131 -201.5t-200.5 -79q-79 0 -135.5 39.5t-79.5 109.5q-53 -71 -132.5 -110t-168.5 -39q-141 0 -246.5 103t-105.5 263q0 85 30.5 167t86 150t144.5 110t197 42q87 0 152.5 -34.5
t99.5 -86.5h8l17 93h147l-94 -535q-4 -28 -4 -43q0 -38 24.5 -67t75.5 -29q61 0 110 62.5t74 155t25 189.5q0 240 -162.5 384.5t-427.5 144.5q-155 0 -290 -54.5t-230.5 -149.5t-150 -227t-54.5 -282q0 -164 77.5 -296.5t205.5 -204.5t279 -72q158 0 278 57l47 -137
q-153 -68 -340 -68q-200 0 -362.5 97t-252 260t-89.5 356q0 180 68.5 340t188.5 276t290.5 184t365.5 68zM846 352q117 0 197.5 84.5t80.5 210.5q0 105 -60 167.5t-163 62.5q-126 0 -203 -89t-77 -219q0 -105 63.5 -161t161.5 -56z" />
    <glyph glyph-name="A" unicode="A" horiz-adv-x="1368" 
d="M-104 0l811 1466h213l292 -1466h-202l-70 397h-616l-215 -397h-213zM418 573h487l-123 662h-8z" />
    <glyph glyph-name="B" unicode="B" horiz-adv-x="1216" 
d="M16 0l260 1466h502q178 0 282.5 -103.5t104.5 -254.5q0 -131 -73 -218t-185 -128l-2 -8q195 -105 195 -305q0 -125 -69.5 -228t-190 -162t-265.5 -59h-559zM352 838h342q123 0 202 63t79 178q0 89 -56.5 148t-156.5 59h-330zM238 180h378q52 0 102 16.5t92.5 47.5
t68.5 83t26 117q0 99 -63.5 158.5t-171.5 59.5h-348z" />
    <glyph glyph-name="C" unicode="C" horiz-adv-x="1492" 
d="M1214 365l121 -138q-144 -136 -287.5 -198t-336.5 -62q-285 0 -466.5 181.5t-181.5 476.5q0 169 67.5 327.5t183.5 279.5t283 194t355 73q163 0 298 -69.5t204 -176.5l-151 -125q-68 99 -156.5 145t-214.5 46q-138 0 -264.5 -57.5t-216 -152t-142.5 -219.5t-53 -255
q0 -218 135 -353t342 -135q145 0 257 55t224 163z" />
    <glyph glyph-name="D" unicode="D" horiz-adv-x="1415" 
d="M16 0l260 1466h449q150 0 270.5 -49t198.5 -134.5t119 -200t41 -248.5q0 -131 -37 -254t-110.5 -228t-176.5 -184t-242.5 -123.5t-300.5 -44.5h-471zM238 180h260q139 0 262 50t210.5 135.5t138 204t50.5 251.5q0 226 -122 345.5t-345 119.5h-260z" />
    <glyph glyph-name="E" unicode="E" 
d="M1100 1286h-668l-82 -465h602l-30 -176h-603l-81 -465h667l-33 -180h-856l260 1466h857z" />
    <glyph glyph-name="F" unicode="F" horiz-adv-x="1069" 
d="M16 0l260 1466h857l-33 -180h-668l-84 -481h602l-30 -176h-603l-112 -629h-189z" />
    <glyph glyph-name="G" unicode="G" horiz-adv-x="1640" 
d="M815 608l31 176h710q0 -38 -10 -110q-46 -280 -227 -471q-224 -236 -598 -236q-101 0 -198 29.5t-180 87.5t-145.5 138t-98.5 188t-36 231q0 137 41 265.5t120.5 235.5t187 187t249.5 125t300 45q160 0 297 -61t206 -164l-153 -129q-51 81 -154 127.5t-227 46.5
q-187 0 -341 -87.5t-242.5 -242t-88.5 -342.5q0 -117 40 -213.5t107.5 -158t155 -95t184.5 -33.5q267 0 437 179q106 109 153 282h-520z" />
    <glyph glyph-name="H" unicode="H" horiz-adv-x="1404" 
d="M16 0l260 1466h189l-113 -628h733l113 628h188l-260 -1466h-188l117 662h-733l-117 -662h-189z" />
    <glyph glyph-name="I" unicode="I" horiz-adv-x="483" 
d="M16 0l260 1466h189l-260 -1466h-189z" />
    <glyph glyph-name="J" unicode="J" horiz-adv-x="1073" 
d="M379 -33q-161 0 -273 93t-129 247l185 72q11 -121 76.5 -176.5t164.5 -55.5q115 0 202 84.5t108 206.5l180 1028h188l-178 -1011q-43 -243 -183 -365.5t-341 -122.5z" />
    <glyph glyph-name="K" unicode="K" horiz-adv-x="1273" 
d="M1362 1466l-2 -8l-655 -629l436 -821l-2 -8h-224l-360 684l-274 -260l-76 -424h-189l260 1466h189l-131 -749h8l770 749h250z" />
    <glyph glyph-name="L" unicode="L" horiz-adv-x="1019" 
d="M16 0l260 1466h189l-227 -1286h634l-32 -180h-824z" />
    <glyph glyph-name="M" unicode="M" horiz-adv-x="1699" 
d="M16 0l260 1466h181l352 -893h8l662 893h202l-260 -1466h-188l153 870l52 246h-8l-601 -805h-110l-318 805h-8l-35 -246l-153 -870h-189z" />
    <glyph glyph-name="N" unicode="N" horiz-adv-x="1425" 
d="M16 0l260 1466h216l524 -1140h8l43 282l152 858h188l-260 -1466h-180l-551 1196h-8l-41 -283l-162 -913h-189z" />
    <glyph glyph-name="O" unicode="O" horiz-adv-x="1658" 
d="M733 -33q-140 0 -263.5 49t-213 135t-141.5 210.5t-52 269.5q0 168 63.5 325t175 277.5t275.5 193t353 72.5q185 0 336.5 -83t240 -235.5t88.5 -344.5q0 -134 -39.5 -262.5t-116 -237.5t-180 -192t-240 -130t-286.5 -47zM752 147q177 0 328 97.5t236 252.5t85 324
q0 114 -39 208.5t-106 157.5t-157 97.5t-192 34.5q-134 0 -255.5 -57.5t-207 -151t-136 -216t-50.5 -249.5q0 -114 39 -208.5t106 -157.5t157 -97.5t192 -34.5z" />
    <glyph glyph-name="P" unicode="P" horiz-adv-x="1155" 
d="M205 0h-189l260 1466h488q174 0 286.5 -106.5t112.5 -274.5q0 -228 -150.5 -359.5t-389.5 -131.5h-312zM342 774h315q137 0 224.5 71.5t87.5 215.5q0 102 -62.5 163.5t-158.5 61.5h-316z" />
    <glyph glyph-name="Q" unicode="Q" horiz-adv-x="1658" 
d="M733 -33q-140 0 -263.5 49t-213 135t-141.5 210.5t-52 269.5q0 168 63.5 325t175 277.5t275.5 193t353 72.5q185 0 336.5 -83t240 -235.5t88.5 -344.5q0 -208 -94.5 -394.5t-261.5 -310.5l70 -143l-168 -86l-68 135q-169 -70 -340 -70zM752 147q119 0 239 52l-129 264
l170 90l123 -250q114 100 180 236t66 282q0 114 -39 208.5t-106 157.5t-157 97.5t-192 34.5q-134 0 -255.5 -57.5t-207 -151t-136 -216t-50.5 -249.5q0 -114 39 -208.5t106 -157.5t157 -97.5t192 -34.5z" />
    <glyph glyph-name="R" unicode="R" horiz-adv-x="1183" 
d="M16 0l260 1466h486q176 0 288.5 -107.5t112.5 -285.5q0 -177 -116.5 -303.5t-309.5 -163.5l-6 -6l303 -592l-2 -8h-213l-295 594h-213l-106 -594h-189zM342 770h303q139 0 231.5 79.5t92.5 221.5q0 92 -63 153.5t-175 61.5h-299z" />
    <glyph glyph-name="S" unicode="S" horiz-adv-x="1132" 
d="M459 -33q-180 0 -308 105.5t-157 292.5l182 73q13 -128 92 -209.5t213 -81.5q81 0 154 33t120.5 97t47.5 145q0 89 -59.5 145.5t-200.5 112.5l-88 33q-46 17 -86 38.5t-79 53.5t-66.5 70.5t-44.5 90.5t-17 111q0 120 68 217.5t181 151t246 53.5q83 0 153.5 -20.5
t117 -52.5t81.5 -73t52 -80.5t22 -76.5l-182 -68q-4 32 -19 63t-43.5 61t-79 48.5t-116.5 18.5q-121 0 -203 -61t-82 -164q0 -82 55.5 -134.5t168.5 -93.5l88 -32q148 -54 238.5 -149t90.5 -234q0 -148 -72 -259t-194 -168t-274 -57z" />
    <glyph glyph-name="T" unicode="T" horiz-adv-x="1105" 
d="M516 0h-188l227 1286h-410l33 180h1008l-33 -180h-410z" />
    <glyph glyph-name="U" unicode="U" horiz-adv-x="1314" 
d="M528 -33q-121 0 -223 52.5t-165.5 154.5t-63.5 234q0 91 18 200l152 858h188l-160 -905q-12 -71 -12 -123q0 -135 74 -213t223 -78q169 0 280 109t140 281l164 929h188l-168 -952q-48 -262 -210 -404.5t-425 -142.5z" />
    <glyph glyph-name="V" unicode="V" horiz-adv-x="1294" 
d="M410 0l-256 1466h204l191 -1190h8l629 1190h213l-793 -1466h-196z" />
    <glyph glyph-name="W" unicode="W" horiz-adv-x="1888" 
d="M1985 1466l-650 -1466h-192l-146 967h-8l-487 -967h-193l-147 1466h192l107 -1153h8l481 957h180l148 -957h8l502 1153h197z" />
    <glyph glyph-name="X" unicode="X" horiz-adv-x="1294" 
d="M-96 0l628 768l-342 698h222l258 -557h8l452 557h232l-590 -712l373 -754h-223l-291 600h-8l-498 -600h-221z" />
    <glyph glyph-name="Y" unicode="Y" horiz-adv-x="1216" 
d="M575 0h-188l121 682l-354 784h215l256 -596h8l461 596h227l-625 -784z" />
    <glyph glyph-name="Z" unicode="Z" horiz-adv-x="1155" 
d="M-63 0l34 197l967 1089h-743l32 180h967l-35 -196l-969 -1090h785l-33 -180h-1005z" />
    <glyph glyph-name="bracketleft" unicode="[" horiz-adv-x="630" 
d="M-16 -254l327 1876h418l-27 -156h-247l-275 -1564h246l-27 -156h-415z" />
    <glyph glyph-name="backslash" unicode="\" horiz-adv-x="894" 
d="M707 0h-172l-349 1466h172z" />
    <glyph glyph-name="bracketright" unicode="]" horiz-adv-x="630" 
d="M647 1622l-330 -1876h-415l26 156h244l274 1564h-243l26 156h418z" />
    <glyph glyph-name="asciicircum" unicode="^" horiz-adv-x="962" 
d="M956 840h-188l-180 446h-8l-330 -446h-207l494 626h147z" />
    <glyph glyph-name="underscore" unicode="_" horiz-adv-x="983" 
d="M-168 -442l29 155h981l-29 -155h-981z" />
    <glyph glyph-name="grave" unicode="`" horiz-adv-x="819" 
d="M588 1204h-160l-100 262h200z" />
    <glyph glyph-name="a" unicode="a" horiz-adv-x="1044" 
d="M588 1036q192 0 292.5 -88.5t100.5 -245.5q0 -43 -10 -108l-107 -594h-180l25 139h-9q-52 -76 -138.5 -124t-188.5 -48q-150 0 -248 85t-98 224q0 112 64.5 198t175.5 131.5t249 45.5q133 0 272 -61l9 43q4 20 4 41q0 88 -64 141t-168 53q-80 0 -142.5 -31t-121.5 -102
l-147 105q71 96 182.5 146t247.5 50zM412 135q126 0 226 85t122 210q-29 22 -62 35q-94 35 -196 35q-112 0 -195.5 -54.5t-83.5 -152.5q0 -74 56 -116t133 -42z" />
    <glyph glyph-name="b" unicode="b" horiz-adv-x="1179" 
d="M508 -33q-100 0 -183.5 48t-127.5 124h-9l-24 -139h-178l258 1466h188l-82 -462l-33 -140h9q127 172 348 172q181 0 298.5 -128t117.5 -341q0 -115 -44.5 -224t-120.5 -192t-185.5 -133.5t-231.5 -50.5zM522 139q156 0 265.5 120t109.5 296q0 147 -71 228t-205 81
q-104 0 -192 -61t-136.5 -158.5t-48.5 -206.5q0 -143 77.5 -221t200.5 -78z" />
    <glyph glyph-name="c" unicode="c" horiz-adv-x="1069" 
d="M446 -33q-193 0 -314.5 133t-121.5 330q0 173 80 312t217 216.5t303 77.5q88 0 161 -25t121.5 -67.5t79 -91.5t46.5 -104l-176 -68q-53 184 -254 184q-164 0 -274.5 -120t-110.5 -300q0 -130 74.5 -217.5t205.5 -87.5q185 0 303 191l152 -72q-67 -104 -131 -165
t-152.5 -93.5t-208.5 -32.5z" />
    <glyph glyph-name="d" unicode="d" horiz-adv-x="1179" 
d="M426 -33q-181 0 -298.5 128t-117.5 341q0 115 44.5 224t120.5 192t185.5 133.5t231.5 50.5q100 0 183.5 -48t127.5 -124h8l17 140l82 462h188l-258 -1466h-180l24 139h-8q-127 -172 -350 -172zM578 864q-157 0 -266 -119.5t-109 -295.5q0 -148 71 -229t205 -81
q104 0 192 61t136.5 158.5t48.5 206.5q0 143 -77.5 221t-200.5 78z" />
    <glyph glyph-name="e" unicode="e" horiz-adv-x="1097" 
d="M795 319l145 -81q-78 -131 -203 -201t-270 -70q-108 0 -195.5 36.5t-144 99.5t-87 146t-30.5 177q0 117 41.5 226.5t114.5 195t184 137t240 51.5q203 0 313.5 -118.5t110.5 -301.5q0 -93 -19 -149h-790q-2 -14 -2 -33v-26q0 -87 40.5 -149.5t101.5 -91t132 -28.5
q100 0 181 47.5t137 132.5zM240 623h583v22q0 92 -65.5 155.5t-186.5 63.5t-208 -65t-123 -176z" />
    <glyph glyph-name="f" unicode="f" horiz-adv-x="753" 
d="M707 1483q89 0 153 -41l-78 -160q-41 25 -94 25q-75 0 -126 -44t-68 -133l-23 -126h262l-31 -173h-262l-145 -831h-189l146 831h-189l31 173h189l26 145q29 158 135.5 246t262.5 88z" />
    <glyph glyph-name="g" unicode="g" horiz-adv-x="1179" 
d="M399 -475q-90 0 -166 28.5t-125 74t-79 95t-41 99.5l182 69q14 -87 79.5 -140.5t168.5 -53.5q156 0 256.5 92t130.5 254l16 96h-8q-49 -78 -140 -125t-210 -47q-177 0 -295.5 127.5t-118.5 347.5q0 85 25.5 169.5t75.5 161t118.5 135.5t161.5 93.5t197 34.5
q110 0 192.5 -49t122.5 -123h8l25 140h180l-178 -1004q-21 -123 -76.5 -216t-134 -148.5t-171 -83t-196.5 -27.5zM512 139q104 0 192 60t138.5 160.5t50.5 218.5q0 134 -76.5 210t-191.5 76q-89 0 -163.5 -37t-122 -97.5t-73.5 -135.5t-26 -154q0 -143 75.5 -222t196.5 -79z
" />
    <glyph glyph-name="h" unicode="h" 
d="M432 1466l-82 -462l-33 -140h9q58 77 150.5 124.5t197.5 47.5q160 0 240.5 -83.5t80.5 -215.5q0 -43 -14 -131l-109 -606h-188l107 602q8 36 8 76q0 91 -53.5 138.5t-147.5 47.5q-122 0 -215.5 -94.5t-114.5 -222.5l-94 -547h-188l258 1466h188z" />
    <glyph glyph-name="i" unicode="i" horiz-adv-x="450" 
d="M188 0h-188l176 1004h189zM440 1298q0 -50 -37 -86t-90 -36q-50 0 -86.5 36.5t-36.5 85.5q0 53 36.5 90t86.5 37q54 0 90.5 -36.5t36.5 -90.5z" />
    <glyph glyph-name="j" unicode="j" horiz-adv-x="450" 
d="M-180 -463q-66 0 -113 21l72 163q24 -12 61 -12q107 0 131 133l205 1162h189l-205 -1164q-53 -303 -340 -303zM440 1298q0 -50 -37 -86t-90 -36q-50 0 -86.5 36.5t-36.5 85.5q0 53 36.5 90t86.5 37q54 0 90.5 -36.5t36.5 -90.5z" />
    <glyph glyph-name="k" unicode="k" horiz-adv-x="989" 
d="M432 1466l-156 -888l492 426h258l-2 -9l-461 -389l305 -598l-2 -8h-221l-233 477l-181 -153l-57 -324h-188l258 1466h188z" />
    <glyph glyph-name="l" unicode="l" horiz-adv-x="417" 
d="M174 0h-188l258 1466h188z" />
    <glyph glyph-name="m" unicode="m" horiz-adv-x="1744" 
d="M-14 0l176 1004h180l-25 -140h9q117 172 333 172q111 0 186 -50t105 -142q57 90 153 141t218 51q150 0 229.5 -79t79.5 -209q0 -73 -18 -160l-103 -588h-188l104 598q11 72 11 98q0 168 -187 168q-115 0 -201.5 -92.5t-107.5 -216.5l-98 -555h-189l105 598q10 65 10 98
q0 80 -48 124t-138 44q-117 0 -202.5 -92.5t-107.5 -216.5l-98 -555h-188z" />
    <glyph glyph-name="n" unicode="n" 
d="M342 1004l-25 -140h9q53 77 142.5 124.5t197.5 47.5q148 0 236.5 -84t88.5 -225q0 -72 -14 -149l-103 -578h-188l107 602q8 36 8 82q0 90 -55 135t-152 45q-121 0 -211 -89.5t-111 -219.5l-98 -555h-188l176 1004h180z" />
    <glyph glyph-name="o" unicode="o" horiz-adv-x="1146" 
d="M610 1036q137 0 245 -65t166 -174t58 -240q0 -124 -45.5 -233t-124.5 -187.5t-190.5 -124t-239.5 -45.5q-137 0 -245 65t-166 174t-58 240q0 124 45.5 233t124.5 187.5t190.5 124t239.5 45.5zM498 139q117 0 207 58t136 149.5t46 198.5q0 137 -86.5 228t-208.5 91
q-117 0 -207 -57.5t-136 -149t-46 -198.5q0 -137 86.5 -228.5t208.5 -91.5z" />
    <glyph glyph-name="p" unicode="p" horiz-adv-x="1171" 
d="M688 1036q181 0 298.5 -128t117.5 -341q0 -115 -44.5 -224t-120.5 -192t-185.5 -133.5t-231.5 -50.5q-100 0 -183.5 48t-127.5 124h-8l-17 -139l-80 -442h-188l256 1446h180l-24 -140h8q127 172 350 172zM537 139q156 0 265 120t109 296q0 147 -71 228t-205 81
q-104 0 -192 -61t-136.5 -158.5t-48.5 -206.5q0 -143 78 -221t201 -78z" />
    <glyph glyph-name="q" unicode="q" horiz-adv-x="1171" 
d="M862 -442h-188l78 442l32 139h-8q-127 -172 -350 -172q-181 0 -298.5 128t-117.5 341q0 115 44.5 224t120.5 192t185.5 133.5t231.5 50.5q100 0 183.5 -48t127.5 -124h8l25 140h178zM578 864q-157 0 -266 -119.5t-109 -295.5q0 -148 71 -229t205 -81q104 0 192 61
t136.5 158.5t48.5 206.5q0 143 -77.5 221t-200.5 78z" />
    <glyph glyph-name="r" unicode="r" horiz-adv-x="743" 
d="M174 0h-188l176 1004h180l-29 -164h9q48 87 136.5 139.5t190.5 52.5q73 0 125 -24l-80 -183q-53 15 -108 15q-113 0 -203 -85.5t-115 -219.5z" />
    <glyph glyph-name="s" unicode="s" horiz-adv-x="931" 
d="M381 -33q-165 0 -268.5 79t-137.5 208l181 72q20 -91 86 -141t157 -50q96 0 154.5 40t58.5 101q0 57 -36.5 92t-122.5 58l-115 31q-250 67 -250 268q0 133 120 222t288 89q140 0 241 -65.5t137 -171.5l-180 -70q-25 62 -78 100.5t-133 38.5q-89 0 -143.5 -34.5
t-54.5 -94.5q0 -88 137 -125l129 -34q125 -36 191.5 -107t66.5 -174q0 -151 -118 -241.5t-310 -90.5z" />
    <glyph glyph-name="t" unicode="t" horiz-adv-x="724" 
d="M387 -16q-105 0 -175.5 63.5t-70.5 167.5q0 43 11 102l90 514h-176l30 173h176l56 307h188l-55 -307h246l-31 -173h-246l-86 -487q-3 -27 -6 -45q-4 -28 -4 -37q0 -46 25.5 -74t74.5 -28q52 0 92 18l31 -168q-79 -26 -170 -26z" />
    <glyph glyph-name="u" unicode="u" 
d="M688 0l25 139h-8q-53 -77 -142.5 -124.5t-197.5 -47.5q-148 0 -237 84t-89 225q0 73 14 150l103 578h188l-106 -603q-9 -41 -9 -82q0 -90 55 -135t152 -45q121 0 211 90t111 220l98 555h188l-176 -1004h-180z" />
    <glyph glyph-name="v" unicode="v" horiz-adv-x="1019" 
d="M283 0l-228 1004h201l158 -779h4l436 779h205l-588 -1004h-188z" />
    <glyph glyph-name="w" unicode="w" horiz-adv-x="1544" 
d="M1081 0h-192l-113 770l-385 -770h-190l-146 1004h193l88 -758h2l383 758h194l113 -758h2l356 758h197z" />
    <glyph glyph-name="x" unicode="x" horiz-adv-x="966" 
d="M815 0h-213l-184 373h-2l-305 -373h-228l443 516l-254 488h213l176 -353h2l293 353h229l-436 -498z" />
    <glyph glyph-name="y" unicode="y" horiz-adv-x="1019" 
d="M209 -442h-199l324 505l-248 941h199l176 -723h4l420 723h209z" />
    <glyph glyph-name="z" unicode="z" horiz-adv-x="942" 
d="M-63 0l26 164l684 667h-549l31 173h786l-28 -164l-684 -668h573l-31 -172h-808z" />
    <glyph glyph-name="braceleft" unicode="{" horiz-adv-x="651" 
d="M420 -254h-45q-126 0 -206.5 71t-80.5 187q0 42 6 80l62 350q4 28 4 43q0 64 -33 96.5t-92 32.5l26 156q67 0 117 42.5t66 129.5l61 350q30 170 124 254t267 84h54l-27 -156h-45q-79 0 -131.5 -48.5t-69.5 -139.5l-63 -350q-18 -102 -62 -157.5t-121 -82.5l-2 -8
q109 -41 109 -164q0 -40 -8 -76l-64 -350q-6 -37 -6 -53q0 -65 40.5 -100t100.5 -35h45z" />
    <glyph glyph-name="bar" unicode="|" horiz-adv-x="466" 
d="M-16 -246l327 1868h172l-329 -1868h-170z" />
    <glyph glyph-name="braceright" unicode="}" horiz-adv-x="651" 
d="M229 1622h45q126 0 206.5 -71t80.5 -187q0 -42 -6 -80l-61 -350q-5 -35 -5 -43q0 -64 33 -96.5t92 -32.5l-26 -156q-66 0 -116 -42.5t-66 -129.5l-62 -350q-30 -170 -124 -254t-267 -84h-53l26 156h45q79 0 131.5 48.5t69.5 139.5l64 350q18 102 61.5 157.5t120.5 82.5
l2 8q-109 41 -109 164q0 40 8 76l64 350q6 38 6 53q0 65 -40.5 100t-100.5 35h-45z" />
    <glyph glyph-name="asciitilde" unicode="~" horiz-adv-x="1085" 
d="M729 479q-85 0 -229 68q-52 23 -75.5 33t-63 21t-70.5 11q-50 0 -81.5 -30.5t-43.5 -73.5h-148q14 131 86.5 202.5t200.5 71.5q81 0 227 -65q48 -23 75 -34.5t66 -22.5t70 -11q49 0 81 31t44 74h148q-14 -132 -86.5 -203.5t-200.5 -71.5z" />
    <glyph glyph-name="uni00A0" unicode="&#xa0;" horiz-adv-x="450" 
 />
    <glyph glyph-name="exclamdown" unicode="&#xa1;" horiz-adv-x="475" 
d="M285 1036q60 0 99.5 -39.5t39.5 -99.5t-39.5 -99.5t-99.5 -39.5t-100 39.5t-40 99.5t40 99.5t100 39.5zM303 569l-76 -549l-82 -462h-188l82 462l117 549h147z" />
    <glyph glyph-name="cent" unicode="&#xa2;" horiz-adv-x="1069" 
d="M367 0l30 176q-156 29 -253 156.5t-97 304.5q0 159 69 289t191.5 209t276.5 92l30 174h156l-33 -178q126 -23 204 -101t106 -178l-179 -70q-39 139 -159 177l-125 -707q74 18 127.5 63.5t99.5 120.5l156 -71q-84 -137 -179.5 -204.5t-234.5 -80.5l-31 -172h-155zM238 651
q0 -112 49.5 -193.5t140.5 -111.5l125 711q-141 -25 -228 -137.5t-87 -268.5z" />
    <glyph glyph-name="sterling" unicode="&#xa3;" horiz-adv-x="1062" 
d="M969 1143l-185 -72q-24 83 -73.5 132.5t-145.5 49.5q-112 0 -186 -77t-74 -193q0 -86 33 -162q35 -93 55 -159h283l-27 -158h-235q-9 -179 -176 -316l8 -8h360q71 0 116.5 29.5t78.5 87.5l143 -66q-58 -117 -145.5 -174t-225.5 -57h-632l28 164q107 47 181.5 138
t74.5 194v8h-196l26 158h135q-24 74 -51 153q-26 74 -26 170q0 90 33.5 171t93.5 143t152 98.5t202 36.5q293 0 375 -291z" />
    <glyph glyph-name="currency" unicode="&#xa4;" horiz-adv-x="1224" 
d="M612 217q-147 0 -260 86l-121 -117l-108 111l123 119q-76 116 -76 250q0 133 76 249l-123 121l108 111l121 -117q110 84 260 84t260 -84l121 117l109 -111l-121 -118q74 -113 74 -252q0 -137 -74 -250l121 -119l-109 -111l-121 117q-113 -86 -260 -86zM612 381
q111 0 191 83.5t80 201.5t-80 201t-191 83t-190.5 -83t-79.5 -201t79.5 -201.5t190.5 -83.5z" />
    <glyph glyph-name="yen" unicode="&#xa5;" horiz-adv-x="1171" 
d="M1014 668h-342l-31 -172h342l-29 -156h-342l-59 -340h-188l59 340h-350l28 156h351l30 172h-350l27 155h250l-269 578h207l248 -578h8l443 578h217l-467 -578h243z" />
    <glyph glyph-name="brokenbar" unicode="&#xa6;" horiz-adv-x="466" 
d="M340 770h-172l137 778h172zM160 -246h-170l147 844h172z" />
    <glyph glyph-name="section" unicode="&#xa7;" horiz-adv-x="1095" 
d="M393 -475q-169 0 -296 105.5t-144 289.5l178 72q13 -123 85.5 -205t197.5 -82q120 0 199 60.5t79 168.5q0 96 -63 152.5t-203 99.5l-6 2q-153 49 -241.5 138.5t-88.5 212.5q0 102 69 189t171 136q-123 105 -123 256q0 160 124 269.5t328 109.5q88 0 160.5 -25t121 -67.5
t79 -94t43.5 -110.5l-186 -72q-4 32 -19 63t-42 60.5t-72.5 47.5t-102.5 18q-95 0 -166.5 -47t-71.5 -129q0 -75 59 -125t191 -100l6 -3q160 -62 249 -153t89 -225q0 -215 -204 -334q94 -94 94 -244q0 -182 -136.5 -308t-357.5 -126zM512 356q74 -24 141 -57q62 32 105 86.5
t43 118.5q0 166 -254 254l-39 12q-90 -28 -154.5 -84.5t-64.5 -130.5q0 -69 55.5 -115.5t167.5 -83.5z" />
    <glyph glyph-name="dieresis" unicode="&#xa8;" horiz-adv-x="819" 
d="M686 1233q-47 0 -82 35t-35 82q0 50 34.5 83t82.5 33q51 0 84 -32.5t33 -83.5q0 -48 -33.5 -82.5t-83.5 -34.5zM342 1233q-47 0 -82 35t-35 82q0 50 34.5 83t82.5 33q51 0 84 -32.5t33 -83.5q0 -48 -33.5 -82.5t-83.5 -34.5z" />
    <glyph glyph-name="copyright" unicode="&#xa9;" horiz-adv-x="1089" 
d="M545 557q-195 0 -333 138t-138 333q0 127 63 235.5t171.5 172t236.5 63.5q127 0 235.5 -63.5t172 -172t63.5 -235.5q0 -128 -63.5 -236.5t-172 -171.5t-235.5 -63zM545 655q155 0 264 110t109 263q0 155 -109 264t-264 109q-153 0 -263 -109t-110 -264
q0 -152 110.5 -262.5t262.5 -110.5zM553 784q-103 0 -173.5 71.5t-70.5 172.5q0 102 70 173t174 71q58 0 98 -20t80 -60l-65 -59q-27 27 -49.5 38t-63.5 11q-61 0 -105.5 -44.5t-44.5 -109.5t44.5 -109.5t105.5 -44.5q72 0 123 64l69 -55q-75 -99 -192 -99z" />
    <glyph glyph-name="ordfeminine" unicode="&#xaa;" horiz-adv-x="978" 
d="M410 557q-138 0 -226 72.5t-88 197.5q0 101 63 178.5t160.5 115.5t210.5 38q140 0 256 -57l5 31q2 8 2 18v14q0 82 -56 128t-139 46q-81 0 -138.5 -24.5t-103.5 -83.5l-139 82q46 79 147 132.5t248 53.5q151 0 253 -84.5t102 -222.5q0 -34 -6 -72l-95 -534h-172l23 127
h-8q-52 -68 -129.5 -112t-169.5 -44zM446 713q115 0 205.5 70t110.5 178q-22 16 -55 30q-86 31 -170 31q-62 0 -116 -16t-95 -58t-41 -104q0 -64 49.5 -97.5t111.5 -33.5z" />
    <glyph glyph-name="guillemotleft" unicode="&#xab;" horiz-adv-x="1138" 
d="M246 545l252 -340l-123 -99l-334 449l491 449l97 -109zM655 545l252 -340l-123 -99l-333 449l491 449l96 -109z" />
    <glyph glyph-name="logicalnot" unicode="&#xac;" horiz-adv-x="1150" 
d="M72 633l26 155h889l-100 -573h-148l74 418h-741z" />
    <glyph glyph-name="uni00AD" unicode="&#xad;" horiz-adv-x="884" 
d="M82 557l27 156h655l-27 -156h-655z" />
    <glyph glyph-name="registered" unicode="&#xae;" horiz-adv-x="1089" 
d="M545 557q-195 0 -333 138t-138 333q0 127 63 235.5t171.5 172t236.5 63.5q127 0 235.5 -63.5t172 -172t63.5 -235.5q0 -128 -63.5 -236.5t-172 -171.5t-235.5 -63zM545 655q155 0 264 110t109 263q0 155 -109 264t-264 109q-153 0 -263 -109t-110 -264
q0 -152 110.5 -262.5t262.5 -110.5zM481 797h-94v463h197q61 0 105 -43t44 -105q0 -47 -29.5 -85t-72.5 -50l-4 -4l123 -172v-4h-107l-113 172h-49v-172zM481 1055h94q26 0 45 16t19 41q0 22 -16.5 39.5t-44.5 17.5h-97v-114z" />
    <glyph glyph-name="overscore" unicode="&#xaf;" horiz-adv-x="819" 
d="M791 1276h-574l27 147h573z" />
    <glyph glyph-name="degree" unicode="&#xb0;" horiz-adv-x="665" 
d="M381 905q-101 0 -172.5 65.5t-71.5 168.5q0 130 84.5 212.5t214.5 82.5q100 0 172 -66.5t72 -167.5q0 -130 -84.5 -212.5t-214.5 -82.5zM393 1036q61 0 103.5 43t42.5 105q0 54 -32 86.5t-83 32.5q-60 0 -102.5 -42.5t-42.5 -105.5q0 -54 31.5 -86.5t82.5 -32.5z" />
    <glyph glyph-name="plusminus" unicode="&#xb1;" horiz-adv-x="1126" 
d="M702 1083l-57 -321h371l-27 -156h-371l-57 -321h-155l57 321h-371l27 156h370l58 321h155zM881 0h-895l26 156h897z" />
    <glyph glyph-name="twosuperior" unicode="&#xb2;" horiz-adv-x="622" 
d="M557 717h-510l23 123q33 28 87 75t66 58q14 11 37 31t41 35.5t33 27.5q9 9 39 33q10 8 18 16q109 81 109 152q0 40 -27 62t-70 22q-91 0 -137 -119l-123 55q29 92 103 143.5t172 51.5q103 0 167 -57t64 -144q0 -40 -11 -74t-36 -66t-47 -53.5t-61 -54.5
q-4 -4 -24.5 -20.5t-33.5 -28.5l-74 -61q-13 -11 -43 -36.5t-47 -39.5h310z" />
    <glyph glyph-name="threesuperior" unicode="&#xb3;" horiz-adv-x="661" 
d="M330 700q-94 0 -165 52.5t-89 152.5l133 47q32 -121 135 -121q56 0 96.5 34t40.5 83q0 96 -125 96h-65l22 123h76q54 0 89.5 30t35.5 75q0 39 -26 59.5t-64 20.5q-81 0 -133 -88l-119 51q30 76 101 122t167 46q97 0 160.5 -54.5t63.5 -134.5q0 -59 -41 -110.5t-95 -73.5
q101 -53 101 -158q0 -106 -85.5 -179t-213.5 -73z" />
    <glyph glyph-name="acute" unicode="&#xb4;" horiz-adv-x="819" 
d="M553 1204h-168l154 262h209z" />
    <glyph glyph-name="mu" unicode="&#xb5;" 
d="M868 0h-180l25 139h-8q-53 -77 -142.5 -124.5t-197.5 -47.5q-56 0 -106.5 22.5t-80.5 59.5h-8l-12 -115l-70 -376h-186l254 1446h188l-106 -603q-9 -41 -9 -82q0 -90 55 -135t152 -45q121 0 211 90t111 220l98 555h188z" />
    <glyph glyph-name="paragraph" unicode="&#xb6;" horiz-adv-x="1277" 
d="M770 -442h-172v1048h-90q-123 0 -226.5 50.5t-168 150t-64.5 229.5t64.5 229.5t168 150t226.5 50.5h606v-1908h-172v1728h-172v-1728z" />
    <glyph glyph-name="middot" unicode="&#xb7;" horiz-adv-x="360" 
d="M180 524q-60 0 -99.5 40t-39.5 100t39.5 99.5t99.5 39.5t99.5 -39.5t39.5 -99.5t-39.5 -100t-99.5 -40z" />
    <glyph glyph-name="cedilla" unicode="&#xb8;" horiz-adv-x="819" 
d="M172 -485q-68 0 -121 39.5t-65 97.5l114 47q5 -30 27 -50t53 -20q39 0 66.5 26t27.5 71q0 30 -19.5 50.5t-53.5 20.5q-37 0 -70 -33l-88 46l104 190h115l-59 -98q20 4 41 4q71 0 113 -50t42 -130q0 -93 -62 -152t-165 -59z" />
    <glyph glyph-name="onesuperior" unicode="&#xb9;" horiz-adv-x="495" 
d="M369 717h-144l103 577l-129 -51l-45 113l254 110h94z" />
    <glyph glyph-name="ordmasculine" unicode="&#xba;" horiz-adv-x="1056" 
d="M510 557q-178 0 -287.5 112.5t-109.5 291.5q0 99 37.5 195t104.5 172.5t168.5 123.5t219.5 47q181 0 288 -109t107 -292q0 -106 -41.5 -205.5t-111.5 -173t-168.5 -118t-206.5 -44.5zM524 721q136 0 233 103t97 263q0 110 -68.5 179t-164.5 69q-138 0 -231 -107t-93 -255
q0 -114 65 -183t162 -69z" />
    <glyph glyph-name="guillemotright" unicode="&#xbb;" horiz-adv-x="1138" 
d="M412 565l-252 340l123 99l333 -449l-491 -449l-96 109zM821 565l-252 340l123 99l334 -449l-491 -449l-97 109z" />
    <glyph glyph-name="onequarter" unicode="&#xbc;" horiz-adv-x="1507" 
d="M1155 0h-143l26 147h-350l17 99l446 504h137l-84 -480h99l-23 -123h-98zM868 270h193l45 258h-8zM217 -18l-115 88l1213 1413l108 -86zM420 717h-144l103 577l-129 -51l-45 113l254 110h94z" />
    <glyph glyph-name="onehalf" unicode="&#xbd;" horiz-adv-x="1589" 
d="M1403 0h-510l22 123q67 57 154 133q14 11 37 31t41 35.5t33 27.5q9 9 39 33q10 8 18 16q109 81 109 152q0 40 -27 62t-70 22q-91 0 -137 -119l-123 55q29 92 103 143.5t172 51.5q103 0 167 -57t64 -144q0 -40 -11 -74t-36.5 -66t-47.5 -53t-61 -55q-45 -39 -57 -49
l-74 -61q-13 -11 -43 -36.5t-47 -39.5h309zM217 -18l-115 88l1213 1413l108 -86zM420 717h-144l103 577l-129 -51l-45 113l254 110h94z" />
    <glyph glyph-name="threequarters" unicode="&#xbe;" horiz-adv-x="1697" 
d="M1348 0h-144l27 147h-350l16 99l446 504h138l-84 -480h98l-22 -123h-99zM1061 270h192l45 258h-8zM354 -18l-114 88l1212 1413l109 -86zM379 700q-94 0 -165 52.5t-89 152.5l133 47q32 -121 135 -121q56 0 96.5 34t40.5 83q0 96 -124 96h-66l22 123h76q54 0 89.5 30
t35.5 75q0 39 -26 59.5t-64 20.5q-81 0 -133 -88l-119 51q30 76 101 122t167 46q97 0 160.5 -54.5t63.5 -134.5q0 -59 -40.5 -111t-94.5 -73q100 -53 100 -158q0 -106 -85.5 -179t-213.5 -73z" />
    <glyph glyph-name="questiondown" unicode="&#xbf;" horiz-adv-x="987" 
d="M416 569h192l-16 -96q-15 -94 -63.5 -160.5t-168.5 -154.5q-45 -34 -72 -57.5t-59.5 -59.5t-48.5 -74t-16 -80q0 -81 56 -131.5t153 -50.5q99 0 167 56.5t95 140.5l164 -74q-48 -134 -162 -218.5t-291 -84.5q-164 0 -270.5 97.5t-106.5 238.5q0 52 15.5 101t38 86
t61.5 78.5t71.5 69t82.5 66.5q74 58 113.5 110t49.5 115zM571 1036q60 0 100 -39.5t40 -99.5t-40 -99.5t-100 -39.5t-99.5 39.5t-39.5 99.5t39.5 99.5t99.5 39.5z" />
    <glyph glyph-name="Agrave" unicode="&#xc0;" horiz-adv-x="1368" 
d="M596 1896h215l123 -288h-174zM-104 0l811 1466h213l292 -1466h-202l-70 397h-616l-215 -397h-213zM418 573h487l-123 662h-8z" />
    <glyph glyph-name="Aacute" unicode="&#xc1;" horiz-adv-x="1368" 
d="M922 1896h215l-230 -288h-174zM-104 0l811 1466h213l292 -1466h-202l-70 397h-616l-215 -397h-213zM418 573h487l-123 662h-8z" />
    <glyph glyph-name="Acircumflex" unicode="&#xc2;" horiz-adv-x="1368" 
d="M870 1729l-155 -142h-195l299 289h164l143 -289h-170zM-104 0l811 1466h213l292 -1466h-202l-70 397h-616l-215 -397h-213zM418 573h487l-123 662h-8z" />
    <glyph glyph-name="Atilde" unicode="&#xc3;" horiz-adv-x="1368" 
d="M950 1587q-60 0 -110 41q-47 41 -76 41q-55 0 -70 -63h-143q14 99 74 159t147 60q66 0 113 -41t73 -41q55 0 70 63h143q-14 -100 -72.5 -159.5t-148.5 -59.5zM-104 0l811 1466h213l292 -1466h-202l-70 397h-616l-215 -397h-213zM418 573h487l-123 662h-8z" />
    <glyph glyph-name="Adieresis" unicode="&#xc4;" horiz-adv-x="1368" 
d="M-104 0l811 1466h213l292 -1466h-202l-70 397h-616l-215 -397h-213zM418 573h487l-123 662h-8zM1004 1610q-47 0 -82 34.5t-35 81.5q0 50 34.5 83.5t82.5 33.5q51 0 83.5 -33t32.5 -84q0 -48 -33 -82t-83 -34zM659 1610q-47 0 -81.5 34.5t-34.5 81.5q0 50 34 83.5
t82 33.5q51 0 84 -33t33 -84q0 -48 -33.5 -82t-83.5 -34z" />
    <glyph glyph-name="Aring" unicode="&#xc5;" horiz-adv-x="1368" 
d="M-104 0l772 1397q-64 64 -64 151q0 91 61 152t152 61q88 0 150.5 -61.5t62.5 -151.5q0 -53 -25 -99.5t-67 -76.5l274 -1372h-202l-70 397h-616l-215 -397h-213zM418 573h487l-123 662h-8zM809 1466h8q35 0 58.5 23.5t23.5 58.5t-23.5 58.5t-58.5 23.5t-58.5 -23.5
t-23.5 -58.5q0 -32 21.5 -56.5t52.5 -25.5z" />
    <glyph glyph-name="AE" unicode="&#xc6;" horiz-adv-x="1966" 
d="M109 0h-230l1131 1466h979l-33 -180h-668l-82 -465h602l-30 -176h-602l-82 -465h667l-32 -180h-857l70 397h-530zM1012 1182l-465 -609h426l127 713h-8z" />
    <glyph glyph-name="Ccedilla" unicode="&#xc7;" horiz-adv-x="1492" 
d="M647 -485q-68 0 -121 39.5t-65 97.5l114 47q5 -30 27 -50t53 -20q39 0 67 26t28 71q0 30 -20 50.5t-54 20.5q-37 0 -70 -33l-88 46l90 165q-244 30 -394.5 207t-150.5 443q0 169 67.5 327.5t183.5 279.5t283 194t355 73q163 0 298 -69.5t204 -176.5l-151 -125
q-68 99 -156.5 145t-214.5 46q-138 0 -264.5 -57.5t-216 -152t-142.5 -219.5t-53 -255q0 -218 135 -353t342 -135q145 0 257 55t224 163l121 -138q-143 -135 -287.5 -197.5t-330.5 -62.5l-39 -65q20 4 41 4q71 0 113 -50t42 -130q0 -93 -62 -152t-165 -59z" />
    <glyph glyph-name="Egrave" unicode="&#xc8;" 
d="M500 1896h215l123 -288h-174zM1100 1286h-668l-82 -465h602l-30 -176h-603l-81 -465h667l-33 -180h-856l260 1466h857z" />
    <glyph glyph-name="Eacute" unicode="&#xc9;" 
d="M801 1896h215l-230 -288h-174zM1100 1286h-668l-82 -465h602l-30 -176h-603l-81 -465h667l-33 -180h-856l260 1466h857z" />
    <glyph glyph-name="Ecircumflex" unicode="&#xca;" 
d="M764 1729l-156 -142h-194l299 289h164l143 -289h-170zM1100 1286h-668l-82 -465h602l-30 -176h-603l-81 -465h667l-33 -180h-856l260 1466h857z" />
    <glyph glyph-name="Edieresis" unicode="&#xcb;" 
d="M1100 1286h-668l-82 -465h602l-30 -176h-603l-81 -465h667l-33 -180h-856l260 1466h857zM883 1610q-47 0 -82 34.5t-35 81.5q0 50 34.5 83.5t82.5 33.5q51 0 83.5 -33t32.5 -84q0 -48 -33 -82t-83 -34zM539 1610q-47 0 -82 34.5t-35 81.5q0 50 34.5 83.5t82.5 33.5
q51 0 83.5 -33t32.5 -84q0 -48 -33 -82t-83 -34z" />
    <glyph glyph-name="Igrave" unicode="&#xcc;" horiz-adv-x="483" 
d="M170 1896h215l123 -288h-174zM16 0l260 1466h189l-260 -1466h-189z" />
    <glyph glyph-name="Iacute" unicode="&#xcd;" horiz-adv-x="483" 
d="M485 1896h215l-229 -288h-174zM16 0l260 1466h189l-260 -1466h-189z" />
    <glyph glyph-name="Icircumflex" unicode="&#xce;" horiz-adv-x="483" 
d="M16 0l260 1466h189l-260 -1466h-189zM76 1593l2 11l254 239h164l168 -239l-2 -11h-170l-84 123h-17l-121 -123h-194z" />
    <glyph glyph-name="Idieresis" unicode="&#xcf;" horiz-adv-x="483" 
d="M268 1612q-47 0 -81.5 35t-34.5 82q0 50 34 83t82 33q51 0 84 -32.5t33 -83.5q0 -48 -33.5 -82.5t-83.5 -34.5zM547 1612q-47 0 -82 35t-35 82q0 50 34.5 83t82.5 33q51 0 84 -32.5t33 -83.5q0 -48 -33.5 -82.5t-83.5 -34.5zM16 0l260 1466h189l-260 -1466h-189z" />
    <glyph glyph-name="Eth" unicode="&#xd0;" horiz-adv-x="1538" 
d="M139 0l115 653h-154l27 156h156l116 657h449q150 0 270.5 -49t198.5 -134.5t119 -200t41 -248.5q0 -131 -37 -254t-110.5 -228t-176.5 -184t-242.5 -123.5t-300.5 -44.5h-471zM360 180h261q139 0 262 50t210.5 135.5t138 204t50.5 251.5q0 226 -122 345.5t-345 119.5
h-260l-84 -477h410l-27 -156h-412z" />
    <glyph glyph-name="Ntilde" unicode="&#xd1;" horiz-adv-x="1425" 
d="M16 0l260 1466h216l524 -1140h8l43 282l152 858h188l-260 -1466h-180l-551 1196h-8l-41 -283l-162 -913h-189zM1112 1593q-56 0 -129 47q-29 16 -42.5 23t-38.5 15t-48 8q-62 0 -80 -72h-156q17 120 78.5 180.5t155.5 60.5q53 0 133 -45q73 -47 125 -47q62 0 80 72h156
q-17 -120 -78.5 -181t-155.5 -61z" />
    <glyph glyph-name="Ograve" unicode="&#xd2;" horiz-adv-x="1658" 
d="M778 1896h215l123 -288h-174zM733 -33q-140 0 -263.5 49t-213 135t-141.5 210.5t-52 269.5q0 168 63.5 325t175 277.5t275.5 193t353 72.5q185 0 336.5 -83t240 -235.5t88.5 -344.5q0 -134 -39.5 -262.5t-116 -237.5t-180 -192t-240 -130t-286.5 -47zM752 147
q177 0 328 97.5t236 252.5t85 324q0 114 -39 208.5t-106 157.5t-157 97.5t-192 34.5q-134 0 -255.5 -57.5t-207 -151t-136 -216t-50.5 -249.5q0 -114 39 -208.5t106 -157.5t157 -97.5t192 -34.5z" />
    <glyph glyph-name="Oacute" unicode="&#xd3;" horiz-adv-x="1658" 
d="M1075 1896h215l-229 -288h-174zM733 -33q-140 0 -263.5 49t-213 135t-141.5 210.5t-52 269.5q0 168 63.5 325t175 277.5t275.5 193t353 72.5q185 0 336.5 -83t240 -235.5t88.5 -344.5q0 -134 -39.5 -262.5t-116 -237.5t-180 -192t-240 -130t-286.5 -47zM752 147
q177 0 328 97.5t236 252.5t85 324q0 114 -39 208.5t-106 157.5t-157 97.5t-192 34.5q-134 0 -255.5 -57.5t-207 -151t-136 -216t-50.5 -249.5q0 -114 39 -208.5t106 -157.5t157 -97.5t192 -34.5z" />
    <glyph glyph-name="Ocircumflex" unicode="&#xd4;" horiz-adv-x="1658" 
d="M1040 1729l-155 -142h-195l299 289h164l143 -289h-170zM733 -33q-140 0 -263.5 49t-213 135t-141.5 210.5t-52 269.5q0 168 63.5 325t175 277.5t275.5 193t353 72.5q185 0 336.5 -83t240 -235.5t88.5 -344.5q0 -134 -39.5 -262.5t-116 -237.5t-180 -192t-240 -130
t-286.5 -47zM752 147q177 0 328 97.5t236 252.5t85 324q0 114 -39 208.5t-106 157.5t-157 97.5t-192 34.5q-134 0 -255.5 -57.5t-207 -151t-136 -216t-50.5 -249.5q0 -114 39 -208.5t106 -157.5t157 -97.5t192 -34.5z" />
    <glyph glyph-name="Otilde" unicode="&#xd5;" horiz-adv-x="1658" 
d="M1094 1587q-61 0 -111 41q-47 41 -76 41q-54 0 -69 -63h-144q14 99 74 159t147 60q66 0 113 -41t74 -41q54 0 69 63h144q-14 -100 -72.5 -159.5t-148.5 -59.5zM733 -33q-140 0 -263.5 49t-213 135t-141.5 210.5t-52 269.5q0 168 63.5 325t175 277.5t275.5 193t353 72.5
q185 0 336.5 -83t240 -235.5t88.5 -344.5q0 -134 -39.5 -262.5t-116 -237.5t-180 -192t-240 -130t-286.5 -47zM752 147q177 0 328 97.5t236 252.5t85 324q0 114 -39 208.5t-106 157.5t-157 97.5t-192 34.5q-134 0 -255.5 -57.5t-207 -151t-136 -216t-50.5 -249.5
q0 -114 39 -208.5t106 -157.5t157 -97.5t192 -34.5z" />
    <glyph glyph-name="Odieresis" unicode="&#xd6;" horiz-adv-x="1658" 
d="M733 -33q-140 0 -263.5 49t-213 135t-141.5 210.5t-52 269.5q0 168 63.5 325t175 277.5t275.5 193t353 72.5q185 0 336.5 -83t240 -235.5t88.5 -344.5q0 -134 -39.5 -262.5t-116 -237.5t-180 -192t-240 -130t-286.5 -47zM752 147q177 0 328 97.5t236 252.5t85 324
q0 114 -39 208.5t-106 157.5t-157 97.5t-192 34.5q-134 0 -255.5 -57.5t-207 -151t-136 -216t-50.5 -249.5q0 -114 39 -208.5t106 -157.5t157 -97.5t192 -34.5zM1143 1610q-47 0 -82 34.5t-35 81.5q0 50 34.5 83.5t82.5 33.5q51 0 84 -33t33 -84q0 -48 -33.5 -82t-83.5 -34z
M799 1610q-47 0 -82 34.5t-35 81.5q0 50 34.5 83.5t82.5 33.5q51 0 83.5 -33t32.5 -84q0 -48 -33 -82t-83 -34z" />
    <glyph glyph-name="multiply" unicode="&#xd7;" 
d="M33 244l383 317l-266 313l116 101l269 -316l383 320l94 -115l-381 -317l266 -311l-117 -101l-268 314l-385 -320z" />
    <glyph glyph-name="Oslash" unicode="&#xd8;" horiz-adv-x="1658" 
d="M281 -84l-131 96l108 138q-195 185 -195 481q0 168 63.5 325t175 277.5t275.5 193t353 72.5q184 0 340 -86l110 139l129 -98l-110 -137q196 -186 196 -481q0 -134 -39.5 -262.5t-116 -237.5t-180 -192t-240 -130t-286.5 -47q-188 0 -344 86zM258 645q0 -215 123 -344
l768 961q-108 57 -242 57t-255.5 -57.5t-207 -151t-136 -216t-50.5 -249.5zM752 147q177 0 328 97.5t236 252.5t85 324q0 208 -123 344l-768 -962q115 -56 242 -56z" />
    <glyph glyph-name="Ugrave" unicode="&#xd9;" horiz-adv-x="1314" 
d="M569 1896h215l123 -288h-174zM528 -33q-121 0 -223 52.5t-165.5 154.5t-63.5 234q0 91 18 200l152 858h188l-160 -905q-12 -71 -12 -123q0 -135 74 -213t223 -78q169 0 280 109t140 281l164 929h188l-168 -952q-48 -262 -210 -404.5t-425 -142.5z" />
    <glyph glyph-name="Uacute" unicode="&#xda;" horiz-adv-x="1314" 
d="M893 1896h215l-229 -288h-174zM528 -33q-121 0 -223 52.5t-165.5 154.5t-63.5 234q0 91 18 200l152 858h188l-160 -905q-12 -71 -12 -123q0 -135 74 -213t223 -78q169 0 280 109t140 281l164 929h188l-168 -952q-48 -262 -210 -404.5t-425 -142.5z" />
    <glyph glyph-name="Ucircumflex" unicode="&#xdb;" horiz-adv-x="1314" 
d="M528 -33q-121 0 -223 52.5t-165.5 154.5t-63.5 234q0 91 18 200l152 858h188l-160 -905q-12 -71 -12 -123q0 -135 74 -213t223 -78q169 0 280 109t140 281l164 929h188l-168 -952q-48 -262 -210 -404.5t-425 -142.5zM483 1593l2 11l254 239h164l168 -239l-2 -11h-170
l-84 123h-16l-121 -123h-195z" />
    <glyph glyph-name="Udieresis" unicode="&#xdc;" horiz-adv-x="1314" 
d="M528 -33q-121 0 -223 52.5t-165.5 154.5t-63.5 234q0 91 18 200l152 858h188l-160 -905q-12 -71 -12 -123q0 -135 74 -213t223 -78q169 0 280 109t140 281l164 929h188l-168 -952q-48 -262 -210 -404.5t-425 -142.5zM973 1610q-47 0 -82 34.5t-35 81.5q0 50 34.5 83.5
t82.5 33.5q51 0 84 -33t33 -84q0 -48 -33.5 -82t-83.5 -34zM629 1610q-47 0 -82 34.5t-35 81.5q0 50 34.5 83.5t82.5 33.5q51 0 83.5 -33t32.5 -84q0 -48 -33 -82t-83 -34z" />
    <glyph glyph-name="Yacute" unicode="&#xdd;" horiz-adv-x="1216" 
d="M819 1896h215l-229 -288h-174zM575 0h-188l121 682l-354 784h215l256 -596h8l461 596h227l-625 -784z" />
    <glyph glyph-name="Thorn" unicode="&#xde;" horiz-adv-x="1155" 
d="M205 0h-189l260 1466h189l-45 -249h301q174 0 286.5 -106.5t112.5 -274.5q0 -228 -150.5 -360t-389.5 -132h-314zM299 524h315q137 0 224.5 71.5t87.5 215.5q0 102 -62.5 163.5t-158.5 61.5h-316z" />
    <glyph glyph-name="germandbls" unicode="&#xdf;" horiz-adv-x="1150" 
d="M852 797v-9q83 -40 133.5 -121.5t50.5 -193.5q0 -145 -71.5 -257.5t-193 -172t-271.5 -59.5q-73 0 -125 8l31 180q55 -8 108 -8q141 0 234.5 77t93.5 214q0 110 -65.5 175.5t-196.5 65.5h-64l31 176h51q119 0 208 68t89 184q0 91 -60.5 143t-160.5 52
q-111 0 -184.5 -71.5t-94.5 -190.5l-186 -1057h-193l187 1057q34 201 156.5 321.5t334.5 120.5q178 0 287 -102.5t109 -255.5q0 -125 -64.5 -212t-173.5 -132z" />
    <glyph glyph-name="agrave" unicode="&#xe0;" horiz-adv-x="1044" 
d="M434 1454h215l123 -289h-174zM588 1036q192 0 292.5 -88.5t100.5 -245.5q0 -43 -10 -108l-107 -594h-180l25 139h-9q-52 -76 -138.5 -124t-188.5 -48q-150 0 -248 85t-98 224q0 112 64.5 198t175.5 131.5t249 45.5q133 0 272 -61l9 43q4 20 4 41q0 88 -64 141t-168 53
q-80 0 -142.5 -31t-121.5 -102l-147 105q71 96 182.5 146t247.5 50zM412 135q126 0 226 85t122 210q-29 22 -62 35q-94 35 -196 35q-112 0 -195.5 -54.5t-83.5 -152.5q0 -74 56 -116t133 -42z" />
    <glyph glyph-name="aacute" unicode="&#xe1;" horiz-adv-x="1044" 
d="M743 1454h215l-229 -289h-174zM588 1036q192 0 292.5 -88.5t100.5 -245.5q0 -43 -10 -108l-107 -594h-180l25 139h-9q-52 -76 -138.5 -124t-188.5 -48q-150 0 -248 85t-98 224q0 112 64.5 198t175.5 131.5t249 45.5q133 0 272 -61l9 43q4 20 4 41q0 88 -64 141t-168 53
q-80 0 -142.5 -31t-121.5 -102l-147 105q71 96 182.5 146t247.5 50zM412 135q126 0 226 85t122 210q-29 22 -62 35q-94 35 -196 35q-112 0 -195.5 -54.5t-83.5 -152.5q0 -74 56 -116t133 -42z" />
    <glyph glyph-name="acircumflex" unicode="&#xe2;" horiz-adv-x="1044" 
d="M588 1036q192 0 292.5 -88.5t100.5 -245.5q0 -43 -10 -108l-107 -594h-180l25 139h-9q-52 -76 -138.5 -124t-188.5 -48q-150 0 -248 85t-98 224q0 112 64.5 198t175.5 131.5t249 45.5q133 0 272 -61l9 43q4 20 4 41q0 88 -64 141t-168 53q-80 0 -142.5 -31t-121.5 -102
l-147 105q71 96 182.5 146t247.5 50zM412 135q126 0 226 85t122 210q-29 22 -62 35q-94 35 -196 35q-112 0 -195.5 -54.5t-83.5 -152.5q0 -74 56 -116t133 -42zM692 1286l-155 -141h-195l299 289h164l143 -289h-170z" />
    <glyph glyph-name="atilde" unicode="&#xe3;" horiz-adv-x="1044" 
d="M745 1145q-60 0 -110 41q-47 41 -76 41q-55 0 -70 -64h-143q14 99 74 159t147 60q66 0 113 -41t74 -41q54 0 69 64h144q-14 -100 -73 -159.5t-149 -59.5zM588 1036q192 0 292.5 -88.5t100.5 -245.5q0 -43 -10 -108l-107 -594h-180l25 139h-9q-52 -76 -138.5 -124
t-188.5 -48q-150 0 -248 85t-98 224q0 112 64.5 198t175.5 131.5t249 45.5q133 0 272 -61l9 43q4 20 4 41q0 88 -64 141t-168 53q-80 0 -142.5 -31t-121.5 -102l-147 105q71 96 182.5 146t247.5 50zM412 135q126 0 226 85t122 210q-29 22 -62 35q-94 35 -196 35
q-112 0 -195.5 -54.5t-83.5 -152.5q0 -74 56 -116t133 -42z" />
    <glyph glyph-name="adieresis" unicode="&#xe4;" horiz-adv-x="1044" 
d="M588 1036q192 0 292.5 -88.5t100.5 -245.5q0 -43 -10 -108l-107 -594h-180l25 139h-9q-52 -76 -138.5 -124t-188.5 -48q-150 0 -248 85t-98 224q0 112 64.5 198t175.5 131.5t249 45.5q133 0 272 -61l9 43q4 20 4 41q0 88 -64 141t-168 53q-80 0 -142.5 -31t-121.5 -102
l-147 105q71 96 182.5 146t247.5 50zM412 135q126 0 226 85t122 210q-29 22 -62 35q-94 35 -196 35q-112 0 -195.5 -54.5t-83.5 -152.5q0 -74 56 -116t133 -42zM801 1233q-47 0 -82 35t-35 82q0 50 34.5 83t82.5 33q51 0 84 -32.5t33 -83.5q0 -48 -33.5 -82.5t-83.5 -34.5z
M457 1233q-47 0 -82 35t-35 82q0 50 34.5 83t82.5 33q51 0 83.5 -32.5t32.5 -83.5q0 -48 -33 -82.5t-83 -34.5z" />
    <glyph glyph-name="aring" unicode="&#xe5;" horiz-adv-x="1044" 
d="M588 1036q192 0 292.5 -88.5t100.5 -245.5q0 -43 -10 -108l-107 -594h-180l25 139h-9q-52 -76 -138.5 -124t-188.5 -48q-150 0 -248 85t-98 224q0 112 64.5 198t175.5 131.5t249 45.5q133 0 272 -61l9 43q4 20 4 41q0 88 -64 141t-168 53q-80 0 -142.5 -31t-121.5 -102
l-147 105q71 96 182.5 146t247.5 50zM412 135q126 0 226 85t122 210q-29 22 -62 35q-94 35 -196 35q-112 0 -195.5 -54.5t-83.5 -152.5q0 -74 56 -116t133 -42zM629 1157q-90 0 -151.5 62.5t-61.5 150.5q0 91 61 152t152 61q88 0 150.5 -61.5t62.5 -151.5
q0 -88 -62.5 -150.5t-150.5 -62.5zM629 1278q37 0 63.5 27.5t26.5 64.5t-26.5 63.5t-63.5 26.5t-63.5 -26.5t-26.5 -63.5t26.5 -64.5t63.5 -27.5z" />
    <glyph glyph-name="ae" unicode="&#xe6;" horiz-adv-x="1853" 
d="M1546 317l150 -79q-78 -132 -204.5 -201.5t-277.5 -69.5q-142 0 -240.5 63t-150.5 173q-81 -110 -193.5 -173t-248.5 -63q-156 0 -255 85t-99 224q0 168 139.5 271.5t349.5 103.5q133 0 272 -61l9 43q4 28 4 41q0 89 -63 141.5t-163 52.5q-86 0 -160 -38t-110 -103
l-158 84q144 225 451 225q119 0 204 -52t130 -142q77 91 186 142.5t236 51.5q198 0 306.5 -117.5t108.5 -302.5q0 -89 -18 -149h-788q-5 -35 -5 -59q0 -128 80.5 -198.5t188.5 -70.5q201 0 319 178zM412 135q126 0 226 85t122 210q-29 22 -62 35q-94 35 -196 35
q-113 0 -196 -54t-83 -153q0 -74 56 -116t133 -42zM999 623h580v22q0 30 -6.5 58t-23.5 58t-44.5 52t-73 36.5t-104.5 14.5q-116 0 -204 -65.5t-124 -175.5z" />
    <glyph glyph-name="ccedilla" unicode="&#xe7;" horiz-adv-x="1069" 
d="M385 -485q-68 0 -121 39.5t-65 97.5l114 47q5 -30 27 -50t53 -20q39 0 66.5 26t27.5 71q0 30 -19.5 50.5t-53.5 20.5q-37 0 -70 -33l-88 46l92 167q-153 32 -245.5 158t-92.5 295q0 173 80 312t217 216.5t303 77.5q88 0 161 -25t121.5 -67.5t79 -91.5t46.5 -104l-176 -68
q-53 184 -254 184q-164 0 -274.5 -120t-110.5 -300q0 -130 74.5 -217.5t205.5 -87.5q185 0 303 191l152 -72q-99 -155 -207 -223t-276 -68l-39 -65q20 4 41 4q71 0 113 -50t42 -130q0 -93 -62 -152t-165 -59z" />
    <glyph glyph-name="egrave" unicode="&#xe8;" horiz-adv-x="1097" 
d="M401 1454h215l123 -289h-174zM795 319l145 -81q-78 -131 -203 -201t-270 -70q-108 0 -195.5 36.5t-144 99.5t-87 146t-30.5 177q0 117 41.5 226.5t114.5 195t184 137t240 51.5q203 0 313.5 -118.5t110.5 -301.5q0 -93 -19 -149h-790q-2 -14 -2 -33v-26q0 -87 40.5 -149.5
t101.5 -91t132 -28.5q100 0 181 47.5t137 132.5zM240 623h583v22q0 92 -65.5 155.5t-186.5 63.5t-208 -65t-123 -176z" />
    <glyph glyph-name="eacute" unicode="&#xe9;" horiz-adv-x="1097" 
d="M735 1454h215l-229 -289h-174zM795 319l145 -81q-78 -131 -203 -201t-270 -70q-108 0 -195.5 36.5t-144 99.5t-87 146t-30.5 177q0 117 41.5 226.5t114.5 195t184 137t240 51.5q203 0 313.5 -118.5t110.5 -301.5q0 -93 -19 -149h-790q-2 -14 -2 -33v-26
q0 -87 40.5 -149.5t101.5 -91t132 -28.5q100 0 181 47.5t137 132.5zM240 623h583v22q0 92 -65.5 155.5t-186.5 63.5t-208 -65t-123 -176z" />
    <glyph glyph-name="ecircumflex" unicode="&#xea;" horiz-adv-x="1097" 
d="M795 319l145 -81q-78 -131 -203 -201t-270 -70q-108 0 -195.5 36.5t-144 99.5t-87 146t-30.5 177q0 117 41.5 226.5t114.5 195t184 137t240 51.5q203 0 313.5 -118.5t110.5 -301.5q0 -93 -19 -149h-790q-2 -14 -2 -33v-26q0 -87 40.5 -149.5t101.5 -91t132 -28.5
q100 0 181 47.5t137 132.5zM240 623h583v22q0 92 -65.5 155.5t-186.5 63.5t-208 -65t-123 -176zM672 1286l-156 -141h-194l299 289h163l144 -289h-170z" />
    <glyph glyph-name="edieresis" unicode="&#xeb;" horiz-adv-x="1097" 
d="M795 319l145 -81q-78 -131 -203 -201t-270 -70q-108 0 -195.5 36.5t-144 99.5t-87 146t-30.5 177q0 117 41.5 226.5t114.5 195t184 137t240 51.5q203 0 313.5 -118.5t110.5 -301.5q0 -93 -19 -149h-790q-2 -14 -2 -33v-26q0 -87 40.5 -149.5t101.5 -91t132 -28.5
q100 0 181 47.5t137 132.5zM240 623h583v22q0 92 -65.5 155.5t-186.5 63.5t-208 -65t-123 -176zM821 1233q-47 0 -81.5 35t-34.5 82q0 50 34 83t82 33q51 0 84 -32.5t33 -83.5q0 -48 -33.5 -82.5t-83.5 -34.5zM477 1233q-47 0 -82 35t-35 82q0 50 34.5 83t82.5 33
q51 0 84 -32.5t33 -83.5q0 -48 -33.5 -82.5t-83.5 -34.5z" />
    <glyph glyph-name="igrave" unicode="&#xec;" horiz-adv-x="450" 
d="M113 1454h215l82 -289h-174zM188 0h-188l176 1004h189z" />
    <glyph glyph-name="iacute" unicode="&#xed;" horiz-adv-x="450" 
d="M354 1454h215l-198 -289h-174zM188 0h-188l176 1004h189z" />
    <glyph glyph-name="icircumflex" unicode="&#xee;" horiz-adv-x="450" 
d="M188 0h-188l176 1004h189zM10 1217l2 10l254 239h164l168 -239l-2 -10h-170l-84 122h-16l-121 -122h-195z" />
    <glyph glyph-name="idieresis" unicode="&#xef;" horiz-adv-x="450" 
d="M190 1233q-47 0 -81.5 35t-34.5 82q0 50 34 83t82 33q51 0 84 -32.5t33 -83.5q0 -48 -33.5 -82.5t-83.5 -34.5zM469 1233q-47 0 -82 35t-35 82q0 50 34.5 83t82.5 33q51 0 84 -32.5t33 -83.5q0 -48 -33.5 -82.5t-83.5 -34.5zM188 0h-188l176 1004h189z" />
    <glyph glyph-name="eth" unicode="&#xf0;" horiz-adv-x="1169" 
d="M852 866l10 6q-44 164 -147 273l-266 -109l-54 129l193 78q-97 57 -201 82l64 158q190 -51 329 -162l232 96l51 -127l-176 -73q182 -222 182 -560q0 -107 -22 -206.5t-68 -187.5t-112.5 -154t-161 -104t-207.5 -38q-128 0 -234.5 55.5t-170.5 158.5t-64 233q0 110 42 212
t115 178t177.5 121.5t222.5 45.5q161 0 266 -105zM516 147q133 0 236.5 104.5t103.5 250.5q0 134 -71 214.5t-207 80.5q-153 0 -254 -108t-101 -267q0 -125 85 -200t208 -75z" />
    <glyph glyph-name="ntilde" unicode="&#xf1;" 
d="M342 1004l-25 -140h9q53 77 142.5 124.5t197.5 47.5q148 0 236.5 -84t88.5 -225q0 -72 -14 -149l-103 -578h-188l107 602q8 36 8 82q0 90 -55 135t-152 45q-121 0 -211 -89.5t-111 -219.5l-98 -555h-188l176 1004h180zM807 1219q-56 0 -129 47q-80 45 -129 45
q-62 0 -80 -72h-156q17 120 78.5 181t155.5 61q53 0 133 -45q73 -47 125 -47q62 0 80 71h155q-17 -120 -78 -180.5t-155 -60.5z" />
    <glyph glyph-name="ograve" unicode="&#xf2;" horiz-adv-x="1146" 
d="M399 1454h215l123 -289h-174zM610 1036q137 0 245 -65t166 -174t58 -240q0 -124 -45.5 -233t-124.5 -187.5t-190.5 -124t-239.5 -45.5q-137 0 -245 65t-166 174t-58 240q0 124 45.5 233t124.5 187.5t190.5 124t239.5 45.5zM498 139q117 0 207 58t136 149.5t46 198.5
q0 137 -86.5 228t-208.5 91q-117 0 -207 -57.5t-136 -149t-46 -198.5q0 -137 86.5 -228.5t208.5 -91.5z" />
    <glyph glyph-name="oacute" unicode="&#xf3;" horiz-adv-x="1146" 
d="M725 1454h215l-229 -289h-174zM610 1036q137 0 245 -65t166 -174t58 -240q0 -124 -45.5 -233t-124.5 -187.5t-190.5 -124t-239.5 -45.5q-137 0 -245 65t-166 174t-58 240q0 124 45.5 233t124.5 187.5t190.5 124t239.5 45.5zM498 139q117 0 207 58t136 149.5t46 198.5
q0 137 -86.5 228t-208.5 91q-117 0 -207 -57.5t-136 -149t-46 -198.5q0 -137 86.5 -228.5t208.5 -91.5z" />
    <glyph glyph-name="ocircumflex" unicode="&#xf4;" horiz-adv-x="1146" 
d="M698 1286l-155 -141h-195l299 289h164l143 -289h-170zM610 1036q137 0 245 -65t166 -174t58 -240q0 -124 -45.5 -233t-124.5 -187.5t-190.5 -124t-239.5 -45.5q-137 0 -245 65t-166 174t-58 240q0 124 45.5 233t124.5 187.5t190.5 124t239.5 45.5zM498 139q117 0 207 58
t136 149.5t46 198.5q0 137 -86.5 228t-208.5 91q-117 0 -207 -57.5t-136 -149t-46 -198.5q0 -137 86.5 -228.5t208.5 -91.5z" />
    <glyph glyph-name="otilde" unicode="&#xf5;" horiz-adv-x="1146" 
d="M739 1145q-60 0 -110 41q-47 41 -76 41q-55 0 -70 -64h-143q14 99 74 159t147 60q66 0 113 -41t74 -41q54 0 69 64h144q-14 -100 -73 -159.5t-149 -59.5zM610 1036q137 0 245 -65t166 -174t58 -240q0 -124 -45.5 -233t-124.5 -187.5t-190.5 -124t-239.5 -45.5
q-137 0 -245 65t-166 174t-58 240q0 124 45.5 233t124.5 187.5t190.5 124t239.5 45.5zM498 139q117 0 207 58t136 149.5t46 198.5q0 137 -86.5 228t-208.5 91q-117 0 -207 -57.5t-136 -149t-46 -198.5q0 -137 86.5 -228.5t208.5 -91.5z" />
    <glyph glyph-name="odieresis" unicode="&#xf6;" horiz-adv-x="1146" 
d="M610 1036q137 0 245 -65t166 -174t58 -240q0 -124 -45.5 -233t-124.5 -187.5t-190.5 -124t-239.5 -45.5q-137 0 -245 65t-166 174t-58 240q0 124 45.5 233t124.5 187.5t190.5 124t239.5 45.5zM498 139q117 0 207 58t136 149.5t46 198.5q0 137 -86.5 228t-208.5 91
q-117 0 -207 -57.5t-136 -149t-46 -198.5q0 -137 86.5 -228.5t208.5 -91.5zM850 1233q-47 0 -82 35t-35 82q0 50 34.5 83t82.5 33q51 0 84 -32.5t33 -83.5q0 -48 -33.5 -82.5t-83.5 -34.5zM506 1233q-47 0 -82 35t-35 82q0 50 34.5 83t82.5 33q51 0 84 -32.5t33 -83.5
q0 -48 -33.5 -82.5t-83.5 -34.5z" />
    <glyph glyph-name="divide" unicode="&#xf7;" horiz-adv-x="1126" 
d="M965 477h-897l28 156h897zM465 41q-60 0 -99.5 39.5t-39.5 99.5t39.5 99.5t99.5 39.5t99.5 -39.5t39.5 -99.5t-39.5 -99.5t-99.5 -39.5zM596 791q-60 0 -99.5 39.5t-39.5 99.5t39.5 99.5t99.5 39.5t99.5 -39.5t39.5 -99.5t-39.5 -99.5t-99.5 -39.5z" />
    <glyph glyph-name="oslash" unicode="&#xf8;" horiz-adv-x="1146" 
d="M610 1036q139 0 246 -67l92 116l117 -90l-98 -121q112 -137 112 -317q0 -124 -45.5 -233t-124.5 -187.5t-190.5 -124t-239.5 -45.5q-109 0 -203 43l-69 -86l-119 88l66 82q-68 67 -106 158t-38 194q0 124 45.5 233t124.5 187.5t190.5 124t239.5 45.5zM203 459
q0 -130 71 -213l463 577q-65 41 -145 41q-117 0 -207 -57.5t-136 -149t-46 -198.5zM498 139q117 0 207 58t136 149.5t46 198.5q0 90 -45 172l-447 -559q49 -19 103 -19z" />
    <glyph glyph-name="ugrave" unicode="&#xf9;" 
d="M383 1454h215l123 -289h-174zM688 0l25 139h-8q-53 -77 -142.5 -124.5t-197.5 -47.5q-148 0 -237 84t-89 225q0 73 14 150l103 578h188l-106 -603q-9 -41 -9 -82q0 -90 55 -135t152 -45q121 0 211 90t111 220l98 555h188l-176 -1004h-180z" />
    <glyph glyph-name="uacute" unicode="&#xfa;" 
d="M719 1454h215l-229 -289h-175zM688 0l25 139h-8q-53 -77 -142.5 -124.5t-197.5 -47.5q-148 0 -237 84t-89 225q0 73 14 150l103 578h188l-106 -603q-9 -41 -9 -82q0 -90 55 -135t152 -45q121 0 211 90t111 220l98 555h188l-176 -1004h-180z" />
    <glyph glyph-name="ucircumflex" unicode="&#xfb;" 
d="M688 0l25 139h-8q-53 -77 -142.5 -124.5t-197.5 -47.5q-148 0 -237 84t-89 225q0 73 14 150l103 578h188l-106 -603q-9 -41 -9 -82q0 -90 55 -135t152 -45q121 0 211 90t111 220l98 555h188l-176 -1004h-180zM344 1186l2 10l254 240h164l168 -240l-2 -10h-170l-84 123
h-17l-120 -123h-195z" />
    <glyph glyph-name="udieresis" unicode="&#xfc;" 
d="M688 0l25 139h-8q-53 -77 -142.5 -124.5t-197.5 -47.5q-148 0 -237 84t-89 225q0 73 14 150l103 578h188l-106 -603q-9 -41 -9 -82q0 -90 55 -135t152 -45q121 0 211 90t111 220l98 555h188l-176 -1004h-180zM836 1233q-47 0 -82 35t-35 82q0 50 34.5 83t82.5 33
q51 0 83.5 -32.5t32.5 -83.5q0 -48 -33 -82.5t-83 -34.5zM492 1233q-47 0 -82 35t-35 82q0 50 34.5 83t82.5 33q51 0 83.5 -32.5t32.5 -83.5q0 -48 -33 -82.5t-83 -34.5z" />
    <glyph glyph-name="yacute" unicode="&#xfd;" horiz-adv-x="1019" 
d="M698 1454h215l-229 -289h-174zM209 -442h-199l324 505l-248 941h199l176 -723h4l420 723h209z" />
    <glyph glyph-name="thorn" unicode="&#xfe;" horiz-adv-x="1179" 
d="M715 1036q181 0 298 -128t117 -341q0 -154 -74.5 -291.5t-209.5 -223t-297 -85.5q-100 0 -183.5 48t-127.5 124h-9l-16 -139l-78 -442h-188l336 1908h188l-82 -462l-33 -140h9q127 172 350 172zM563 139q156 0 265.5 120t109.5 296q0 147 -71 228t-205 81
q-104 0 -192 -61t-136.5 -158.5t-48.5 -206.5q0 -143 77.5 -221t200.5 -78z" />
    <glyph glyph-name="ydieresis" unicode="&#xff;" horiz-adv-x="1019" 
d="M209 -442h-199l324 505l-248 941h199l176 -723h4l420 723h209zM788 1233q-47 0 -81.5 35t-34.5 82q0 50 34 83t82 33q51 0 84 -32.5t33 -83.5q0 -48 -33.5 -82.5t-83.5 -34.5zM444 1233q-47 0 -81.5 35t-34.5 82q0 50 34 83t82 33q51 0 84 -32.5t33 -83.5
q0 -48 -33.5 -82.5t-83.5 -34.5z" />
    <glyph glyph-name="Abreve" unicode="&#x102;" horiz-adv-x="1368" 
d="M844 1587q-132 0 -188 68.5t-35 187.5h155q-10 -63 16.5 -92t79.5 -27q49 -2 87.5 27.5t48.5 91.5h155q-21 -118 -104.5 -187t-214.5 -69zM707 1466l-811 -1466h213l215 397h616l70 -397h202l-292 1466h-213zM905 573h-487l356 662h8z" />
    <glyph glyph-name="abreve" unicode="&#x103;" horiz-adv-x="1044" 
d="M672 1145q-132 0 -188 68.5t-35 187.5h155q-10 -63 16.5 -92t79.5 -27q49 -2 87.5 27.5t48.5 91.5h155q-21 -118 -104.5 -187t-214.5 -69zM588 1036q-136 0 -247.5 -50t-182.5 -146l147 -105q59 71 121.5 102t142.5 31q104 0 168 -53t64 -141q0 -21 -4 -41l-9 -43
q-139 61 -272 61q-138 0 -249 -45.5t-175.5 -131.5t-64.5 -198q0 -139 98 -224t248 -85q102 0 188.5 48t138.5 124h9l-25 -139h180l107 594q10 65 10 108q0 157 -100.5 245.5t-292.5 88.5zM412 135q-77 0 -133 42t-56 116q0 98 83.5 152.5t195.5 54.5q102 0 196 -35
q33 -13 62 -35q-22 -125 -122 -210t-226 -85z" />
    <glyph glyph-name="Dcroat" unicode="&#x110;" horiz-adv-x="1415" 
d="M-16 635l28 162h146l118 669h449q150 0 270.5 -49t198.5 -134.5t119 -200t41 -248.5q0 -131 -37 -254t-110.5 -228t-176.5 -184t-242.5 -123.5t-300.5 -44.5h-471l113 635h-145zM238 180h260q139 0 262 50t210.5 135.5t138 204t50.5 251.5q0 226 -122 345.5t-345 119.5
h-260l-86 -489h322l-29 -162h-322z" />
    <glyph glyph-name="dcroat" unicode="&#x111;" horiz-adv-x="1179" 
d="M616 1163l25 146h340l29 157h188l-29 -157h127l-24 -146h-127l-205 -1163h-180l24 139h-8q-127 -172 -350 -172q-181 0 -298.5 128t-117.5 341q0 115 44.5 224t120.5 192t185.5 133.5t231.5 50.5q100 0 183.5 -48t127.5 -124h8l17 140l28 159h-340zM578 864
q-157 0 -266 -119.5t-109 -295.5q0 -148 71 -229t205 -81q104 0 192 61t136.5 158.5t48.5 206.5q0 143 -77.5 221t-200.5 78z" />
    <glyph glyph-name="Itilde" unicode="&#x128;" horiz-adv-x="483" 
d="M506 1587q-61 0 -111 41q-47 41 -76 41q-54 0 -69 -63h-144q14 99 74.5 159t147.5 60q65 0 112 -41t74 -41q55 0 70 63h143q-14 -100 -72.5 -159.5t-148.5 -59.5zM16 0l260 1466h189l-260 -1466h-189z" />
    <glyph glyph-name="itilde" unicode="&#x129;" horiz-adv-x="450" 
d="M399 1145q-55 0 -102 41q-44 41 -70 41q-48 0 -63 -64h-131q12 98 68 158.5t135 60.5q61 0 102 -41q44 -41 70 -41q48 0 63 64h131q-12 -99 -67 -159t-136 -60zM188 0h-188l176 1004h189z" />
    <glyph glyph-name="dotlessi" unicode="&#x131;" horiz-adv-x="450" 
d="M188 0h-188l176 1004h189z" />
    <glyph glyph-name="OE" unicode="&#x152;" horiz-adv-x="2353" 
d="M2349 1286h-668l-82 -465h603l-31 -176h-602l-82 -465h667l-32 -180h-856l32 186q-240 -219 -565 -219q-140 0 -263.5 49t-213 135t-141.5 210.5t-52 269.5q0 134 40 262.5t117 237.5t181 191.5t241.5 129.5t289.5 47q176 0 319 -74t230 -208l45 249h856zM752 147
q177 0 328 97.5t236 252.5t85 324q0 114 -39 208.5t-106 157.5t-157 97.5t-192 34.5q-134 0 -255.5 -57.5t-207 -151t-136 -216t-50.5 -249.5q0 -114 39 -208.5t106 -157.5t157 -97.5t192 -34.5z" />
    <glyph glyph-name="oe" unicode="&#x153;" horiz-adv-x="1949" 
d="M1677 317l150 -79q-78 -132 -204 -201.5t-277 -69.5q-132 0 -227 56.5t-148 156.5q-80 -101 -197.5 -157t-261.5 -56q-137 0 -245 65t-166 174t-58 240q0 124 45.5 233t124.5 187.5t190.5 124t239.5 45.5q133 0 234.5 -61t158.5 -168q76 108 190 168.5t259 60.5
q198 0 307 -117.5t109 -302.5q0 -71 -19 -149h-788q-4 -28 -4 -59q0 -128 80 -198.5t188 -70.5q201 0 319 178zM530 139q117 0 207.5 58t136.5 149.5t46 198.5q0 137 -86.5 228t-208.5 91q-117 0 -207 -57.5t-136 -149t-46 -198.5q0 -137 86 -228.5t208 -91.5zM1130 623h580
v22q0 30 -6.5 58t-23.5 58t-44.5 52t-73 36.5t-104.5 14.5q-116 0 -204 -65.5t-124 -175.5z" />
    <glyph glyph-name="Utilde" unicode="&#x168;" horiz-adv-x="1314" 
d="M911 1587q-60 0 -110 41q-47 41 -76 41q-55 0 -70 -63h-143q14 99 74 159t147 60q66 0 113 -41t74 -41q54 0 69 63h144q-14 -100 -73 -159.5t-149 -59.5zM528 -33q-121 0 -223 52.5t-165.5 154.5t-63.5 234q0 91 18 200l152 858h188l-160 -905q-12 -71 -12 -123
q0 -135 74 -213t223 -78q169 0 280 109t140 281l164 929h188l-168 -952q-48 -262 -210 -404.5t-425 -142.5z" />
    <glyph glyph-name="utilde" unicode="&#x169;" 
d="M729 1145q-61 0 -111 41q-47 41 -75 41q-55 0 -70 -64h-143q14 99 74 159t147 60q66 0 113 -41t73 -41q55 0 70 64h143q-14 -100 -72.5 -159.5t-148.5 -59.5zM688 0l25 139h-8q-53 -77 -142.5 -124.5t-197.5 -47.5q-148 0 -237 84t-89 225q0 73 14 150l103 578h188
l-106 -603q-9 -41 -9 -82q0 -90 55 -135t152 -45q121 0 211 90t111 220l98 555h188l-176 -1004h-180z" />
    <glyph glyph-name="Ohorn" unicode="&#x1a0;" horiz-adv-x="1658" 
d="M733 -33q-140 0 -263.5 49t-213 135t-141.5 210.5t-52 269.5q0 168 63.5 325t175 277.5t275.5 193t353 72.5q102 0 203 -29q65 -8 94 -8q45 0 76 2q56 0 90 36.5t47 121.5l155 -51q-25 -129 -106 -193q-45 -36 -100 -49l14 -14q192 -186 192 -479q0 -134 -39.5 -262.5
t-116 -237.5t-180 -192t-240 -130t-286.5 -47zM752 147q177 0 328 97.5t236 252.5t85 324q0 114 -39 208.5t-106 157.5t-157 97.5t-192 34.5q-134 0 -255.5 -57.5t-207 -151t-136 -216t-50.5 -249.5q0 -114 39 -208.5t106 -157.5t157 -97.5t192 -34.5z" />
    <glyph glyph-name="ohorn" unicode="&#x1a1;" horiz-adv-x="1146" 
d="M610 1036q85 0 164 -28q24 -2 47 -7q28 -3 76 0q56 0 90 36.5t47 121.5l156 -51q-24 -128 -107 -193q-51 -39 -108 -51q41 -49 69 -123q35 -87 35 -184q0 -124 -45.5 -233t-124.5 -187.5t-190.5 -124t-239.5 -45.5q-137 0 -245 65t-166 174t-58 240q0 124 45.5 233
t124.5 187.5t190.5 124t239.5 45.5zM498 139q117 0 207 58t136 149.5t46 198.5q0 137 -86.5 228t-208.5 91q-117 0 -207 -57.5t-136 -149t-46 -198.5q0 -137 86.5 -228.5t208.5 -91.5z" />
    <glyph glyph-name="Uhorn" unicode="&#x1af;" horiz-adv-x="1314" 
d="M528 -33q-121 0 -223 52.5t-165.5 154.5t-63.5 234q0 91 18 200l152 858h188l-160 -905q-12 -71 -12 -123q0 -135 74 -213t223 -78q169 0 280 109t140 281l164 929h145q37 6 64 33q34 34 49 123l155 -51q-25 -129 -106 -193q-62 -51 -145 -57l-142 -807
q-48 -262 -210 -404.5t-425 -142.5z" />
    <glyph glyph-name="uhorn" unicode="&#x1b0;" 
d="M688 0l25 139h-8q-53 -77 -142.5 -124.5t-197.5 -47.5q-148 0 -237 84t-89 225q0 73 14 150l103 578h188l-106 -603q-9 -41 -9 -82q0 -90 55 -135t152 -45q121 0 211 90t111 220l98 555h145q38 6 64 32q34 34 49 123l156 -51q-24 -128 -107 -193q-62 -51 -145 -57
l-150 -858h-180z" />
    <glyph glyph-name="circumflex" unicode="&#x2c6;" horiz-adv-x="819" 
d="M199 1217l2 10l254 239h163l168 -239l-2 -10h-170l-84 122h-16l-121 -122h-194z" />
    <glyph glyph-name="ring" unicode="&#x2da;" horiz-adv-x="819" 
d="M512 1163q-90 0 -151.5 62.5t-61.5 150.5q0 91 61 152t152 61q88 0 150.5 -61.5t62.5 -151.5q0 -88 -62.5 -150.5t-150.5 -62.5zM512 1284q37 0 63.5 27.5t26.5 64.5t-26.5 63.5t-63.5 26.5t-63.5 -26.5t-26.5 -63.5t26.5 -64.5t63.5 -27.5z" />
    <glyph glyph-name="tilde" unicode="&#x2dc;" horiz-adv-x="819" 
d="M645 1217q-56 0 -129 47q-80 45 -129 45q-62 0 -80 -72h-155q17 120 78.5 181t154.5 61q53 0 133 -45q75 -48 125 -48q62 0 80 72h156q-17 -120 -78.5 -180.5t-155.5 -60.5z" />
    <glyph glyph-name="uni1EA0" unicode="&#x1ea0;" horiz-adv-x="1368" 
d="M618 -315q0 -50 -36.5 -86.5t-89.5 -36.5q-50 0 -86.5 37t-36.5 86q0 53 36.5 90t86.5 37q54 0 90 -36.5t36 -90.5zM-104 0l811 1466h213l292 -1466h-202l-70 397h-616l-215 -397h-213zM418 573h487l-123 662h-8z" />
    <glyph glyph-name="uni1EA1" unicode="&#x1ea1;" horiz-adv-x="1044" 
d="M483 -315q0 -50 -37 -86.5t-90 -36.5q-50 0 -86.5 37t-36.5 86q0 53 36.5 90t86.5 37q54 0 90.5 -36.5t36.5 -90.5zM588 1036q192 0 292.5 -88.5t100.5 -245.5q0 -43 -10 -108l-107 -594h-180l25 139h-9q-52 -76 -138.5 -124t-188.5 -48q-150 0 -248 85t-98 224
q0 112 64.5 198t175.5 131.5t249 45.5q133 0 272 -61l9 43q4 20 4 41q0 88 -64 141t-168 53q-80 0 -142.5 -31t-121.5 -102l-147 105q71 96 182.5 146t247.5 50zM412 135q126 0 226 85t122 210q-29 22 -62 35q-94 35 -196 35q-112 0 -195.5 -54.5t-83.5 -152.5
q0 -74 56 -116t133 -42z" />
    <glyph glyph-name="uni1EA2" unicode="&#x1ea2;" horiz-adv-x="1368" 
d="M905 1608h-137q10 54 37 88q12 16 63.5 53t57.5 70q3 18 -10 31.5t-39 13.5q-31 0 -51 -10t-46 -44l-110 45q80 136 235 136q96 0 140 -44t32 -118q-8 -51 -34 -82t-66 -57q-4 -3 -15.5 -11.5t-17.5 -14t-15 -14.5t-15 -19.5t-9 -22.5zM-104 0l811 1466h213l292 -1466
h-202l-70 397h-616l-215 -397h-213zM418 573h487l-123 662h-8z" />
    <glyph glyph-name="uni1EA3" unicode="&#x1ea3;" horiz-adv-x="1044" 
d="M733 1165h-137q10 54 37 88q12 16 63.5 53t57.5 70q3 18 -10 31.5t-39 13.5q-31 0 -51 -9.5t-46 -43.5l-110 45q79 135 235 135q96 0 140 -44t32 -118q-8 -51 -34 -82t-66 -57q-4 -3 -15.5 -11.5t-17.5 -14t-15 -14.5t-15 -19.5t-9 -22.5zM588 1036q192 0 292.5 -88.5
t100.5 -245.5q0 -43 -10 -108l-107 -594h-180l25 139h-9q-52 -76 -138.5 -124t-188.5 -48q-150 0 -248 85t-98 224q0 112 64.5 198t175.5 131.5t249 45.5q133 0 272 -61l9 43q4 20 4 41q0 88 -64 141t-168 53q-80 0 -142.5 -31t-121.5 -102l-147 105q71 96 182.5 146
t247.5 50zM412 135q126 0 226 85t122 210q-29 22 -62 35q-94 35 -196 35q-112 0 -195.5 -54.5t-83.5 -152.5q0 -74 56 -116t133 -42z" />
    <glyph glyph-name="uni1EA4" unicode="&#x1ea4;" horiz-adv-x="1368" 
d="M-104 0l811 1466h213l292 -1466h-202l-70 397h-616l-215 -397h-213zM418 573h487l-123 662h-8zM862 1714l-147 -127h-195l291 258h164l151 -258h-170zM1235 2028h215l-188 -232h-175z" />
    <glyph glyph-name="uni1EA5" unicode="&#x1ea5;" horiz-adv-x="1044" 
d="M686 1272l-147 -127h-195l291 258h164l151 -258h-170zM588 1036q192 0 292.5 -88.5t100.5 -245.5q0 -43 -10 -108l-107 -594h-180l25 139h-9q-52 -76 -138.5 -124t-188.5 -48q-150 0 -248 85t-98 224q0 112 64.5 198t175.5 131.5t249 45.5q133 0 272 -61l9 43q4 20 4 41
q0 88 -64 141t-168 53q-80 0 -142.5 -31t-121.5 -102l-147 105q71 96 182.5 146t247.5 50zM412 135q126 0 226 85t122 210q-29 22 -62 35q-94 35 -196 35q-112 0 -195.5 -54.5t-83.5 -152.5q0 -74 56 -116t133 -42zM1059 1585h215l-189 -231h-174z" />
    <glyph glyph-name="uni1EA6" unicode="&#x1ea6;" horiz-adv-x="1368" 
d="M-104 0l811 1466h213l292 -1466h-202l-70 397h-616l-215 -397h-213zM418 573h487l-123 662h-8zM862 1714l-147 -127h-195l291 258h164l151 -258h-170zM967 2028h215l104 -232h-174z" />
    <glyph glyph-name="uni1EA7" unicode="&#x1ea7;" horiz-adv-x="1044" 
d="M588 1036q192 0 292.5 -88.5t100.5 -245.5q0 -43 -10 -108l-107 -594h-180l25 139h-9q-52 -76 -138.5 -124t-188.5 -48q-150 0 -248 85t-98 224q0 112 64.5 198t175.5 131.5t249 45.5q133 0 272 -61l9 43q4 20 4 41q0 88 -64 141t-168 53q-80 0 -142.5 -31t-121.5 -102
l-147 105q71 96 182.5 146t247.5 50zM412 135q126 0 226 85t122 210q-29 22 -62 35q-94 35 -196 35q-112 0 -195.5 -54.5t-83.5 -152.5q0 -74 56 -116t133 -42zM684 1272l-147 -127h-195l291 258h164l151 -258h-170zM788 1585h216l104 -231h-174z" />
    <glyph glyph-name="uni1EA8" unicode="&#x1ea8;" horiz-adv-x="1368" 
d="M-104 0l811 1466h213l292 -1466h-202l-70 397h-616l-215 -397h-213zM418 573h487l-123 662h-8zM862 1714l-147 -127h-195l291 258h164l151 -258h-170zM1233 1776h-141q7 44 32 69q12 15 62.5 45t54.5 54q2 14 -10 22t-39 8h-6h-7t-7.5 -0.5t-9 -1.5t-9 -2.5t-10 -4.5
l-10.5 -7t-11.5 -9t-11.5 -12l-113 37q73 109 226 109q95 0 140 -34.5t34 -94.5q-14 -71 -92 -111q-4 -3 -20 -12.5t-23 -15t-16 -16.5t-13 -23z" />
    <glyph glyph-name="uni1EA9" unicode="&#x1ea9;" horiz-adv-x="1044" 
d="M588 1036q192 0 292.5 -88.5t100.5 -245.5q0 -43 -10 -108l-107 -594h-180l25 139h-9q-52 -76 -138.5 -124t-188.5 -48q-150 0 -248 85t-98 224q0 112 64.5 198t175.5 131.5t249 45.5q133 0 272 -61l9 43q4 20 4 41q0 88 -64 141t-168 53q-80 0 -142.5 -31t-121.5 -102
l-147 105q71 96 182.5 146t247.5 50zM412 135q126 0 226 85t122 210q-29 22 -62 35q-94 35 -196 35q-112 0 -195.5 -54.5t-83.5 -152.5q0 -74 56 -116t133 -42zM684 1272l-147 -127h-195l291 258h164l151 -258h-170zM1055 1333h-142q7 44 33 70q13 15 63 44.5t54 53.5
q2 14 -10 22.5t-39 8.5h-6h-7t-7.5 -0.5t-9 -1.5t-9 -2.5t-10 -4.5l-10.5 -7t-11.5 -9t-11.5 -12l-113 37q72 108 225 108q95 0 140.5 -34.5t34.5 -94.5q-14 -69 -93 -110q-4 -3 -16 -10.5t-18 -11.5t-15 -11.5t-14 -16t-8 -18.5z" />
    <glyph glyph-name="uni1EAA" unicode="&#x1eaa;" horiz-adv-x="1368" 
d="M-104 0l811 1466h213l292 -1466h-202l-70 397h-616l-215 -397h-213zM418 573h487l-123 662h-8zM864 1704l-149 -117h-195l289 238h164l153 -238h-170zM1012 1884q-62 0 -109 33q-47 35 -74 35q-54 0 -69 -51h-142q14 83 74 135.5t146 52.5q63 0 110 -35q44 -33 72 -33
q55 0 70 52h141q-14 -84 -72 -136.5t-147 -52.5z" />
    <glyph glyph-name="uni1EAB" unicode="&#x1eab;" horiz-adv-x="1044" 
d="M588 1036q192 0 292.5 -88.5t100.5 -245.5q0 -43 -10 -108l-107 -594h-180l25 139h-9q-52 -76 -138.5 -124t-188.5 -48q-150 0 -248 85t-98 224q0 112 64.5 198t175.5 131.5t249 45.5q133 0 272 -61l9 43q4 20 4 41q0 88 -64 141t-168 53q-80 0 -142.5 -31t-121.5 -102
l-147 105q71 96 182.5 146t247.5 50zM412 135q126 0 226 85t122 210q-29 22 -62 35q-94 35 -196 35q-112 0 -195.5 -54.5t-83.5 -152.5q0 -74 56 -116t133 -42zM686 1262l-149 -117h-195l289 237h164l153 -237h-170zM834 1442q-62 0 -109 33q-46 34 -74 34q-54 0 -69 -51
h-142q14 83 73.5 136t145.5 53q64 0 111 -35q44 -33 72 -33q54 0 69 51h142q-14 -84 -72 -136t-147 -52z" />
    <glyph glyph-name="uni1EAC" unicode="&#x1eac;" horiz-adv-x="1368" 
d="M618 -315q0 -50 -36.5 -86.5t-89.5 -36.5q-50 0 -86.5 37t-36.5 86q0 53 36.5 90t86.5 37q54 0 90 -36.5t36 -90.5zM870 1729l-155 -142h-195l299 289h164l143 -289h-170zM-104 0l811 1466h213l292 -1466h-202l-70 397h-616l-215 -397h-213zM418 573h487l-123 662h-8z
" />
    <glyph glyph-name="uni1EAD" unicode="&#x1ead;" horiz-adv-x="1044" 
d="M483 -315q0 -50 -37 -86.5t-90 -36.5q-50 0 -86.5 37t-36.5 86q0 53 36.5 90t86.5 37q54 0 90.5 -36.5t36.5 -90.5zM588 1036q192 0 292.5 -88.5t100.5 -245.5q0 -43 -10 -108l-107 -594h-180l25 139h-9q-52 -76 -138.5 -124t-188.5 -48q-150 0 -248 85t-98 224
q0 112 64.5 198t175.5 131.5t249 45.5q133 0 272 -61l9 43q4 20 4 41q0 88 -64 141t-168 53q-80 0 -142.5 -31t-121.5 -102l-147 105q71 96 182.5 146t247.5 50zM412 135q126 0 226 85t122 210q-29 22 -62 35q-94 35 -196 35q-112 0 -195.5 -54.5t-83.5 -152.5
q0 -74 56 -116t133 -42zM692 1286l-155 -141h-195l299 289h164l143 -289h-170z" />
    <glyph glyph-name="uni1EAE" unicode="&#x1eae;" horiz-adv-x="1368" 
d="M821 1587q-132 0 -189 60t-36 161h156q-10 -54 16.5 -79t79.5 -23q49 -2 87 23.5t48 78.5h156q-21 -101 -104 -161t-214 -60zM-104 0l811 1466h213l292 -1466h-202l-70 397h-616l-215 -397h-213zM418 573h487l-123 662h-8zM924 2093h215l-189 -231h-174z" />
    <glyph glyph-name="uni1EAF" unicode="&#x1eaf;" horiz-adv-x="1044" 
d="M588 1036q192 0 292.5 -88.5t100.5 -245.5q0 -43 -10 -108l-107 -594h-180l25 139h-9q-52 -76 -138.5 -124t-188.5 -48q-150 0 -248 85t-98 224q0 112 64.5 198t175.5 131.5t249 45.5q133 0 272 -61l9 43q4 20 4 41q0 88 -64 141t-168 53q-80 0 -142.5 -31t-121.5 -102
l-147 105q71 96 182.5 146t247.5 50zM412 135q126 0 226 85t122 210q-29 22 -62 35q-94 35 -196 35q-112 0 -195.5 -54.5t-83.5 -152.5q0 -74 56 -116t133 -42zM662 1145q-132 0 -189.5 60t-36.5 161h156q-10 -54 16.5 -79t79.5 -23q49 -2 87 23.5t48 78.5h156
q-21 -101 -104 -161t-213 -60zM764 1651h215l-188 -232h-175z" />
    <glyph glyph-name="uni1EB0" unicode="&#x1eb0;" horiz-adv-x="1368" 
d="M821 1587q-132 0 -189 60t-36 161h156q-10 -54 16.5 -79t79.5 -23q49 -2 87 23.5t48 78.5h156q-21 -101 -104 -161t-214 -60zM-104 0l811 1466h213l292 -1466h-202l-70 397h-616l-215 -397h-213zM418 573h487l-123 662h-8zM647 2093h215l105 -231h-174z" />
    <glyph glyph-name="uni1EB1" unicode="&#x1eb1;" horiz-adv-x="1044" 
d="M588 1036q192 0 292.5 -88.5t100.5 -245.5q0 -43 -10 -108l-107 -594h-180l25 139h-9q-52 -76 -138.5 -124t-188.5 -48q-150 0 -248 85t-98 224q0 112 64.5 198t175.5 131.5t249 45.5q133 0 272 -61l9 43q4 20 4 41q0 88 -64 141t-168 53q-80 0 -142.5 -31t-121.5 -102
l-147 105q71 96 182.5 146t247.5 50zM412 135q126 0 226 85t122 210q-29 22 -62 35q-94 35 -196 35q-112 0 -195.5 -54.5t-83.5 -152.5q0 -74 56 -116t133 -42zM662 1145q-132 0 -189.5 60t-36.5 161h156q-10 -54 16.5 -79t79.5 -23q49 -2 87 23.5t48 78.5h156
q-21 -101 -104 -161t-213 -60zM487 1651h215l105 -232h-174z" />
    <glyph glyph-name="uni1EB2" unicode="&#x1eb2;" horiz-adv-x="1368" 
d="M821 1587q-132 0 -191 57.5t-38 153.5h156q-10 -53 16.5 -76.5t79.5 -21.5q49 -2 87 22t48 76h156q-21 -97 -102.5 -154t-211.5 -57zM-104 0l811 1466h213l292 -1466h-202l-70 397h-616l-215 -397h-213zM418 573h487l-123 662h-8zM938 1823h-141q7 41 32 63q13 14 42 29
t50.5 29.5t24.5 31.5q2 13 -10.5 21t-38.5 8q-49 0 -82 -35l-113 35q74 98 226 98q95 0 140 -31.5t34 -86.5q-14 -65 -92 -101q-4 -2 -20 -11t-23 -13.5t-16 -14.5t-13 -22z" />
    <glyph glyph-name="uni1EB3" unicode="&#x1eb3;" horiz-adv-x="1044" 
d="M588 1036q192 0 292.5 -88.5t100.5 -245.5q0 -43 -10 -108l-107 -594h-180l25 139h-9q-52 -76 -138.5 -124t-188.5 -48q-150 0 -248 85t-98 224q0 112 64.5 198t175.5 131.5t249 45.5q133 0 272 -61l9 43q4 20 4 41q0 88 -64 141t-168 53q-80 0 -142.5 -31t-121.5 -102
l-147 105q71 96 182.5 146t247.5 50zM412 135q126 0 226 85t122 210q-29 22 -62 35q-94 35 -196 35q-112 0 -195.5 -54.5t-83.5 -152.5q0 -74 56 -116t133 -42zM664 1145q-132 0 -191.5 57.5t-38.5 153.5h156q-10 -53 16.5 -77t79.5 -22q49 -2 87 22.5t48 76.5h156
q-21 -97 -102 -154t-211 -57zM780 1380h-141q7 41 33 64q13 14 41.5 29t50 29.5t24.5 31.5q2 13 -10.5 21t-38.5 8q-49 0 -82 -35l-112 35q73 98 225 98q95 0 140 -32t34 -87q-14 -64 -92 -100q-5 -3 -16.5 -9t-18 -10.5t-15 -11t-14 -14.5t-8.5 -17z" />
    <glyph glyph-name="uni1EB4" unicode="&#x1eb4;" horiz-adv-x="1368" 
d="M821 1587q-132 0 -189 60t-36 161h156q-10 -54 16.5 -79t79.5 -23q49 -2 87 23.5t48 78.5h156q-21 -101 -104 -161t-214 -60zM-104 0l811 1466h213l292 -1466h-202l-70 397h-616l-215 -397h-213zM418 573h487l-123 662h-8zM981 1855q-60 0 -104 33q-47 35 -72 35
q-51 0 -66 -53h-135q14 83 69.5 132.5t139.5 49.5q63 0 107 -35q40 -32 69 -32q51 0 66 53h135q-14 -83 -69 -133t-140 -50z" />
    <glyph glyph-name="uni1EB5" unicode="&#x1eb5;" horiz-adv-x="1044" 
d="M588 1036q192 0 292.5 -88.5t100.5 -245.5q0 -43 -10 -108l-107 -594h-180l25 139h-9q-52 -76 -138.5 -124t-188.5 -48q-150 0 -248 85t-98 224q0 112 64.5 198t175.5 131.5t249 45.5q133 0 272 -61l9 43q4 20 4 41q0 88 -64 141t-168 53q-80 0 -142.5 -31t-121.5 -102
l-147 105q71 96 182.5 146t247.5 50zM412 135q126 0 226 85t122 210q-29 22 -62 35q-94 35 -196 35q-112 0 -195.5 -54.5t-83.5 -152.5q0 -74 56 -116t133 -42zM662 1145q-132 0 -189.5 60t-36.5 161h156q-10 -54 16.5 -79t79.5 -23q49 -2 87 23.5t48 78.5h156
q-21 -101 -104 -161t-213 -60zM821 1413q-60 0 -104 33q-47 35 -72 35q-50 0 -65 -54h-136q14 83 69.5 133t139.5 50q63 0 107 -35q42 -33 69 -33q51 0 66 53h135q-14 -83 -69 -132.5t-140 -49.5z" />
    <glyph glyph-name="uni1EB6" unicode="&#x1eb6;" horiz-adv-x="1368" 
d="M618 -315q0 54 -36 90.5t-90 36.5q-50 0 -86.5 -37t-36.5 -90q0 -49 36.5 -86t86.5 -37q53 0 89.5 36.5t36.5 86.5zM844 1587q-132 0 -188 68.5t-35 187.5h155q-10 -63 16.5 -92t79.5 -27q49 -2 87.5 27.5t48.5 91.5h155q-21 -118 -104.5 -187t-214.5 -69zM707 1466
l-811 -1466h213l215 397h616l70 -397h202l-292 1466h-213zM905 573h-487l356 662h8z" />
    <glyph glyph-name="uni1EB7" unicode="&#x1eb7;" horiz-adv-x="1044" 
d="M483 -315q0 54 -36.5 90.5t-90.5 36.5q-50 0 -86.5 -37t-36.5 -90q0 -49 36.5 -86t86.5 -37q53 0 90 36.5t37 86.5zM672 1145q-132 0 -188 68.5t-35 187.5h155q-10 -63 16.5 -92t79.5 -27q49 -2 87.5 27.5t48.5 91.5h155q-21 -118 -104.5 -187t-214.5 -69zM588 1036
q-136 0 -247.5 -50t-182.5 -146l147 -105q59 71 121.5 102t142.5 31q104 0 168 -53t64 -141q0 -21 -4 -41l-9 -43q-139 61 -272 61q-138 0 -249 -45.5t-175.5 -131.5t-64.5 -198q0 -139 98 -224t248 -85q102 0 188.5 48t138.5 124h9l-25 -139h180l107 594q10 65 10 108
q0 157 -100.5 245.5t-292.5 88.5zM412 135q-77 0 -133 42t-56 116q0 98 83.5 152.5t195.5 54.5q102 0 196 -35q33 -13 62 -35q-22 -125 -122 -210t-226 -85z" />
    <glyph glyph-name="uni1EB8" unicode="&#x1eb8;" 
d="M506 -315q0 -50 -37 -86.5t-90 -36.5q-49 0 -86 37t-37 86q0 53 36.5 90t86.5 37q54 0 90.5 -36.5t36.5 -90.5zM1100 1286h-668l-82 -465h602l-30 -176h-603l-81 -465h667l-33 -180h-856l260 1466h857z" />
    <glyph glyph-name="uni1EB9" unicode="&#x1eb9;" horiz-adv-x="1097" 
d="M518 -315q0 -50 -37 -86.5t-90 -36.5q-49 0 -86 37t-37 86q0 53 36.5 90t86.5 37q54 0 90.5 -36.5t36.5 -90.5zM795 319l145 -81q-78 -131 -203 -201t-270 -70q-108 0 -195.5 36.5t-144 99.5t-87 146t-30.5 177q0 117 41.5 226.5t114.5 195t184 137t240 51.5
q203 0 313.5 -118.5t110.5 -301.5q0 -93 -19 -149h-790q-2 -14 -2 -33v-26q0 -87 40.5 -149.5t101.5 -91t132 -28.5q100 0 181 47.5t137 132.5zM240 623h583v22q0 92 -65.5 155.5t-186.5 63.5t-208 -65t-123 -176z" />
    <glyph glyph-name="uni1EBA" unicode="&#x1eba;" 
d="M805 1608h-137q10 54 37 88q12 16 63 53t57 70q3 18 -10 31.5t-39 13.5q-31 0 -50.5 -10t-45.5 -44l-111 45q80 136 236 136q96 0 140 -44t32 -118q-8 -51 -34 -82t-66 -57q-4 -3 -15.5 -11.5t-17.5 -14t-15 -14.5t-15 -19.5t-9 -22.5zM1100 1286h-668l-82 -465h602
l-30 -176h-603l-81 -465h667l-33 -180h-856l260 1466h857z" />
    <glyph glyph-name="uni1EBB" unicode="&#x1ebb;" horiz-adv-x="1097" 
d="M709 1165h-138q10 54 37 88q12 16 63.5 53t57.5 70q3 18 -10 31.5t-39 13.5q-31 0 -50.5 -9.5t-45.5 -43.5l-111 45q79 135 236 135q96 0 140 -44t32 -118q-8 -51 -34 -81.5t-67 -57.5q-3 -3 -15 -11.5t-18 -14t-14.5 -14.5t-14.5 -19.5t-9 -22.5zM795 319l145 -81
q-78 -131 -203 -201t-270 -70q-108 0 -195.5 36.5t-144 99.5t-87 146t-30.5 177q0 117 41.5 226.5t114.5 195t184 137t240 51.5q203 0 313.5 -118.5t110.5 -301.5q0 -93 -19 -149h-790q-2 -14 -2 -33v-26q0 -87 40.5 -149.5t101.5 -91t132 -28.5q100 0 181 47.5t137 132.5z
M240 623h583v22q0 92 -65.5 155.5t-186.5 63.5t-208 -65t-123 -176z" />
    <glyph glyph-name="uni1EBC" unicode="&#x1ebc;" 
d="M842 1587q-61 0 -111 41q-47 41 -76 41q-54 0 -69 -63h-144q14 99 74.5 159t147.5 60q65 0 112 -41t74 -41q55 0 70 63h143q-14 -100 -72.5 -159.5t-148.5 -59.5zM1100 1286h-668l-82 -465h602l-30 -176h-603l-81 -465h667l-33 -180h-856l260 1466h857z" />
    <glyph glyph-name="uni1EBD" unicode="&#x1ebd;" horiz-adv-x="1097" 
d="M739 1145q-60 0 -110 41q-47 41 -76 41q-55 0 -70 -64h-143q14 99 74 159t147 60q66 0 113 -41t74 -41q54 0 69 64h144q-14 -100 -73 -159.5t-149 -59.5zM795 319l145 -81q-78 -131 -203 -201t-270 -70q-108 0 -195.5 36.5t-144 99.5t-87 146t-30.5 177q0 117 41.5 226.5
t114.5 195t184 137t240 51.5q203 0 313.5 -118.5t110.5 -301.5q0 -93 -19 -149h-790q-2 -14 -2 -33v-26q0 -87 40.5 -149.5t101.5 -91t132 -28.5q100 0 181 47.5t137 132.5zM240 623h583v22q0 92 -65.5 155.5t-186.5 63.5t-208 -65t-123 -176z" />
    <glyph glyph-name="uni1EBE" unicode="&#x1ebe;" 
d="M754 1714l-148 -127h-194l290 258h164l152 -258h-170zM1100 1286h-668l-82 -465h602l-30 -176h-603l-81 -465h667l-33 -180h-856l260 1466h857zM1126 2028h215l-188 -232h-174z" />
    <glyph glyph-name="uni1EBF" unicode="&#x1ebf;" horiz-adv-x="1097" 
d="M664 1272l-148 -127h-194l290 258h164l152 -258h-170zM795 319l145 -81q-78 -131 -203 -201t-270 -70q-108 0 -195.5 36.5t-144 99.5t-87 146t-30.5 177q0 117 41.5 226.5t114.5 195t184 137t240 51.5q203 0 313.5 -118.5t110.5 -301.5q0 -93 -19 -149h-790
q-2 -14 -2 -33v-26q0 -87 40.5 -149.5t101.5 -91t132 -28.5q100 0 181 47.5t137 132.5zM240 623h583v22q0 92 -65.5 155.5t-186.5 63.5t-208 -65t-123 -176zM1036 1585h215l-188 -231h-174z" />
    <glyph glyph-name="uni1EC0" unicode="&#x1ec0;" 
d="M1100 1286h-668l-82 -465h602l-30 -176h-603l-81 -465h667l-33 -180h-856l260 1466h857zM754 1714l-148 -127h-194l290 258h164l152 -258h-170zM858 2028h215l105 -232h-174z" />
    <glyph glyph-name="uni1EC1" unicode="&#x1ec1;" horiz-adv-x="1097" 
d="M664 1272l-148 -127h-194l290 258h164l152 -258h-170zM795 319l145 -81q-78 -131 -203 -201t-270 -70q-108 0 -195.5 36.5t-144 99.5t-87 146t-30.5 177q0 117 41.5 226.5t114.5 195t184 137t240 51.5q203 0 313.5 -118.5t110.5 -301.5q0 -93 -19 -149h-790
q-2 -14 -2 -33v-26q0 -87 40.5 -149.5t101.5 -91t132 -28.5q100 0 181 47.5t137 132.5zM240 623h583v22q0 92 -65.5 155.5t-186.5 63.5t-208 -65t-123 -176zM768 1585h215l104 -231h-174z" />
    <glyph glyph-name="uni1EC2" unicode="&#x1ec2;" 
d="M1124 1776h-141q7 43 33 69q12 15 62.5 45t54.5 54q2 14 -10.5 22t-39.5 8h-5h-8t-7.5 -0.5t-9 -1.5t-9 -2.5t-10 -4.5l-10.5 -7t-11.5 -9t-11.5 -12l-112 37q73 109 225 109q95 0 140 -34.5t34 -94.5q-14 -71 -92 -111q-4 -3 -20 -12.5t-23 -15t-16 -16.5t-13 -23z
M1100 1286h-668l-82 -465h602l-30 -176h-603l-81 -465h667l-33 -180h-856l260 1466h857zM754 1714l-148 -127h-194l290 258h164l152 -258h-170z" />
    <glyph glyph-name="uni1EC3" unicode="&#x1ec3;" horiz-adv-x="1097" 
d="M795 319l145 -81q-78 -131 -203 -201t-270 -70q-108 0 -195.5 36.5t-144 99.5t-87 146t-30.5 177q0 117 41.5 226.5t114.5 195t184 137t240 51.5q203 0 313.5 -118.5t110.5 -301.5q0 -93 -19 -149h-790q-2 -14 -2 -33v-26q0 -87 40.5 -149.5t101.5 -91t132 -28.5
q100 0 181 47.5t137 132.5zM240 623h583v22q0 92 -65.5 155.5t-186.5 63.5t-208 -65t-123 -176zM664 1272l-148 -127h-194l290 258h164l152 -258h-170zM1034 1333h-141q7 44 33 70q12 15 62 44.5t54 53.5q2 14 -10 22.5t-39 8.5h-5h-8t-7.5 -0.5t-9 -1.5t-9 -2.5t-10 -4.5
l-10.5 -7t-11.5 -9t-11.5 -12l-112 37q72 108 225 108q95 0 140 -34.5t34 -94.5q-14 -70 -92 -110q-3 -2 -20 -12.5t-23.5 -15.5t-15.5 -16.5t-13 -23.5z" />
    <glyph glyph-name="uni1EC4" unicode="&#x1ec4;" 
d="M1100 1286h-668l-82 -465h602l-30 -176h-603l-81 -465h667l-33 -180h-856l260 1466h857zM756 1704l-150 -117h-194l288 238h164l154 -238h-170zM903 1884q-61 0 -108 33q-47 35 -74 35q-55 0 -70 -51h-141q14 83 73.5 135.5t145.5 52.5q64 0 111 -35q44 -33 71 -33
q55 0 70 52h141q-14 -84 -72 -136.5t-147 -52.5z" />
    <glyph glyph-name="uni1EC5" unicode="&#x1ec5;" horiz-adv-x="1097" 
d="M795 319l145 -81q-78 -131 -203 -201t-270 -70q-108 0 -195.5 36.5t-144 99.5t-87 146t-30.5 177q0 117 41.5 226.5t114.5 195t184 137t240 51.5q203 0 313.5 -118.5t110.5 -301.5q0 -93 -19 -149h-790q-2 -14 -2 -33v-26q0 -87 40.5 -149.5t101.5 -91t132 -28.5
q100 0 181 47.5t137 132.5zM240 623h583v22q0 92 -65.5 155.5t-186.5 63.5t-208 -65t-123 -176zM666 1262l-150 -117h-194l288 237h164l154 -237h-170zM813 1442q-61 0 -108 33q-46 34 -74 34q-55 0 -70 -51h-141q14 83 73.5 136t145.5 53q64 0 111 -35q44 -33 71 -33
q55 0 70 51h141q-14 -84 -72 -136t-147 -52z" />
    <glyph glyph-name="uni1EC6" unicode="&#x1ec6;" 
d="M506 -315q0 -50 -37 -86.5t-90 -36.5q-49 0 -86 37t-37 86q0 53 36.5 90t86.5 37q54 0 90.5 -36.5t36.5 -90.5zM764 1729l-156 -142h-194l299 289h164l143 -289h-170zM1100 1286h-668l-82 -465h602l-30 -176h-603l-81 -465h667l-33 -180h-856l260 1466h857z" />
    <glyph glyph-name="uni1EC7" unicode="&#x1ec7;" horiz-adv-x="1097" 
d="M518 -315q0 -50 -37 -86.5t-90 -36.5q-49 0 -86 37t-37 86q0 53 36.5 90t86.5 37q54 0 90.5 -36.5t36.5 -90.5zM795 319l145 -81q-78 -131 -203 -201t-270 -70q-108 0 -195.5 36.5t-144 99.5t-87 146t-30.5 177q0 117 41.5 226.5t114.5 195t184 137t240 51.5
q203 0 313.5 -118.5t110.5 -301.5q0 -93 -19 -149h-790q-2 -14 -2 -33v-26q0 -87 40.5 -149.5t101.5 -91t132 -28.5q100 0 181 47.5t137 132.5zM240 623h583v22q0 92 -65.5 155.5t-186.5 63.5t-208 -65t-123 -176zM672 1286l-156 -141h-194l299 289h163l144 -289h-170z" />
    <glyph glyph-name="uni1EC8" unicode="&#x1ec8;" horiz-adv-x="483" 
d="M463 1608h-137q11 56 36 88q12 16 63.5 53t57.5 70q3 18 -10 31.5t-39 13.5q-31 0 -50.5 -10t-45.5 -44l-111 45q80 136 236 136q96 0 140 -44t32 -118q-8 -51 -34 -82t-66 -57q-4 -3 -15.5 -11.5t-17.5 -14t-15 -14.5t-15 -19.5t-9 -22.5zM16 0l260 1466h189l-260 -1466
h-189z" />
    <glyph glyph-name="uni1EC9" unicode="&#x1ec9;" horiz-adv-x="450" 
d="M365 1165h-138q10 54 37 88q12 16 63.5 53t57.5 70q3 18 -10 31.5t-39 13.5q-31 0 -50.5 -9.5t-45.5 -43.5l-111 45q79 135 236 135q96 0 140 -44t32 -118q-8 -51 -34 -81.5t-67 -57.5q-3 -3 -15 -11.5t-18 -14t-14.5 -14.5t-14.5 -19.5t-9 -22.5zM188 0h-188l176 1004
h189z" />
    <glyph glyph-name="uni1ECA" unicode="&#x1eca;" horiz-adv-x="483" 
d="M193 -315q0 -50 -37 -86.5t-90 -36.5q-50 0 -86.5 37t-36.5 86q0 53 36.5 90t86.5 37q54 0 90.5 -36.5t36.5 -90.5zM16 0l260 1466h189l-260 -1466h-189z" />
    <glyph glyph-name="uni1ECB" unicode="&#x1ecb;" horiz-adv-x="450" 
d="M180 -315q0 -50 -37 -86.5t-90 -36.5q-49 0 -86 37t-37 86q0 53 36.5 90t86.5 37q54 0 90.5 -36.5t36.5 -90.5zM188 0h-188l176 1004h189zM440 1298q0 -50 -37 -86t-90 -36q-50 0 -86.5 36.5t-36.5 85.5q0 53 36.5 90t86.5 37q54 0 90.5 -36.5t36.5 -90.5z" />
    <glyph glyph-name="uni1ECC" unicode="&#x1ecc;" horiz-adv-x="1658" 
d="M733 -315q0 -50 -37 -86.5t-90 -36.5q-50 0 -86.5 37t-36.5 86q0 53 36.5 90t86.5 37q54 0 90.5 -36.5t36.5 -90.5zM733 -33q-140 0 -263.5 49t-213 135t-141.5 210.5t-52 269.5q0 168 63.5 325t175 277.5t275.5 193t353 72.5q185 0 336.5 -83t240 -235.5t88.5 -344.5
q0 -134 -39.5 -262.5t-116 -237.5t-180 -192t-240 -130t-286.5 -47zM752 147q177 0 328 97.5t236 252.5t85 324q0 114 -39 208.5t-106 157.5t-157 97.5t-192 34.5q-134 0 -255.5 -57.5t-207 -151t-136 -216t-50.5 -249.5q0 -114 39 -208.5t106 -157.5t157 -97.5t192 -34.5z
" />
    <glyph glyph-name="uni1ECD" unicode="&#x1ecd;" horiz-adv-x="1146" 
d="M498 -315q0 -50 -37 -86.5t-90 -36.5q-49 0 -86 37t-37 86q0 53 36.5 90t86.5 37q54 0 90.5 -36.5t36.5 -90.5zM610 1036q137 0 245 -65t166 -174t58 -240q0 -124 -45.5 -233t-124.5 -187.5t-190.5 -124t-239.5 -45.5q-137 0 -245 65t-166 174t-58 240q0 124 45.5 233
t124.5 187.5t190.5 124t239.5 45.5zM498 139q117 0 207 58t136 149.5t46 198.5q0 137 -86.5 228t-208.5 91q-117 0 -207 -57.5t-136 -149t-46 -198.5q0 -137 86.5 -228.5t208.5 -91.5z" />
    <glyph glyph-name="uni1ECE" unicode="&#x1ece;" horiz-adv-x="1658" 
d="M1067 1608h-137q10 54 37 88q12 16 63 53t57 70q3 18 -10 31.5t-39 13.5q-31 0 -50.5 -10t-45.5 -44l-111 45q80 136 236 136q96 0 140 -44t32 -118q-8 -51 -34 -82t-66 -57q-4 -3 -15.5 -11.5t-17.5 -14t-15 -14.5t-15 -19.5t-9 -22.5zM733 -33q-140 0 -263.5 49
t-213 135t-141.5 210.5t-52 269.5q0 168 63.5 325t175 277.5t275.5 193t353 72.5q185 0 336.5 -83t240 -235.5t88.5 -344.5q0 -134 -39.5 -262.5t-116 -237.5t-180 -192t-240 -130t-286.5 -47zM752 147q177 0 328 97.5t236 252.5t85 324q0 114 -39 208.5t-106 157.5
t-157 97.5t-192 34.5q-134 0 -255.5 -57.5t-207 -151t-136 -216t-50.5 -249.5q0 -114 39 -208.5t106 -157.5t157 -97.5t192 -34.5z" />
    <glyph glyph-name="uni1ECF" unicode="&#x1ecf;" horiz-adv-x="1146" 
d="M717 1165h-137q11 56 36 88q12 16 63.5 53t57.5 70q3 18 -10 31.5t-39 13.5q-31 0 -50.5 -9.5t-45.5 -43.5l-111 45q79 135 236 135q96 0 140 -44t32 -118q-8 -51 -34 -81.5t-67 -57.5q-3 -3 -15 -11.5t-18 -14t-14.5 -14.5t-14.5 -19.5t-9 -22.5zM610 1036
q137 0 245 -65t166 -174t58 -240q0 -124 -45.5 -233t-124.5 -187.5t-190.5 -124t-239.5 -45.5q-137 0 -245 65t-166 174t-58 240q0 124 45.5 233t124.5 187.5t190.5 124t239.5 45.5zM498 139q117 0 207 58t136 149.5t46 198.5q0 137 -86.5 228t-208.5 91q-117 0 -207 -57.5
t-136 -149t-46 -198.5q0 -137 86.5 -228.5t208.5 -91.5z" />
    <glyph glyph-name="uni1ED0" unicode="&#x1ed0;" horiz-adv-x="1658" 
d="M1032 1714l-147 -127h-195l291 258h164l151 -258h-170zM733 -33q-140 0 -263.5 49t-213 135t-141.5 210.5t-52 269.5q0 168 63.5 325t175 277.5t275.5 193t353 72.5q185 0 336.5 -83t240 -235.5t88.5 -344.5q0 -134 -39.5 -262.5t-116 -237.5t-180 -192t-240 -130
t-286.5 -47zM752 147q177 0 328 97.5t236 252.5t85 324q0 114 -39 208.5t-106 157.5t-157 97.5t-192 34.5q-134 0 -255.5 -57.5t-207 -151t-136 -216t-50.5 -249.5q0 -114 39 -208.5t106 -157.5t157 -97.5t192 -34.5zM1405 2028h215l-188 -232h-175z" />
    <glyph glyph-name="uni1ED1" unicode="&#x1ed1;" horiz-adv-x="1146" 
d="M696 1274l-147 -127h-195l291 258h164l152 -258h-170zM610 1036q137 0 245 -65t166 -174t58 -240q0 -124 -45.5 -233t-124.5 -187.5t-190.5 -124t-239.5 -45.5q-137 0 -245 65t-166 174t-58 240q0 124 45.5 233t124.5 187.5t190.5 124t239.5 45.5zM498 139q117 0 207 58
t136 149.5t46 198.5q0 137 -86.5 228t-208.5 91q-117 0 -207 -57.5t-136 -149t-46 -198.5q0 -137 86.5 -228.5t208.5 -91.5zM1063 1585h215l-188 -231h-175z" />
    <glyph glyph-name="uni1ED2" unicode="&#x1ed2;" horiz-adv-x="1658" 
d="M1032 1714l-147 -127h-195l291 258h164l151 -258h-170zM733 -33q-140 0 -263.5 49t-213 135t-141.5 210.5t-52 269.5q0 168 63.5 325t175 277.5t275.5 193t353 72.5q185 0 336.5 -83t240 -235.5t88.5 -344.5q0 -134 -39.5 -262.5t-116 -237.5t-180 -192t-240 -130
t-286.5 -47zM752 147q177 0 328 97.5t236 252.5t85 324q0 114 -39 208.5t-106 157.5t-157 97.5t-192 34.5q-134 0 -255.5 -57.5t-207 -151t-136 -216t-50.5 -249.5q0 -114 39 -208.5t106 -157.5t157 -97.5t192 -34.5zM1137 2028h215l104 -232h-174z" />
    <glyph glyph-name="uni1ED3" unicode="&#x1ed3;" horiz-adv-x="1146" 
d="M610 1036q137 0 245 -65t166 -174t58 -240q0 -124 -45.5 -233t-124.5 -187.5t-190.5 -124t-239.5 -45.5q-137 0 -245 65t-166 174t-58 240q0 124 45.5 233t124.5 187.5t190.5 124t239.5 45.5zM498 139q117 0 207 58t136 149.5t46 198.5q0 137 -86.5 228t-208.5 91
q-117 0 -207 -57.5t-136 -149t-46 -198.5q0 -137 86.5 -228.5t208.5 -91.5zM696 1274l-147 -127h-195l291 258h164l152 -258h-170zM801 1587h215l104 -231h-174z" />
    <glyph glyph-name="uni1ED4" unicode="&#x1ed4;" horiz-adv-x="1658" 
d="M1032 1714l-147 -127h-195l291 258h164l151 -258h-170zM733 -33q-140 0 -263.5 49t-213 135t-141.5 210.5t-52 269.5q0 168 63.5 325t175 277.5t275.5 193t353 72.5q185 0 336.5 -83t240 -235.5t88.5 -344.5q0 -134 -39.5 -262.5t-116 -237.5t-180 -192t-240 -130
t-286.5 -47zM752 147q177 0 328 97.5t236 252.5t85 324q0 114 -39 208.5t-106 157.5t-157 97.5t-192 34.5q-134 0 -255.5 -57.5t-207 -151t-136 -216t-50.5 -249.5q0 -114 39 -208.5t106 -157.5t157 -97.5t192 -34.5zM1403 1776h-141q7 44 32 69q12 15 62.5 45t54.5 54
q2 14 -10 22t-39 8h-6h-7t-7.5 -0.5t-9 -1.5t-9 -2.5t-10 -4.5l-10.5 -7t-11.5 -9t-11.5 -12l-113 37q73 109 226 109q95 0 140 -34.5t34 -94.5q-14 -71 -92 -111q-4 -3 -20 -12.5t-23 -15t-16 -16.5t-13 -23z" />
    <glyph glyph-name="uni1ED5" unicode="&#x1ed5;" horiz-adv-x="1146" 
d="M610 1036q137 0 245 -65t166 -174t58 -240q0 -124 -45.5 -233t-124.5 -187.5t-190.5 -124t-239.5 -45.5q-137 0 -245 65t-166 174t-58 240q0 124 45.5 233t124.5 187.5t190.5 124t239.5 45.5zM498 139q117 0 207 58t136 149.5t46 198.5q0 137 -86.5 228t-208.5 91
q-117 0 -207 -57.5t-136 -149t-46 -198.5q0 -137 86.5 -228.5t208.5 -91.5zM696 1274l-147 -127h-195l291 258h164l152 -258h-170zM1067 1335h-141q7 45 32 70q13 15 63 44.5t54 53.5q2 14 -10 22.5t-39 8.5h-6h-7t-7.5 -0.5t-9 -1.5t-9 -2.5t-10 -4.5l-10.5 -7t-11.5 -9
t-11.5 -12l-113 37q72 108 226 108q95 0 140 -34.5t34 -94.5q-14 -70 -92 -110q-3 -2 -20 -12.5t-23.5 -15.5t-15.5 -16.5t-13 -23.5z" />
    <glyph glyph-name="uni1ED6" unicode="&#x1ed6;" horiz-adv-x="1658" 
d="M733 -33q-140 0 -263.5 49t-213 135t-141.5 210.5t-52 269.5q0 168 63.5 325t175 277.5t275.5 193t353 72.5q185 0 336.5 -83t240 -235.5t88.5 -344.5q0 -134 -39.5 -262.5t-116 -237.5t-180 -192t-240 -130t-286.5 -47zM752 147q177 0 328 97.5t236 252.5t85 324
q0 114 -39 208.5t-106 157.5t-157 97.5t-192 34.5q-134 0 -255.5 -57.5t-207 -151t-136 -216t-50.5 -249.5q0 -114 39 -208.5t106 -157.5t157 -97.5t192 -34.5zM1034 1704l-149 -117h-195l289 238h164l153 -238h-170zM1182 1884q-62 0 -109 33q-47 35 -74 35q-54 0 -69 -51
h-142q14 83 74 135.5t146 52.5q63 0 110 -35q44 -33 72 -33q55 0 70 52h141q-14 -84 -72 -136.5t-147 -52.5z" />
    <glyph glyph-name="uni1ED7" unicode="&#x1ed7;" horiz-adv-x="1146" 
d="M610 1036q137 0 245 -65t166 -174t58 -240q0 -124 -45.5 -233t-124.5 -187.5t-190.5 -124t-239.5 -45.5q-137 0 -245 65t-166 174t-58 240q0 124 45.5 233t124.5 187.5t190.5 124t239.5 45.5zM498 139q117 0 207 58t136 149.5t46 198.5q0 137 -86.5 228t-208.5 91
q-117 0 -207 -57.5t-136 -149t-46 -198.5q0 -137 86.5 -228.5t208.5 -91.5zM698 1264l-149 -117h-195l289 237h164l154 -237h-170zM846 1444q-62 0 -109 33q-46 34 -73 34q-55 0 -70 -51h-141q14 83 73.5 136t145.5 53q63 0 110 -35q44 -33 72 -33q55 0 70 51h141
q-14 -84 -72 -136t-147 -52z" />
    <glyph glyph-name="uni1ED8" unicode="&#x1ed8;" horiz-adv-x="1658" 
d="M733 -315q0 -50 -37 -86.5t-90 -36.5q-50 0 -86.5 37t-36.5 86q0 53 36.5 90t86.5 37q54 0 90.5 -36.5t36.5 -90.5zM1040 1729l-155 -142h-195l299 289h164l143 -289h-170zM733 -33q-140 0 -263.5 49t-213 135t-141.5 210.5t-52 269.5q0 168 63.5 325t175 277.5
t275.5 193t353 72.5q185 0 336.5 -83t240 -235.5t88.5 -344.5q0 -134 -39.5 -262.5t-116 -237.5t-180 -192t-240 -130t-286.5 -47zM752 147q177 0 328 97.5t236 252.5t85 324q0 114 -39 208.5t-106 157.5t-157 97.5t-192 34.5q-134 0 -255.5 -57.5t-207 -151t-136 -216
t-50.5 -249.5q0 -114 39 -208.5t106 -157.5t157 -97.5t192 -34.5z" />
    <glyph glyph-name="uni1ED9" unicode="&#x1ed9;" horiz-adv-x="1146" 
d="M498 -315q0 -50 -37 -86.5t-90 -36.5q-49 0 -86 37t-37 86q0 53 36.5 90t86.5 37q54 0 90.5 -36.5t36.5 -90.5zM698 1286l-155 -141h-195l299 289h164l143 -289h-170zM610 1036q137 0 245 -65t166 -174t58 -240q0 -124 -45.5 -233t-124.5 -187.5t-190.5 -124
t-239.5 -45.5q-137 0 -245 65t-166 174t-58 240q0 124 45.5 233t124.5 187.5t190.5 124t239.5 45.5zM498 139q117 0 207 58t136 149.5t46 198.5q0 137 -86.5 228t-208.5 91q-117 0 -207 -57.5t-136 -149t-46 -198.5q0 -137 86.5 -228.5t208.5 -91.5z" />
    <glyph glyph-name="uni1EDA" unicode="&#x1eda;" horiz-adv-x="1658" 
d="M1075 1896h215l-229 -288h-174zM733 -33q-140 0 -263.5 49t-213 135t-141.5 210.5t-52 269.5q0 168 63.5 325t175 277.5t275.5 193t353 72.5q102 0 203 -29q65 -8 94 -8q45 0 76 2q56 0 90 36.5t47 121.5l155 -51q-25 -129 -106 -193q-45 -36 -100 -49l14 -14
q192 -186 192 -479q0 -134 -39.5 -262.5t-116 -237.5t-180 -192t-240 -130t-286.5 -47zM752 147q177 0 328 97.5t236 252.5t85 324q0 114 -39 208.5t-106 157.5t-157 97.5t-192 34.5q-134 0 -255.5 -57.5t-207 -151t-136 -216t-50.5 -249.5q0 -114 39 -208.5t106 -157.5
t157 -97.5t192 -34.5z" />
    <glyph glyph-name="uni1EDB" unicode="&#x1edb;" horiz-adv-x="1146" 
d="M725 1454h215l-229 -289h-174zM610 1036q85 0 164 -28q24 -2 47 -7q28 -3 76 0q56 0 90 36.5t47 121.5l156 -51q-24 -128 -107 -193q-51 -39 -108 -51q41 -49 69 -123q35 -87 35 -184q0 -124 -45.5 -233t-124.5 -187.5t-190.5 -124t-239.5 -45.5q-137 0 -245 65t-166 174
t-58 240q0 124 45.5 233t124.5 187.5t190.5 124t239.5 45.5zM498 139q117 0 207 58t136 149.5t46 198.5q0 137 -86.5 228t-208.5 91q-117 0 -207 -57.5t-136 -149t-46 -198.5q0 -137 86.5 -228.5t208.5 -91.5z" />
    <glyph glyph-name="uni1EDC" unicode="&#x1edc;" horiz-adv-x="1658" 
d="M778 1896h215l123 -288h-174zM733 -33q-140 0 -263.5 49t-213 135t-141.5 210.5t-52 269.5q0 168 63.5 325t175 277.5t275.5 193t353 72.5q102 0 203 -29q65 -8 94 -8q45 0 76 2q56 0 90 36.5t47 121.5l155 -51q-25 -129 -106 -193q-45 -36 -100 -49l14 -14
q192 -186 192 -479q0 -134 -39.5 -262.5t-116 -237.5t-180 -192t-240 -130t-286.5 -47zM752 147q177 0 328 97.5t236 252.5t85 324q0 114 -39 208.5t-106 157.5t-157 97.5t-192 34.5q-134 0 -255.5 -57.5t-207 -151t-136 -216t-50.5 -249.5q0 -114 39 -208.5t106 -157.5
t157 -97.5t192 -34.5z" />
    <glyph glyph-name="uni1EDD" unicode="&#x1edd;" horiz-adv-x="1146" 
d="M399 1454h215l123 -289h-174zM610 1036q85 0 164 -28q24 -2 47 -7q28 -3 76 0q56 0 90 36.5t47 121.5l156 -51q-24 -128 -107 -193q-51 -39 -108 -51q41 -49 69 -123q35 -87 35 -184q0 -124 -45.5 -233t-124.5 -187.5t-190.5 -124t-239.5 -45.5q-137 0 -245 65t-166 174
t-58 240q0 124 45.5 233t124.5 187.5t190.5 124t239.5 45.5zM498 139q117 0 207 58t136 149.5t46 198.5q0 137 -86.5 228t-208.5 91q-117 0 -207 -57.5t-136 -149t-46 -198.5q0 -137 86.5 -228.5t208.5 -91.5z" />
    <glyph glyph-name="uni1EDE" unicode="&#x1ede;" horiz-adv-x="1658" 
d="M1067 1608h-137q10 54 37 88q12 16 63 53t57 70q3 18 -10 31.5t-39 13.5q-31 0 -50.5 -10t-45.5 -44l-111 45q80 136 236 136q96 0 140 -44t32 -118q-8 -51 -34 -82t-66 -57q-4 -3 -15.5 -11.5t-17.5 -14t-15 -14.5t-15 -19.5t-9 -22.5zM733 -33q-140 0 -263.5 49
t-213 135t-141.5 210.5t-52 269.5q0 168 63.5 325t175 277.5t275.5 193t353 72.5q102 0 203 -29q65 -8 94 -8q45 0 76 2q56 0 90 36.5t47 121.5l155 -51q-25 -129 -106 -193q-45 -36 -100 -49l14 -14q192 -186 192 -479q0 -134 -39.5 -262.5t-116 -237.5t-180 -192
t-240 -130t-286.5 -47zM752 147q177 0 328 97.5t236 252.5t85 324q0 114 -39 208.5t-106 157.5t-157 97.5t-192 34.5q-134 0 -255.5 -57.5t-207 -151t-136 -216t-50.5 -249.5q0 -114 39 -208.5t106 -157.5t157 -97.5t192 -34.5z" />
    <glyph glyph-name="uni1EDF" unicode="&#x1edf;" horiz-adv-x="1146" 
d="M717 1165h-137q11 56 36 88q12 16 63.5 53t57.5 70q3 18 -10 31.5t-39 13.5q-31 0 -50.5 -9.5t-45.5 -43.5l-111 45q79 135 236 135q96 0 140 -44t32 -118q-8 -51 -34 -81.5t-67 -57.5q-3 -3 -15 -11.5t-18 -14t-14.5 -14.5t-14.5 -19.5t-9 -22.5zM610 1036q85 0 164 -28
q24 -2 47 -7q28 -3 76 0q56 0 90 36.5t47 121.5l156 -51q-24 -128 -107 -193q-51 -39 -108 -51q41 -49 69 -123q35 -87 35 -184q0 -124 -45.5 -233t-124.5 -187.5t-190.5 -124t-239.5 -45.5q-137 0 -245 65t-166 174t-58 240q0 124 45.5 233t124.5 187.5t190.5 124
t239.5 45.5zM498 139q117 0 207 58t136 149.5t46 198.5q0 137 -86.5 228t-208.5 91q-117 0 -207 -57.5t-136 -149t-46 -198.5q0 -137 86.5 -228.5t208.5 -91.5z" />
    <glyph glyph-name="uni1EE0" unicode="&#x1ee0;" horiz-adv-x="1658" 
d="M1094 1587q-61 0 -111 41q-47 41 -76 41q-54 0 -69 -63h-144q14 99 74 159t147 60q66 0 113 -41t74 -41q54 0 69 63h144q-14 -100 -72.5 -159.5t-148.5 -59.5zM733 -33q-140 0 -263.5 49t-213 135t-141.5 210.5t-52 269.5q0 168 63.5 325t175 277.5t275.5 193t353 72.5
q102 0 203 -29q65 -8 94 -8q45 0 76 2q56 0 90 36.5t47 121.5l155 -51q-25 -129 -106 -193q-45 -36 -100 -49l14 -14q192 -186 192 -479q0 -134 -39.5 -262.5t-116 -237.5t-180 -192t-240 -130t-286.5 -47zM752 147q177 0 328 97.5t236 252.5t85 324q0 114 -39 208.5
t-106 157.5t-157 97.5t-192 34.5q-134 0 -255.5 -57.5t-207 -151t-136 -216t-50.5 -249.5q0 -114 39 -208.5t106 -157.5t157 -97.5t192 -34.5z" />
    <glyph glyph-name="uni1EE1" unicode="&#x1ee1;" horiz-adv-x="1146" 
d="M739 1145q-60 0 -110 41q-47 41 -76 41q-55 0 -70 -64h-143q14 99 74 159t147 60q66 0 113 -41t74 -41q54 0 69 64h144q-14 -100 -73 -159.5t-149 -59.5zM610 1036q85 0 164 -28q24 -2 47 -7q28 -3 76 0q56 0 90 36.5t47 121.5l156 -51q-24 -128 -107 -193
q-51 -39 -108 -51q41 -49 69 -123q35 -87 35 -184q0 -124 -45.5 -233t-124.5 -187.5t-190.5 -124t-239.5 -45.5q-137 0 -245 65t-166 174t-58 240q0 124 45.5 233t124.5 187.5t190.5 124t239.5 45.5zM498 139q117 0 207 58t136 149.5t46 198.5q0 137 -86.5 228t-208.5 91
q-117 0 -207 -57.5t-136 -149t-46 -198.5q0 -137 86.5 -228.5t208.5 -91.5z" />
    <glyph glyph-name="uni1EE2" unicode="&#x1ee2;" horiz-adv-x="1658" 
d="M733 -315q0 -50 -37 -86.5t-90 -36.5q-50 0 -86.5 37t-36.5 86q0 53 36.5 90t86.5 37q54 0 90.5 -36.5t36.5 -90.5zM733 -33q-140 0 -263.5 49t-213 135t-141.5 210.5t-52 269.5q0 168 63.5 325t175 277.5t275.5 193t353 72.5q102 0 203 -29q65 -8 94 -8q45 0 76 2
q56 0 90 36.5t47 121.5l155 -51q-25 -129 -106 -193q-45 -36 -100 -49l14 -14q192 -186 192 -479q0 -134 -39.5 -262.5t-116 -237.5t-180 -192t-240 -130t-286.5 -47zM752 147q177 0 328 97.5t236 252.5t85 324q0 114 -39 208.5t-106 157.5t-157 97.5t-192 34.5
q-134 0 -255.5 -57.5t-207 -151t-136 -216t-50.5 -249.5q0 -114 39 -208.5t106 -157.5t157 -97.5t192 -34.5z" />
    <glyph glyph-name="uni1EE3" unicode="&#x1ee3;" horiz-adv-x="1146" 
d="M498 -315q0 -50 -37 -86.5t-90 -36.5q-49 0 -86 37t-37 86q0 53 36.5 90t86.5 37q54 0 90.5 -36.5t36.5 -90.5zM610 1036q85 0 164 -28q24 -2 47 -7q28 -3 76 0q56 0 90 36.5t47 121.5l156 -51q-24 -128 -107 -193q-51 -39 -108 -51q41 -49 69 -123q35 -87 35 -184
q0 -124 -45.5 -233t-124.5 -187.5t-190.5 -124t-239.5 -45.5q-137 0 -245 65t-166 174t-58 240q0 124 45.5 233t124.5 187.5t190.5 124t239.5 45.5zM498 139q117 0 207 58t136 149.5t46 198.5q0 137 -86.5 228t-208.5 91q-117 0 -207 -57.5t-136 -149t-46 -198.5
q0 -137 86.5 -228.5t208.5 -91.5z" />
    <glyph glyph-name="uni1EE4" unicode="&#x1ee4;" horiz-adv-x="1314" 
d="M588 -315q0 -50 -37 -86.5t-90 -36.5q-49 0 -86 37t-37 86q0 53 36.5 90t86.5 37q54 0 90.5 -36.5t36.5 -90.5zM528 -33q-121 0 -223 52.5t-165.5 154.5t-63.5 234q0 91 18 200l152 858h188l-160 -905q-12 -71 -12 -123q0 -135 74 -213t223 -78q169 0 280 109t140 281
l164 929h188l-168 -952q-48 -262 -210 -404.5t-425 -142.5z" />
    <glyph glyph-name="uni1EE5" unicode="&#x1ee5;" 
d="M487 -315q0 -50 -37 -86.5t-90 -36.5q-49 0 -85.5 36.5t-36.5 86.5q0 53 36 90t86 37q54 0 90.5 -36.5t36.5 -90.5zM688 0l25 139h-8q-53 -77 -142.5 -124.5t-197.5 -47.5q-148 0 -237 84t-89 225q0 73 14 150l103 578h188l-106 -603q-9 -41 -9 -82q0 -90 55 -135
t152 -45q121 0 211 90t111 220l98 555h188l-176 -1004h-180z" />
    <glyph glyph-name="uni1EE6" unicode="&#x1ee6;" horiz-adv-x="1314" 
d="M881 1608h-138q10 54 37 88q12 16 63.5 53t57.5 70q3 18 -10 31.5t-39 13.5q-31 0 -50.5 -10t-45.5 -44l-111 45q80 136 236 136q96 0 140 -44t32 -118q-8 -51 -34 -81.5t-67 -57.5q-3 -3 -15 -11.5t-18 -14t-14.5 -14.5t-14.5 -19.5t-9 -22.5zM528 -33q-121 0 -223 52.5
t-165.5 154.5t-63.5 234q0 91 18 200l152 858h188l-160 -905q-12 -71 -12 -123q0 -135 74 -213t223 -78q169 0 280 109t140 281l164 929h188l-168 -952q-48 -262 -210 -404.5t-425 -142.5z" />
    <glyph glyph-name="uni1EE7" unicode="&#x1ee7;" 
d="M694 1165h-137q10 54 37 88q12 16 63.5 53t57.5 70q3 18 -10 31.5t-39 13.5q-31 0 -51 -9.5t-46 -43.5l-110 45q79 135 235 135q96 0 140 -44t32 -118q-8 -51 -34 -82t-66 -57q-4 -3 -15.5 -11.5t-17.5 -14t-15 -14.5t-15 -19.5t-9 -22.5zM688 0l25 139h-8
q-53 -77 -142.5 -124.5t-197.5 -47.5q-148 0 -237 84t-89 225q0 73 14 150l103 578h188l-106 -603q-9 -41 -9 -82q0 -90 55 -135t152 -45q121 0 211 90t111 220l98 555h188l-176 -1004h-180z" />
    <glyph glyph-name="uni1EE8" unicode="&#x1ee8;" horiz-adv-x="1314" 
d="M893 1896h215l-229 -288h-174zM528 -33q-121 0 -223 52.5t-165.5 154.5t-63.5 234q0 91 18 200l152 858h188l-160 -905q-12 -71 -12 -123q0 -135 74 -213t223 -78q169 0 280 109t140 281l164 929h145q37 6 64 33q34 34 49 123l155 -51q-25 -129 -106 -193
q-62 -51 -145 -57l-142 -807q-48 -262 -210 -404.5t-425 -142.5z" />
    <glyph glyph-name="uni1EE9" unicode="&#x1ee9;" 
d="M719 1454h215l-229 -289h-175zM688 0l25 139h-8q-53 -77 -142.5 -124.5t-197.5 -47.5q-148 0 -237 84t-89 225q0 73 14 150l103 578h188l-106 -603q-9 -41 -9 -82q0 -90 55 -135t152 -45q121 0 211 90t111 220l98 555h145q38 6 64 32q34 34 49 123l156 -51
q-24 -128 -107 -193q-62 -51 -145 -57l-150 -858h-180z" />
    <glyph glyph-name="uni1EEA" unicode="&#x1eea;" horiz-adv-x="1314" 
d="M569 1896h215l123 -288h-174zM528 -33q-121 0 -223 52.5t-165.5 154.5t-63.5 234q0 91 18 200l152 858h188l-160 -905q-12 -71 -12 -123q0 -135 74 -213t223 -78q169 0 280 109t140 281l164 929h145q37 6 64 33q34 34 49 123l155 -51q-25 -129 -106 -193
q-62 -51 -145 -57l-142 -807q-48 -262 -210 -404.5t-425 -142.5z" />
    <glyph glyph-name="uni1EEB" unicode="&#x1eeb;" 
d="M383 1454h215l123 -289h-174zM688 0l25 139h-8q-53 -77 -142.5 -124.5t-197.5 -47.5q-148 0 -237 84t-89 225q0 73 14 150l103 578h188l-106 -603q-9 -41 -9 -82q0 -90 55 -135t152 -45q121 0 211 90t111 220l98 555h145q38 6 64 32q34 34 49 123l156 -51
q-24 -128 -107 -193q-62 -51 -145 -57l-150 -858h-180z" />
    <glyph glyph-name="uni1EEC" unicode="&#x1eec;" horiz-adv-x="1314" 
d="M881 1608h-138q10 54 37 88q12 16 63.5 53t57.5 70q3 18 -10 31.5t-39 13.5q-31 0 -50.5 -10t-45.5 -44l-111 45q80 136 236 136q96 0 140 -44t32 -118q-8 -51 -34 -81.5t-67 -57.5q-3 -3 -15 -11.5t-18 -14t-14.5 -14.5t-14.5 -19.5t-9 -22.5zM528 -33q-121 0 -223 52.5
t-165.5 154.5t-63.5 234q0 91 18 200l152 858h188l-160 -905q-12 -71 -12 -123q0 -135 74 -213t223 -78q169 0 280 109t140 281l164 929h145q37 6 64 33q34 34 49 123l155 -51q-25 -129 -106 -193q-62 -51 -145 -57l-142 -807q-48 -262 -210 -404.5t-425 -142.5z" />
    <glyph glyph-name="uni1EED" unicode="&#x1eed;" 
d="M694 1165h-137q10 54 37 88q12 16 63.5 53t57.5 70q3 18 -10 31.5t-39 13.5q-31 0 -51 -9.5t-46 -43.5l-110 45q79 135 235 135q96 0 140 -44t32 -118q-8 -51 -34 -82t-66 -57q-4 -3 -15.5 -11.5t-17.5 -14t-15 -14.5t-15 -19.5t-9 -22.5zM688 0l25 139h-8
q-53 -77 -142.5 -124.5t-197.5 -47.5q-148 0 -237 84t-89 225q0 73 14 150l103 578h188l-106 -603q-9 -41 -9 -82q0 -90 55 -135t152 -45q121 0 211 90t111 220l98 555h145q38 6 64 32q34 34 49 123l156 -51q-24 -128 -107 -193q-62 -51 -145 -57l-150 -858h-180z" />
    <glyph glyph-name="uni1EEE" unicode="&#x1eee;" horiz-adv-x="1314" 
d="M911 1587q-60 0 -110 41q-47 41 -76 41q-55 0 -70 -63h-143q14 99 74 159t147 60q66 0 113 -41t74 -41q54 0 69 63h144q-14 -100 -73 -159.5t-149 -59.5zM528 -33q-121 0 -223 52.5t-165.5 154.5t-63.5 234q0 91 18 200l152 858h188l-160 -905q-12 -71 -12 -123
q0 -135 74 -213t223 -78q169 0 280 109t140 281l164 929h145q37 6 64 33q34 34 49 123l155 -51q-25 -129 -106 -193q-62 -51 -145 -57l-142 -807q-48 -262 -210 -404.5t-425 -142.5z" />
    <glyph glyph-name="uni1EEF" unicode="&#x1eef;" 
d="M729 1145q-61 0 -111 41q-47 41 -75 41q-55 0 -70 -64h-143q14 99 74 159t147 60q66 0 113 -41t73 -41q55 0 70 64h143q-14 -100 -72.5 -159.5t-148.5 -59.5zM688 0l25 139h-8q-53 -77 -142.5 -124.5t-197.5 -47.5q-148 0 -237 84t-89 225q0 73 14 150l103 578h188
l-106 -603q-9 -41 -9 -82q0 -90 55 -135t152 -45q121 0 211 90t111 220l98 555h145q38 6 64 32q34 34 49 123l156 -51q-24 -128 -107 -193q-62 -51 -145 -57l-150 -858h-180z" />
    <glyph glyph-name="uni1EF0" unicode="&#x1ef0;" horiz-adv-x="1314" 
d="M588 -315q0 -50 -37 -86.5t-90 -36.5q-49 0 -86 37t-37 86q0 53 36.5 90t86.5 37q54 0 90.5 -36.5t36.5 -90.5zM528 -33q-121 0 -223 52.5t-165.5 154.5t-63.5 234q0 91 18 200l152 858h188l-160 -905q-12 -71 -12 -123q0 -135 74 -213t223 -78q169 0 280 109t140 281
l164 929h145q37 6 64 33q34 34 49 123l155 -51q-25 -129 -106 -193q-62 -51 -145 -57l-142 -807q-48 -262 -210 -404.5t-425 -142.5z" />
    <glyph glyph-name="uni1EF1" unicode="&#x1ef1;" 
d="M487 -315q0 -50 -37 -86.5t-90 -36.5q-49 0 -85.5 36.5t-36.5 86.5q0 53 36 90t86 37q54 0 90.5 -36.5t36.5 -90.5zM688 0l25 139h-8q-53 -77 -142.5 -124.5t-197.5 -47.5q-148 0 -237 84t-89 225q0 73 14 150l103 578h188l-106 -603q-9 -41 -9 -82q0 -90 55 -135
t152 -45q121 0 211 90t111 220l98 555h145q38 6 64 32q34 34 49 123l156 -51q-24 -128 -107 -193q-62 -51 -145 -57l-150 -858h-180z" />
    <glyph glyph-name="Ygrave" unicode="&#x1ef2;" horiz-adv-x="1216" 
d="M496 1896h215l123 -288h-175zM575 0h-188l121 682l-354 784h215l256 -596h8l461 596h227l-625 -784z" />
    <glyph glyph-name="ygrave" unicode="&#x1ef3;" horiz-adv-x="1019" 
d="M350 1454h215l123 -289h-174zM209 -442h-199l324 505l-248 941h199l176 -723h4l420 723h209z" />
    <glyph glyph-name="uni1EF4" unicode="&#x1ef4;" horiz-adv-x="1216" 
d="M559 -315q0 -50 -37 -86.5t-90 -36.5q-50 0 -86.5 37t-36.5 86q0 53 36.5 90t86.5 37q54 0 90.5 -36.5t36.5 -90.5zM575 0h-188l121 682l-354 784h215l256 -596h8l461 596h227l-625 -784z" />
    <glyph glyph-name="uni1EF5" unicode="&#x1ef5;" horiz-adv-x="1019" 
d="M760 -315q0 -50 -37 -86.5t-90 -36.5q-49 0 -86 37t-37 86q0 53 36.5 90t86.5 37q54 0 90.5 -36.5t36.5 -90.5zM209 -442h-199l324 505l-248 941h199l176 -723h4l420 723h209z" />
    <glyph glyph-name="uni1EF6" unicode="&#x1ef6;" horiz-adv-x="1216" 
d="M801 1608h-137q11 56 36 88q12 16 63.5 53t57.5 70q3 18 -10 31.5t-39 13.5q-31 0 -50.5 -10t-45.5 -44l-111 45q80 136 236 136q96 0 140 -44t32 -118q-8 -51 -34 -81.5t-67 -57.5q-3 -3 -15 -11.5t-18 -14t-14.5 -14.5t-14.5 -19.5t-9 -22.5zM575 0h-188l121 682
l-354 784h215l256 -596h8l461 596h227l-625 -784z" />
    <glyph glyph-name="uni1EF7" unicode="&#x1ef7;" horiz-adv-x="1019" 
d="M659 1165h-137q10 54 37 88q12 16 63.5 53t57.5 70q3 18 -10 31.5t-39 13.5q-31 0 -50.5 -9.5t-45.5 -43.5l-111 45q79 135 235 135q96 0 140 -44t32 -118q-8 -51 -34 -82t-66 -57q-4 -3 -15.5 -11.5t-17.5 -14t-15 -14.5t-15 -19.5t-9 -22.5zM209 -442h-199l324 505
l-248 941h199l176 -723h4l420 723h209z" />
    <glyph glyph-name="uni1EF8" unicode="&#x1ef8;" horiz-adv-x="1216" 
d="M864 1587q-60 0 -110 41q-47 41 -76 41q-55 0 -70 -63h-143q14 99 74 159t147 60q66 0 113 -41t73 -41q55 0 70 63h143q-14 -100 -72.5 -159.5t-148.5 -59.5zM575 0h-188l121 682l-354 784h215l256 -596h8l461 596h227l-625 -784z" />
    <glyph glyph-name="uni1EF9" unicode="&#x1ef9;" horiz-adv-x="1019" 
d="M711 1145q-61 0 -111 41q-47 41 -76 41q-54 0 -69 -64h-144q14 99 74 159t147 60q66 0 113 -41t74 -41q54 0 69 64h144q-14 -100 -72.5 -159.5t-148.5 -59.5zM209 -442h-199l324 505l-248 941h199l176 -723h4l420 723h209z" />
    <glyph glyph-name="endash" unicode="&#x2013;" horiz-adv-x="1212" 
d="M86 557l27 156h983l-27 -156h-983z" />
    <glyph glyph-name="emdash" unicode="&#x2014;" horiz-adv-x="1826" 
d="M86 557l27 156h1597l-27 -156h-1597z" />
    <glyph glyph-name="quoteleft" unicode="&#x2018;" horiz-adv-x="475" 
d="M397 1499l76 -63l-123 -150q28 -10 55 -43.5t27 -83.5q0 -59 -41 -99t-96 -40q-60 0 -100.5 39.5t-40.5 99.5q0 22 13.5 49t28 47t44.5 56z" />
    <glyph glyph-name="quoteright" unicode="&#x2019;" horiz-adv-x="475" 
d="M256 1020l-76 63l123 150q-28 11 -55 43t-27 84q0 59 41 99t96 40q60 0 101 -39.5t41 -99.5q0 -22 -13.5 -49t-28 -47t-44.5 -56z" />
    <glyph glyph-name="quotesinglbase" unicode="&#x201a;" horiz-adv-x="475" 
d="M33 -211l-76 64l123 149q-28 11 -55 43t-27 84q0 59 41 99t96 40q60 0 100.5 -39.5t40.5 -99.5q0 -22 -13.5 -49t-28 -47t-44.5 -56z" />
    <glyph glyph-name="quotedblleft" unicode="&#x201c;" horiz-adv-x="835" 
d="M397 1499l76 -63l-123 -150q28 -10 55 -43.5t27 -83.5q0 -59 -41 -99t-96 -40q-60 0 -100.5 39.5t-40.5 99.5q0 22 13.5 49t28 47t44.5 56zM758 1499l76 -63l-123 -150q28 -10 55 -43.5t27 -83.5q0 -59 -41.5 -99t-96.5 -40q-60 0 -100.5 39.5t-40.5 99.5q0 22 13.5 49
t28 47t44.5 56z" />
    <glyph glyph-name="quotedblright" unicode="&#x201d;" horiz-adv-x="835" 
d="M256 1020l-76 63l123 150q-28 11 -55 43t-27 84q0 59 41 99t96 40q60 0 101 -39.5t41 -99.5q0 -22 -13.5 -49t-28 -47t-44.5 -56zM616 1020l-75 63l123 150q-28 11 -55 43t-27 84q0 59 41 99t96 40q60 0 100.5 -39.5t40.5 -99.5q0 -22 -13.5 -49t-28 -47t-44.5 -56z" />
    <glyph glyph-name="quotedblbase" unicode="&#x201e;" horiz-adv-x="835" 
d="M33 -211l-76 64l123 149q-28 11 -55 43t-27 84q0 59 41 99t96 40q60 0 100.5 -39.5t40.5 -99.5q0 -22 -13.5 -49t-28 -47t-44.5 -56zM391 -211l-76 64l123 149q-28 11 -55 43t-27 84q0 59 41.5 99t96.5 40q60 0 100.5 -39.5t40.5 -99.5q0 -22 -13.5 -49t-28 -47
t-44.5 -56z" />
    <glyph glyph-name="bullet" unicode="&#x2022;" horiz-adv-x="819" 
d="M397 418q-101 0 -173 72.5t-72 173.5t72 173t173 72t173.5 -72t72.5 -173t-72.5 -173.5t-173.5 -72.5z" />
    <glyph glyph-name="ellipsis" unicode="&#x2026;" horiz-adv-x="1441" 
d="M131 -12q-60 0 -99.5 39.5t-39.5 99.5t39.5 99.5t99.5 39.5t99.5 -39.5t39.5 -99.5t-39.5 -99.5t-99.5 -39.5zM614 -12q-60 0 -99.5 39.5t-39.5 99.5t39.5 99.5t99.5 39.5t100 -39.5t40 -99.5t-40 -99.5t-100 -39.5zM1098 -12q-60 0 -100 39.5t-40 99.5t40 99.5t100 39.5
t99.5 -39.5t39.5 -99.5t-39.5 -99.5t-99.5 -39.5z" />
    <glyph glyph-name="guilsinglleft" unicode="&#x2039;" horiz-adv-x="729" 
d="M246 545l252 -340l-123 -99l-334 449l491 449l97 -109z" />
    <glyph glyph-name="guilsinglright" unicode="&#x203a;" horiz-adv-x="729" 
d="M412 565l-252 340l123 99l333 -449l-491 -449l-96 109z" />
    <glyph glyph-name="fraction" unicode="&#x2044;" horiz-adv-x="348" 
d="M-373 -18l-114 88l1212 1413l109 -86z" />
    <glyph glyph-name="uni2074" unicode="&#x2074;" horiz-adv-x="706" 
d="M547 717h-144l27 147h-350l16 99l447 503h137l-84 -479h98l-22 -123h-99zM260 987h193l45 258h-9z" />
    <glyph glyph-name="Euro" unicode="&#x20ac;" horiz-adv-x="1288" 
d="M59 786l27 156h178q93 215 293.5 353.5t454.5 138.5q171 0 303 -91l-103 -155q-89 63 -231 63q-168 0 -302 -84t-210 -225h471l-27 -156h-503q-21 -80 -21 -172h494l-27 -155h-448q39 -154 145.5 -231.5t247.5 -77.5q135 0 262 65l74 -158q-160 -90 -361 -90
q-222 0 -377 129t-194 363h-203l27 155h166q0 91 20 172h-156z" />
    <glyph glyph-name="minus" unicode="&#x2212;" horiz-adv-x="1126" 
d="M967 477h-897l26 156h897z" />
    <glyph glyph-name="uni2215" unicode="&#x2215;" horiz-adv-x="894" 
d="M100 0h-178l866 1466h181z" />
    <glyph glyph-name="Lslash" horiz-adv-x="1175" 
d="M172 0l100 565l-141 -78l-76 138l252 141l125 700h189l-101 -569l273 154l75 -140l-385 -215l-90 -516h635l-33 -180h-823z" />
    <glyph glyph-name="uniF8FF" horiz-adv-x="2048" 
d="M1022 924h803q14 -80 14 -176q0 -241 -101 -430t-287.5 -295.5t-428.5 -106.5q-174 0 -331.5 67.5t-271.5 181.5t-181.5 271.5t-67.5 331.5t67.5 331.5t181.5 271.5t271.5 181.5t331.5 67.5q335 0 569 -221l-243 -246q-133 127 -326 127q-137 0 -253.5 -69.5
t-183.5 -187.5t-67 -255q0 -138 67 -256t183.5 -188t253.5 -70q185 0 307 94t152 246h-459v330z" />
    <glyph glyph-name="one.numerator" horiz-adv-x="495" 
d="M369 717h-144l103 577l-129 -51l-45 113l254 110h94z" />
    <glyph glyph-name="two.denominator" horiz-adv-x="622" 
d="M434 0h-510l23 123q33 28 86.5 75t66.5 58q14 11 37 31t41 35.5t33 27.5q9 9 39 33q10 8 18 16q109 81 109 152q0 40 -26.5 62t-69.5 22q-92 0 -138 -119l-123 55q29 92 103 143.5t172 51.5q103 0 167 -57t64 -144q0 -40 -11 -74t-36 -66t-47 -53.5t-61 -54.5
q-4 -4 -24.5 -20.5t-33.5 -28.5l-73 -61q-13 -11 -43 -36.5t-47 -39.5h309z" />
    <glyph glyph-name="two.numerator" horiz-adv-x="622" 
d="M557 717h-510l23 123q33 28 87 75t66 58q14 11 37 31t41 35.5t33 27.5q9 9 39 33q10 8 18 16q109 81 109 152q0 40 -27 62t-70 22q-91 0 -137 -119l-123 55q29 92 103 143.5t172 51.5q103 0 167 -57t64 -144q0 -40 -11 -74t-36 -66t-47 -53.5t-61 -54.5
q-4 -4 -24.5 -20.5t-33.5 -28.5l-74 -61q-13 -11 -43 -36.5t-47 -39.5h310z" />
    <glyph glyph-name="three.numerator" horiz-adv-x="661" 
d="M330 700q-94 0 -165 52.5t-89 152.5l133 47q32 -121 135 -121q56 0 96.5 34t40.5 83q0 96 -125 96h-65l22 123h76q54 0 89.5 30t35.5 75q0 39 -26 59.5t-64 20.5q-81 0 -133 -88l-119 51q30 76 101 122t167 46q97 0 160.5 -54.5t63.5 -134.5q0 -59 -41 -110.5t-95 -73.5
q101 -53 101 -158q0 -106 -85.5 -179t-213.5 -73z" />
    <glyph glyph-name="four.denominator" horiz-adv-x="706" 
d="M418 0h-144l27 147h-350l16 99l447 504h137l-84 -480h98l-22 -123h-99zM131 270h193l45 258h-9z" />
    <glyph glyph-name="four.numerator" horiz-adv-x="706" 
d="M547 717h-144l27 147h-350l16 99l447 503h137l-84 -479h98l-22 -123h-99zM260 987h193l45 258h-9z" />
    <glyph glyph-name="r.alt" horiz-adv-x="737" 
d="M342 1004l-29 -164h9q43 93 138.5 142.5t213.5 49.5q31 0 67 -4l-34 -197q-27 9 -84 9q-130 0 -230.5 -85.5t-124.5 -224.5l-94 -530h-188l176 1004h180z" />
    <glyph glyph-name="uni03BC" 
d="M868 0h-180l25 139h-8q-53 -77 -142.5 -124.5t-197.5 -47.5q-56 0 -106.5 22.5t-80.5 59.5h-8l-12 -115l-70 -376h-186l254 1446h188l-106 -603q-9 -41 -9 -82q0 -90 55 -135t152 -45q121 0 211 90t111 220l98 555h188z" />
    <glyph glyph-name="uni2103" horiz-adv-x="1992" 
d="M1229 -33q-184 0 -325.5 86.5t-214.5 229t-73 315.5q0 132 38.5 256.5t113 229t176 183.5t234 123t280.5 44q149 0 270.5 -61t208.5 -173l-151 -127q-64 86 -146.5 132t-212.5 46t-244 -48t-195.5 -133t-129 -206.5t-47.5 -261.5q0 -209 126 -330.5t325 -121.5
q140 0 239.5 47t200.5 145l108 -129q-129 -129 -260.5 -187.5t-320.5 -58.5zM381 905q-101 0 -172.5 65.5t-71.5 168.5q0 130 84.5 212.5t214.5 82.5q100 0 172 -66.5t72 -167.5q0 -130 -84.5 -212.5t-214.5 -82.5zM393 1036q61 0 103.5 43t42.5 105q0 54 -32 86.5t-83 32.5
q-60 0 -102.5 -42.5t-42.5 -105.5q0 -54 31.5 -86.5t82.5 -32.5z" />
    <glyph glyph-name="uni2109" horiz-adv-x="1665" 
d="M829 0h-188l248 1401h827l-33 -180h-639l-77 -449h575l-31 -176h-575zM381 905q-101 0 -172.5 65.5t-71.5 168.5q0 130 84.5 212.5t214.5 82.5q100 0 172 -66.5t72 -167.5q0 -130 -84.5 -212.5t-214.5 -82.5zM393 1036q61 0 103.5 43t42.5 105q0 54 -32 86.5t-83 32.5
q-60 0 -102.5 -42.5t-42.5 -105.5q0 -54 31.5 -86.5t82.5 -32.5z" />
    <glyph glyph-name="uni2190" horiz-adv-x="2215" 
d="M2101 557h-1597v-328l-406 406l406 405v-327h1597v-156z" />
    <glyph glyph-name="uni2191" horiz-adv-x="974" 
d="M565 1274v-1520h-155v1520h-328l405 405l406 -405h-328z" />
    <glyph glyph-name="uni2192" horiz-adv-x="2215" 
d="M1712 557h-1597v156h1597v327l406 -405l-406 -406v328z" />
    <glyph glyph-name="uni2193" horiz-adv-x="974" 
d="M565 1622v-1520h328l-406 -405l-405 405h328v1520h155z" />
    <glyph glyph-name="uni2196" horiz-adv-x="1581" 
d="M424 1235l1157 -1157l-111 -111l-1157 1157l-231 -231v573h573z" />
    <glyph glyph-name="uni2197" horiz-adv-x="1581" 
d="M0 78l1157 1157l-231 231h573v-573l-231 231l-1157 -1157z" />
    <glyph glyph-name="uni2198" horiz-adv-x="1581" 
d="M1581 1389l-1157 -1158l231 -231h-573v573l231 -231l1157 1157z" />
    <glyph glyph-name="uni2199" horiz-adv-x="1581" 
d="M1157 231l-1157 1158l111 110l1157 -1157l231 231v-573h-573z" />
    <glyph glyph-name="uni2639" horiz-adv-x="1712" 
d="M588 809q-48 0 -81.5 34t-33.5 83q0 47 33.5 79.5t81.5 32.5q47 0 80.5 -32.5t33.5 -79.5q0 -49 -33.5 -83t-80.5 -34zM1124 809q-47 0 -80.5 34t-33.5 83q0 47 33.5 79.5t80.5 32.5q48 0 81.5 -32.5t33.5 -79.5q0 -49 -33.5 -83t-81.5 -34zM856 -33q-155 0 -296.5 61
t-244.5 164t-164 244.5t-61 296.5t61 296.5t164 244.5t244.5 164t296.5 61t296.5 -61t244.5 -164t164 -244.5t61 -296.5t-61 -296.5t-164 -244.5t-244.5 -164t-296.5 -61zM856 98q129 0 246.5 51t202.5 136.5t135.5 202.5t50.5 245q0 129 -50.5 246.5t-135.5 202.5
t-202.5 135.5t-246.5 50.5q-128 0 -245 -50.5t-202.5 -135.5t-136.5 -202.5t-51 -246.5q0 -170 86 -316.5t232.5 -232.5t316.5 -86zM856 616q128 0 230.5 -66t152.5 -177l-137 -64q-35 72 -101.5 113t-144.5 41q-79 0 -145.5 -41.5t-98.5 -112.5l-139 64q50 111 152.5 177
t230.5 66z" />
    <glyph glyph-name="uni263A" horiz-adv-x="1712" 
d="M1124 809q-47 0 -80.5 34t-33.5 83q0 47 33.5 79.5t80.5 32.5q48 0 81.5 -32.5t33.5 -79.5q0 -49 -33.5 -83t-81.5 -34zM588 809q-48 0 -81.5 34t-33.5 83q0 47 33.5 79.5t81.5 32.5q47 0 80.5 -32.5t33.5 -79.5q0 -49 -33.5 -83t-80.5 -34zM856 311q-128 0 -230.5 66.5
t-152.5 177.5l139 63q32 -71 98.5 -112t145.5 -41t145 41t101 112l137 -63q-50 -111 -152.5 -177.5t-230.5 -66.5zM856 -33q-155 0 -296.5 61t-244.5 164t-164 244.5t-61 296.5t61 296.5t164 244.5t244.5 164t296.5 61t296.5 -61t244.5 -164t164 -244.5t61 -296.5
t-61 -296.5t-164 -244.5t-244.5 -164t-296.5 -61zM856 98q129 0 246.5 51t202.5 136.5t135.5 202.5t50.5 245q0 129 -50.5 246.5t-135.5 202.5t-202.5 135.5t-246.5 50.5q-128 0 -245 -50.5t-202.5 -135.5t-136.5 -202.5t-51 -246.5q0 -170 86 -316.5t232.5 -232.5
t316.5 -86z" />
    <glyph glyph-name="uni2780" horiz-adv-x="1712" 
d="M954 362h-143v584l-131 -53l-49 111l229 108h94v-750zM856 -33q-155 0 -296.5 61t-244.5 164t-164 244.5t-61 296.5t61 296.5t164 244.5t244.5 164t296.5 61t296.5 -61t244.5 -164t164 -244.5t61 -296.5t-61 -296.5t-164 -244.5t-244.5 -164t-296.5 -61zM856 98
q129 0 246.5 51t202.5 136.5t135.5 202.5t50.5 245q0 129 -50.5 246.5t-135.5 202.5t-202.5 135.5t-246.5 50.5q-128 0 -245 -50.5t-202.5 -135.5t-136.5 -202.5t-51 -246.5q0 -170 86 -316.5t232.5 -232.5t316.5 -86z" />
    <glyph glyph-name="uni2781" horiz-adv-x="1712" 
d="M1112 362h-512v123q47 49 131 133l143 144q87 87 87 145q0 40 -31 65t-76 25q-47 0 -80 -29.5t-45 -88.5l-133 55q20 90 91.5 142t164.5 52q103 0 179.5 -61t76.5 -160q0 -34 -12.5 -67.5t-36.5 -66t-40 -50t-42 -43.5l-49 -49q-15 -13 -64 -62l-76 -75h324v-132z
M856 -33q-155 0 -296.5 61t-244.5 164t-164 244.5t-61 296.5t61 296.5t164 244.5t244.5 164t296.5 61t296.5 -61t244.5 -164t164 -244.5t61 -296.5t-61 -296.5t-164 -244.5t-244.5 -164t-296.5 -61zM856 98q129 0 246.5 51t202.5 136.5t135.5 202.5t50.5 245
q0 129 -50.5 246.5t-135.5 202.5t-202.5 135.5t-246.5 50.5q-128 0 -245 -50.5t-202.5 -135.5t-136.5 -202.5t-51 -246.5q0 -170 86 -316.5t232.5 -232.5t316.5 -86z" />
    <glyph glyph-name="uni2782" horiz-adv-x="1712" 
d="M856 -33q-155 0 -296.5 61t-244.5 164t-164 244.5t-61 296.5t61 296.5t164 244.5t244.5 164t296.5 61t296.5 -61t244.5 -164t164 -244.5t61 -296.5t-61 -296.5t-164 -244.5t-244.5 -164t-296.5 -61zM856 98q129 0 246.5 51t202.5 136.5t135.5 202.5t50.5 245
q0 129 -50.5 246.5t-135.5 202.5t-202.5 135.5t-246.5 50.5q-128 0 -245 -50.5t-202.5 -135.5t-136.5 -202.5t-51 -246.5q0 -170 86 -316.5t232.5 -232.5t316.5 -86zM850 346q-99 0 -174.5 52t-100.5 153l134 49q16 -64 54.5 -93.5t86.5 -29.5q50 0 87.5 31t37.5 80
q0 46 -35.5 74t-87.5 28h-84v123h76q47 0 76.5 26.5t29.5 69.5q0 40 -29.5 64t-72.5 24q-87 0 -119 -88l-127 52q28 77 90 122t156 45q111 0 180.5 -60t69.5 -157q0 -92 -92 -153q116 -67 116 -172q0 -109 -80.5 -174.5t-191.5 -65.5z" />
    <glyph glyph-name="uni2783" horiz-adv-x="1712" 
d="M1010 362h-144v148h-350v98l356 504h138v-479h98v-123h-98v-148zM866 633v268h-8l-192 -268h200zM856 -33q-155 0 -296.5 61t-244.5 164t-164 244.5t-61 296.5t61 296.5t164 244.5t244.5 164t296.5 61t296.5 -61t244.5 -164t164 -244.5t61 -296.5t-61 -296.5t-164 -244.5
t-244.5 -164t-296.5 -61zM856 98q129 0 246.5 51t202.5 136.5t135.5 202.5t50.5 245q0 129 -50.5 246.5t-135.5 202.5t-202.5 135.5t-246.5 50.5q-128 0 -245 -50.5t-202.5 -135.5t-136.5 -202.5t-51 -246.5q0 -170 86 -316.5t232.5 -232.5t316.5 -86z" />
    <glyph glyph-name="uni2784" horiz-adv-x="1712" 
d="M856 -33q-155 0 -296.5 61t-244.5 164t-164 244.5t-61 296.5t61 296.5t164 244.5t244.5 164t296.5 61t296.5 -61t244.5 -164t164 -244.5t61 -296.5t-61 -296.5t-164 -244.5t-244.5 -164t-296.5 -61zM856 98q129 0 246.5 51t202.5 136.5t135.5 202.5t50.5 245
q0 129 -50.5 246.5t-135.5 202.5t-202.5 135.5t-246.5 50.5q-128 0 -245 -50.5t-202.5 -135.5t-136.5 -202.5t-51 -246.5q0 -170 86 -316.5t232.5 -232.5t316.5 -86zM856 346q-93 0 -169.5 46t-102.5 140l133 52q12 -51 48.5 -79t90.5 -28t90.5 38.5t36.5 92.5
q0 56 -36.5 93.5t-90.5 37.5q-76 0 -125 -67l-125 51l51 387h428v-123h-307l-24 -166q47 41 120 41q107 0 181.5 -71t74.5 -185q0 -110 -81.5 -185t-192.5 -75z" />
    <glyph glyph-name="uni2785" horiz-adv-x="1712" 
d="M856 -33q-155 0 -296.5 61t-244.5 164t-164 244.5t-61 296.5t61 296.5t164 244.5t244.5 164t296.5 61t296.5 -61t244.5 -164t164 -244.5t61 -296.5t-61 -296.5t-164 -244.5t-244.5 -164t-296.5 -61zM856 98q129 0 246.5 51t202.5 136.5t135.5 202.5t50.5 245
q0 129 -50.5 246.5t-135.5 202.5t-202.5 135.5t-246.5 50.5q-128 0 -245 -50.5t-202.5 -135.5t-136.5 -202.5t-51 -246.5q0 -170 86 -316.5t232.5 -232.5t316.5 -86zM848 346q-115 0 -195 76t-80 182q0 105 93 234q80 112 129 180q16 21 46.5 64t45.5 63l110 -78l-172 -217
q13 8 43 8q104 0 178 -77t74 -177q0 -105 -81.5 -181.5t-190.5 -76.5zM846 477q55 0 91 38t36 91q0 51 -36 90t-91 39q-54 0 -89.5 -39t-35.5 -90q0 -53 35 -91t90 -38z" />
    <glyph glyph-name="uni2786" horiz-adv-x="1712" 
d="M856 -33q-155 0 -296.5 61t-244.5 164t-164 244.5t-61 296.5t61 296.5t164 244.5t244.5 164t296.5 61t296.5 -61t244.5 -164t164 -244.5t61 -296.5t-61 -296.5t-164 -244.5t-244.5 -164t-296.5 -61zM856 98q129 0 246.5 51t202.5 136.5t135.5 202.5t50.5 245
q0 129 -50.5 246.5t-135.5 202.5t-202.5 135.5t-246.5 50.5q-128 0 -245 -50.5t-202.5 -135.5t-136.5 -202.5t-51 -246.5q0 -170 86 -316.5t232.5 -232.5t316.5 -86zM770 332l-127 67l326 582h-353v131h512v-123z" />
    <glyph glyph-name="uni2787" horiz-adv-x="1712" 
d="M856 -33q-155 0 -296.5 61t-244.5 164t-164 244.5t-61 296.5t61 296.5t164 244.5t244.5 164t296.5 61t296.5 -61t244.5 -164t164 -244.5t61 -296.5t-61 -296.5t-164 -244.5t-244.5 -164t-296.5 -61zM856 98q129 0 246.5 51t202.5 136.5t135.5 202.5t50.5 245
q0 129 -50.5 246.5t-135.5 202.5t-202.5 135.5t-246.5 50.5q-128 0 -245 -50.5t-202.5 -135.5t-136.5 -202.5t-51 -246.5q0 -170 86 -316.5t232.5 -232.5t316.5 -86zM856 346q-109 0 -191.5 65t-82.5 169q0 110 104 178q-35 23 -57.5 64t-22.5 83q0 99 74 161t176 62
q99 0 174.5 -62t75.5 -161q0 -41 -22 -81.5t-58 -65.5q104 -68 104 -178q0 -105 -82.5 -169.5t-191.5 -64.5zM856 813q40 0 71 26t31 66q0 38 -29.5 65t-72.5 27q-44 0 -73 -26.5t-29 -65.5q0 -40 30 -66t72 -26zM856 477q47 0 87 32t40 77t-40 75.5t-87 30.5q-49 0 -88 -30
t-39 -76q0 -48 38.5 -78.5t88.5 -30.5z" />
    <glyph glyph-name="uni2788" horiz-adv-x="1712" 
d="M856 -33q-155 0 -296.5 61t-244.5 164t-164 244.5t-61 296.5t61 296.5t164 244.5t244.5 164t296.5 61t296.5 -61t244.5 -164t164 -244.5t61 -296.5t-61 -296.5t-164 -244.5t-244.5 -164t-296.5 -61zM856 98q129 0 246.5 51t202.5 136.5t135.5 202.5t50.5 245
q0 129 -50.5 246.5t-135.5 202.5t-202.5 135.5t-246.5 50.5q-128 0 -245 -50.5t-202.5 -135.5t-136.5 -202.5t-51 -246.5q0 -170 86 -316.5t232.5 -232.5t316.5 -86zM850 1128q115 0 194.5 -76t79.5 -182t-92 -233q-17 -25 -129 -180q-16 -21 -46.5 -64t-45.5 -63l-111 78
l172 217q-15 -9 -43 -9q-104 0 -177.5 77t-73.5 177q0 105 81.5 181.5t190.5 76.5zM852 997q-55 0 -91 -38t-36 -91q0 -51 36 -90t91 -39q54 0 89.5 39t35.5 90q0 53 -35 91t-90 38z" />
    <glyph glyph-name="uni278A" horiz-adv-x="1712" 
d="M954 362v750h-94l-229 -108l49 -111l131 53v-584h143zM856 -33q-155 0 -296.5 61t-244.5 164t-164 244.5t-61 296.5t61 296.5t164 244.5t244.5 164t296.5 61t296.5 -61t244.5 -164t164 -244.5t61 -296.5t-61 -296.5t-164 -244.5t-244.5 -164t-296.5 -61z" />
    <glyph glyph-name="uni278B" horiz-adv-x="1712" 
d="M1112 362v132h-324l76 75q49 49 64 62l49 49q26 26 42 43.5t40 50t36.5 66t12.5 67.5q0 99 -76.5 160t-179.5 61q-93 0 -164.5 -52t-91.5 -142l133 -55q12 59 45 88.5t80 29.5q45 0 76 -25t31 -65q0 -58 -87 -145l-143 -144q-84 -84 -131 -133v-123h512zM856 -33
q-155 0 -296.5 61t-244.5 164t-164 244.5t-61 296.5t61 296.5t164 244.5t244.5 164t296.5 61t296.5 -61t244.5 -164t164 -244.5t61 -296.5t-61 -296.5t-164 -244.5t-244.5 -164t-296.5 -61z" />
    <glyph glyph-name="uni278C" horiz-adv-x="1712" 
d="M856 -33q-155 0 -296.5 61t-244.5 164t-164 244.5t-61 296.5t61 296.5t164 244.5t244.5 164t296.5 61t296.5 -61t244.5 -164t164 -244.5t61 -296.5t-61 -296.5t-164 -244.5t-244.5 -164t-296.5 -61zM850 338q111 0 191.5 65.5t80.5 174.5q0 105 -116 172q92 61 92 153
q0 97 -69.5 157t-180.5 60q-94 0 -156 -45.5t-90 -122.5l127 -51q32 88 119 88q43 0 72.5 -24t29.5 -64q0 -43 -29.5 -69.5t-76.5 -26.5h-76v-123h84q53 0 88 -27t35 -73q0 -49 -38 -81t-87 -32q-48 0 -86.5 29.5t-54.5 93.5l-134 -49q25 -101 100.5 -153t174.5 -52z" />
    <glyph glyph-name="uni278D" horiz-adv-x="1712" 
d="M1010 362v148h98v123h-98v479h-138l-356 -504v-98h350v-148h144zM866 633h-200l192 268h8v-268zM856 -33q-155 0 -296.5 61t-244.5 164t-164 244.5t-61 296.5t61 296.5t164 244.5t244.5 164t296.5 61t296.5 -61t244.5 -164t164 -244.5t61 -296.5t-61 -296.5t-164 -244.5
t-244.5 -164t-296.5 -61z" />
    <glyph glyph-name="uni278E" horiz-adv-x="1712" 
d="M856 -33q-155 0 -296.5 61t-244.5 164t-164 244.5t-61 296.5t61 296.5t164 244.5t244.5 164t296.5 61t296.5 -61t244.5 -164t164 -244.5t61 -296.5t-61 -296.5t-164 -244.5t-244.5 -164t-296.5 -61zM856 346q111 0 192.5 75t81.5 185q0 114 -74.5 185t-181.5 71
q-73 0 -120 -41l24 166h307v123h-428l-51 -387l125 -51q49 67 125 67q54 0 90.5 -37.5t36.5 -93.5q0 -54 -36.5 -92.5t-90.5 -38.5t-90.5 28t-48.5 79l-133 -52q26 -94 102.5 -140t169.5 -46z" />
    <glyph glyph-name="uni278F" horiz-adv-x="1712" 
d="M856 -33q-155 0 -296.5 61t-244.5 164t-164 244.5t-61 296.5t61 296.5t164 244.5t244.5 164t296.5 61t296.5 -61t244.5 -164t164 -244.5t61 -296.5t-61 -296.5t-164 -244.5t-244.5 -164t-296.5 -61zM848 346q109 0 190.5 76.5t81.5 181.5q0 100 -74 177t-178 77
q-30 0 -43 -8l172 217l-110 78q-15 -20 -45.5 -63t-46.5 -64q-49 -68 -129 -180q-93 -129 -93 -234q0 -106 80 -182t195 -76zM846 477q-55 0 -90 38t-35 91q0 51 35.5 90t89.5 39q55 0 91 -39t36 -90q0 -53 -36 -91t-91 -38z" />
    <glyph glyph-name="uni2790" horiz-adv-x="1712" 
d="M856 -33q-155 0 -296.5 61t-244.5 164t-164 244.5t-61 296.5t61 296.5t164 244.5t244.5 164t296.5 61t296.5 -61t244.5 -164t164 -244.5t61 -296.5t-61 -296.5t-164 -244.5t-244.5 -164t-296.5 -61zM643 399l127 -67l358 657v123h-512v-131h353z" />
    <glyph glyph-name="uni2791" horiz-adv-x="1712" 
d="M856 -33q-155 0 -296.5 61t-244.5 164t-164 244.5t-61 296.5t61 296.5t164 244.5t244.5 164t296.5 61t296.5 -61t244.5 -164t164 -244.5t61 -296.5t-61 -296.5t-164 -244.5t-244.5 -164t-296.5 -61zM856 346q109 0 191.5 64.5t82.5 169.5q0 110 -104 178q36 25 58 65.5
t22 81.5q0 99 -75.5 161t-174.5 62q-102 0 -176 -62t-74 -161q0 -42 22.5 -83t57.5 -64q-104 -68 -104 -178q0 -104 82.5 -169t191.5 -65zM856 813q-42 0 -72 26t-30 66q0 39 29 65.5t73 26.5q43 0 72.5 -27t29.5 -65q0 -40 -31 -66t-71 -26zM856 477q-50 0 -88.5 30.5
t-38.5 78.5q0 46 39 76t88 30q47 0 87 -30.5t40 -75.5t-40 -77t-87 -32z" />
    <glyph glyph-name="uni2792" horiz-adv-x="1712" 
d="M856 -33q-155 0 -296.5 61t-244.5 164t-164 244.5t-61 296.5t61 296.5t164 244.5t244.5 164t296.5 61t296.5 -61t244.5 -164t164 -244.5t61 -296.5t-61 -296.5t-164 -244.5t-244.5 -164t-296.5 -61zM850 1128q-109 0 -190.5 -76.5t-81.5 -181.5q0 -100 73.5 -177
t177.5 -77q28 0 43 9l-172 -217l111 -78q15 20 45.5 63t46.5 64q112 155 129 180q92 127 92 233t-79.5 182t-194.5 76zM852 997q55 0 90 -38t35 -91q0 -51 -35.5 -90t-89.5 -39q-55 0 -91 39t-36 90q0 53 36 91t91 38z" />
    <glyph glyph-name="Google.logo" horiz-adv-x="6725" 
d="M942 -33q-114 0 -224 30.5t-203.5 84.5t-172.5 131.5t-134.5 169.5t-86.5 201t-31 223t31 223t86.5 201t134.5 169.5t172.5 131.5t203.5 84.5t224 30.5q333 0 576 -232l-162 -162q-175 164 -414 164q-166 0 -304.5 -82t-218 -222t-79.5 -306t79.5 -306t218 -222
t304.5 -82q256 0 424 168q101 101 125 288h-549v230h772q12 -61 12 -144q0 -147 -46.5 -289t-151.5 -247q-222 -236 -586 -236zM2351 -33q-111 0 -211 41t-173 112.5t-116 172.5t-43 215q0 115 43 216t116 172t173 112t211 41t211 -41t173 -112t116 -172t43 -216
q0 -114 -43 -215t-116 -172.5t-173 -112.5t-211 -41zM2351 180q125 0 215 94t90 234q0 144 -89.5 236t-215.5 92t-215.5 -92t-89.5 -236q0 -140 90 -234t215 -94zM3535 -33q-111 0 -211 41t-173 112.5t-116 172.5t-43 215q0 115 43 216t116 172t173 112t211 41t211 -41
t173 -112t116 -172t43 -216q0 -114 -43 -215t-116 -172.5t-173 -112.5t-211 -41zM3535 180q125 0 215 94t90 234q0 144 -89.5 236t-215.5 92t-215.5 -92t-89.5 -236q0 -140 90 -234t215 -94zM4698 -518q-94 0 -176 29t-140 77.5t-98 101.5t-65 111l207 86q35 -80 103 -136
t169 -56q137 0 213 81.5t76 235.5v78h-8q-45 -54 -118.5 -88.5t-166.5 -34.5q-100 0 -194.5 42t-166 113.5t-114.5 172t-43 211.5q0 112 43 213.5t114.5 173t166 114t194.5 42.5q92 0 165.5 -34.5t119.5 -86.5h8v88h225v-971q0 -145 -40.5 -255.5t-112.5 -176.5
t-162.5 -98.5t-198.5 -32.5zM4714 180q122 0 205.5 93t83.5 233q0 142 -83.5 236t-205.5 94q-125 0 -213 -94.5t-88 -235.5q0 -139 88 -232.5t213 -93.5zM5614 1589v-1589h-238v1589h238zM6265 -33q-150 0 -273.5 71.5t-193.5 195.5t-70 274q0 118 40.5 220t109.5 172
t162.5 109.5t197.5 39.5q80 0 151.5 -24.5t121 -61.5t90 -85t63.5 -90t37 -83l25 -62l-723 -299q83 -164 262 -164q161 0 266 150l184 -123q-28 -40 -63 -76t-90 -76t-132.5 -64t-164.5 -24zM5964 524l483 201q-20 52 -75 83.5t-126 31.5q-48 0 -97 -20.5t-92 -58.5
t-69 -100t-24 -137z" />
    <glyph glyph-name="G.logo" horiz-adv-x="1763" 
d="M942 -33q-114 0 -224 30.5t-203.5 84.5t-172.5 131.5t-134.5 169.5t-86.5 201t-31 223t31 223t86.5 201t134.5 169.5t172.5 131.5t203.5 84.5t224 30.5q333 0 576 -232l-162 -162q-175 164 -414 164q-166 0 -304.5 -82t-218 -222t-79.5 -306t79.5 -306t218 -222
t304.5 -82q256 0 424 168q101 101 125 288h-549v230h772q12 -61 12 -144q0 -147 -46.5 -289t-151.5 -247q-222 -236 -586 -236z" />
    <glyph glyph-name="o.logo" horiz-adv-x="1183" 
d="M588 -33q-111 0 -211 41t-173 112.5t-116 172.5t-43 215q0 115 43 216t116 172t173 112t211 41q148 0 272 -69t197 -194t73 -278q0 -152 -73 -277t-197 -194.5t-272 -69.5zM588 180q125 0 215 94t90 234q0 144 -89.5 236t-215.5 92t-215.5 -92t-89.5 -236q0 -140 90 -234
t215 -94z" />
    <glyph glyph-name="g.logo" horiz-adv-x="1159" 
d="M567 -518q-94 0 -176 29t-140 77.5t-98 101.5t-65 111l207 86q35 -80 103 -136t169 -56q137 0 213 81.5t76 235.5v78h-8q-45 -54 -118.5 -88.5t-166.5 -34.5q-100 0 -194.5 42t-166 113.5t-114.5 172t-43 211.5q0 112 43 213.5t114.5 173t166 114t194.5 42.5
q92 0 165.5 -34.5t119.5 -86.5h8v88h225v-971q0 -145 -40.5 -255.5t-112.5 -176.5t-162.5 -98.5t-198.5 -32.5zM584 180q122 0 205 93t83 233q0 142 -83 236t-205 94q-125 0 -213 -94.5t-88 -235.5q0 -139 88 -232.5t213 -93.5z" />
    <glyph glyph-name="l.logo" horiz-adv-x="382" 
d="M324 1589v-1589h-238v1589h238z" />
    <glyph glyph-name="e.logo" horiz-adv-x="1052" 
d="M592 -33q-150 0 -273.5 71.5t-193.5 195.5t-70 274q0 118 40.5 220t109.5 172t162.5 109.5t197.5 39.5q80 0 151.5 -24.5t121 -61.5t90 -85t63.5 -90t37 -83l25 -62l-723 -299q83 -164 262 -164q161 0 266 150l184 -123q-28 -40 -63 -76t-90 -76t-132.5 -64t-164.5 -24z
M291 524l483 201q-20 52 -75 83.5t-126 31.5q-48 0 -97 -20.5t-92 -58.5t-69 -100t-24 -137z" />
    </font>
</defs>
</svg>
